<svg width="112" height="112" viewBox="0 0 112 112" fill="none" xmlns="http://www.w3.org/2000/svg">
<path d="M28.327 55.1383C28.3256 53.8944 27.8308 52.7019 26.9513 51.8223C26.0717 50.9427 24.8791 50.448 23.6352 50.4466H7.67918C6.50505 50.4454 5.3732 50.8848 4.50736 51.6778C3.64152 52.4708 3.10469 53.5598 3.00299 54.7295C2.90128 55.8993 3.2421 57.0646 3.95808 57.9951C4.67406 58.9257 5.71309 59.5538 6.8698 59.7553V99.225C6.88139 101.548 7.81221 103.771 9.45873 105.41C11.1052 107.048 13.3335 107.968 15.6562 107.968C17.979 107.968 20.2072 107.048 21.8537 105.41C23.5002 103.771 24.4311 101.548 24.4426 99.225V59.7553C25.5293 59.5646 26.5142 58.9974 27.2244 58.1532C27.9347 57.309 28.325 56.2416 28.327 55.1383ZM21.8185 99.225C21.8088 100.853 21.1554 102.411 20.001 103.558C18.8465 104.706 17.2849 105.35 15.6571 105.35C14.0293 105.35 12.4677 104.706 11.3132 103.558C10.1588 102.411 9.50538 100.853 9.49568 99.225V98.9881H11.5196C11.8676 98.9881 12.2015 98.8498 12.4476 98.6037C12.6938 98.3575 12.8321 98.0237 12.8321 97.6756C12.8321 97.3275 12.6938 96.9937 12.4476 96.7475C12.2015 96.5014 11.8676 96.3631 11.5196 96.3631H9.4948V93.4259H14.1187C14.4668 93.4259 14.8007 93.2877 15.0468 93.0415C15.293 92.7954 15.4312 92.4615 15.4312 92.1134C15.4312 91.7653 15.293 91.4315 15.0468 91.1854C14.8007 90.9392 14.4668 90.8009 14.1187 90.8009H9.4948V87.8638H11.5187C11.8668 87.8638 12.2006 87.7255 12.4468 87.4794C12.6929 87.2332 12.8312 86.8994 12.8312 86.5513C12.8312 86.2032 12.6929 85.8693 12.4468 85.6232C12.2006 85.3771 11.8668 85.2388 11.5187 85.2388H9.4948V82.3014H14.1187C14.4668 82.3014 14.8007 82.1631 15.0468 81.917C15.293 81.6708 15.4312 81.337 15.4312 80.9889C15.4312 80.6408 15.293 80.307 15.0468 80.0608C14.8007 79.8147 14.4668 79.6764 14.1187 79.6764H9.4948V76.7395H11.5187C11.8668 76.7395 12.2006 76.6012 12.4468 76.355C12.6929 76.1089 12.8312 75.7751 12.8312 75.427C12.8312 75.0789 12.6929 74.745 12.4468 74.4989C12.2006 74.2527 11.8668 74.1145 11.5187 74.1145H9.4948V71.1771H14.1187C14.4668 71.1771 14.8007 71.0388 15.0468 70.7927C15.293 70.5465 15.4312 70.2127 15.4312 69.8646C15.4312 69.5165 15.293 69.1827 15.0468 68.9365C14.8007 68.6904 14.4668 68.5521 14.1187 68.5521H9.4948V65.6152H21.8185V99.225ZM9.4948 62.9902V59.8299H21.8185V62.9902H9.4948ZM23.6344 57.2049H7.67918C7.40599 57.2077 7.13496 57.1563 6.88176 57.0537C6.62856 56.9511 6.39821 56.7993 6.20404 56.6071C6.00987 56.415 5.85573 56.1862 5.75053 55.9341C5.64533 55.6819 5.59117 55.4114 5.59117 55.1382C5.59117 54.865 5.64533 54.5945 5.75053 54.3424C5.85573 54.0903 6.00987 53.8615 6.20404 53.6693C6.39821 53.4771 6.62856 53.3254 6.88176 53.2228C7.13496 53.1202 7.40599 53.0688 7.67918 53.0716H23.6355C23.9086 53.0688 24.1797 53.1202 24.4329 53.2228C24.6861 53.3254 24.9164 53.4771 25.1106 53.6693C25.3048 53.8615 25.4589 54.0903 25.5641 54.3424C25.6693 54.5945 25.7235 54.865 25.7235 55.1382C25.7235 55.4114 25.6693 55.6819 25.5641 55.9341C25.4589 56.1862 25.3048 56.415 25.1106 56.6071C24.9164 56.7993 24.6861 56.9511 24.4329 57.0537C24.1797 57.1563 23.9086 57.2077 23.6355 57.2049H23.6344Z" fill="#DFB21E"/>
<path d="M70.757 92.9414C65.6011 92.938 60.6059 91.1471 56.6225 87.8737C52.639 84.6003 49.9137 80.047 48.911 74.9896C47.9082 69.9322 48.69 64.6836 51.1231 60.1379C53.5562 55.5923 57.4902 52.0309 62.2547 50.0605C67.0192 48.0902 72.3195 47.8327 77.2525 49.332C82.1856 50.8314 86.4462 53.9947 89.3084 58.2832C92.1706 62.5716 93.4574 67.7198 92.9495 72.8505C92.4416 77.9813 90.1704 82.7773 86.523 86.4213C84.454 88.4929 81.9961 90.1354 79.2905 91.2543C76.5849 92.3732 73.6848 92.9465 70.757 92.9414ZM70.757 50.9928C66.2081 50.9956 61.801 52.5756 58.2864 55.4635C54.7718 58.3513 52.3672 62.3685 51.4823 66.8304C50.5974 71.2924 51.287 75.9232 53.4335 79.9337C55.58 83.9443 59.0507 87.0866 63.2542 88.8251C67.4577 90.5637 72.134 90.7911 76.4864 89.4684C80.8387 88.1458 84.5978 85.355 87.1233 81.5715C89.6487 77.7881 90.7842 73.2461 90.3363 68.7193C89.8884 64.1925 87.8848 59.9611 84.6669 56.7459C82.8415 54.9181 80.673 53.4689 78.2859 52.4816C75.8988 51.4943 73.3402 50.9884 70.757 50.9928Z" fill="#DFB21E"/>
<path d="M109.611 102.366L93.7633 86.5189C101.274 75.6359 100.192 60.571 90.5151 50.8946C86.7602 47.1455 82.015 44.5437 76.835 43.3936C71.655 42.2436 66.2546 42.5929 61.266 44.4008C56.2773 46.2086 51.9069 49.4001 48.6663 53.6017C45.4257 57.8033 43.449 62.8411 42.9677 68.1253C42.4864 73.4096 43.5203 78.7216 45.9484 83.4395C48.3766 88.1575 52.0984 92.0861 56.6784 94.7655C61.2583 97.445 66.5067 98.7643 71.8092 98.5691C77.1117 98.3739 82.2489 96.6722 86.6194 93.6633L102.462 109.506C102.932 109.976 103.49 110.348 104.103 110.603C104.717 110.857 105.375 110.987 106.039 110.987C106.703 110.987 107.361 110.855 107.974 110.601C108.588 110.346 109.145 109.973 109.614 109.503C110.553 108.553 111.08 107.27 111.079 105.934C111.078 104.598 110.551 103.316 109.611 102.366ZM52.8499 88.5598C49.3087 85.0186 46.8971 80.5069 45.9201 75.5951C44.9431 70.6833 45.4446 65.5921 47.3611 60.9653C49.2775 56.3385 52.523 52.3839 56.687 49.6016C60.851 46.8193 65.7466 45.3343 70.7546 45.3343C75.7626 45.3343 80.6581 46.8193 84.8221 49.6016C88.9861 52.3839 92.2316 56.3385 94.1481 60.9653C96.0646 65.5921 96.566 70.6833 95.589 75.5951C94.612 80.5069 92.2004 85.0186 88.6592 88.5598C83.907 93.3016 77.4678 95.9646 70.7546 95.9646C64.0413 95.9646 57.6021 93.3016 52.8499 88.5598ZM107.755 107.649C107.529 107.875 107.261 108.054 106.966 108.176C106.672 108.298 106.356 108.361 106.037 108.361C105.717 108.361 105.401 108.298 105.107 108.176C104.812 108.054 104.544 107.875 104.318 107.649L88.7249 92.0559C89.3393 91.5395 89.9362 90.9926 90.5156 90.4153C91.095 89.8379 91.6418 89.2406 92.1562 88.6233L107.752 104.219C108.203 104.675 108.457 105.291 108.458 105.933C108.458 106.576 108.206 107.192 107.755 107.649H107.755Z" fill="#DFB21E"/>
<path d="M86.8568 64.9438C86.9865 64.4335 86.9996 63.9006 86.895 63.3845C86.7904 62.8685 86.5708 62.3827 86.2526 61.9633C85.9343 61.5438 85.5256 61.2015 85.0568 60.9618C84.5881 60.7221 84.0713 60.5911 83.5449 60.5786C83.4863 60.5773 83.427 60.5767 83.3686 60.5767C80.8674 60.5767 78.5635 61.7595 76.5808 63.3819C76.5742 60.0851 75.853 56.77 73.6226 54.4379C73.2983 54.0986 72.9085 53.8286 72.4768 53.6441C72.0452 53.4596 71.5807 53.3644 71.1113 53.3644C70.6419 53.3644 70.1773 53.4596 69.7457 53.6441C69.3141 53.8286 68.9243 54.0986 68.5999 54.4379C66.3687 56.77 65.6481 60.0854 65.6418 63.3821C63.659 61.7595 61.356 60.5769 58.8548 60.5767C58.7955 60.5767 58.7367 60.5767 58.6774 60.5786C58.151 60.591 57.6341 60.7219 57.1653 60.9616C56.6964 61.2013 56.2876 61.5436 55.9693 61.963C55.651 62.3825 55.4313 62.8683 55.3267 63.3844C55.2221 63.9005 55.2351 64.4335 55.3649 64.9438C56.0478 67.6156 57.9024 69.9352 60.0166 71.8182C58.6065 72.2619 57.3559 73.1061 56.4171 74.2479C56.094 74.6468 55.8626 75.1119 55.7392 75.6102C55.6158 76.1085 55.6034 76.6279 55.703 77.1315C55.8025 77.6351 56.0116 78.1106 56.3154 78.5245C56.6191 78.9383 57.0101 79.2804 57.4607 79.5263C58.7443 80.2244 60.3128 80.5783 62.1227 80.5783C62.6151 80.5783 63.1071 80.5523 63.5929 80.5065C63.6012 80.8113 63.6327 81.115 63.687 81.415C63.8306 82.2223 64.2504 82.9546 64.8743 83.4865C65.4983 84.0185 66.2878 84.3171 67.1076 84.3312H67.1612C68.128 84.3244 69.069 84.0188 69.8553 83.4562C70.1224 84.8846 70.6785 86.3636 71.7705 87.4987C72.0124 87.7469 72.3427 87.8893 72.6892 87.8948C73.0358 87.9004 73.3704 87.7687 73.6202 87.5284C73.87 87.2881 74.0146 86.9588 74.0225 86.6123C74.0303 86.2658 73.9008 85.9303 73.6622 85.6789C73.133 85.0874 72.76 84.3731 72.5772 83.6008C73.3191 84.0737 74.1798 84.3266 75.0596 84.3303H75.1217C75.9301 84.3162 76.709 84.0247 77.3281 83.5048C77.9473 82.9849 78.369 82.268 78.5226 81.4743C78.5839 81.1549 78.6192 80.831 78.6281 80.5059C79.1133 80.5516 79.6057 80.5776 80.0981 80.5776C81.908 80.5776 83.4764 80.2237 84.7598 79.5257C85.2105 79.2798 85.6016 78.9378 85.9053 78.5239C86.2091 78.1101 86.4182 77.6345 86.5178 77.1309C86.6174 76.6273 86.6051 76.1079 86.4817 75.6096C86.3583 75.1113 86.1268 74.6462 85.8037 74.2472C84.8651 73.106 83.615 72.2621 82.2055 71.8182C84.3188 69.9344 86.1738 67.6156 86.8568 64.9438ZM74.9143 74.0921C74.9263 74.0921 74.9382 74.0912 74.95 74.0893C75.9541 73.9222 76.9699 73.8352 77.9878 73.8292C80.0983 73.8292 82.4437 74.261 83.7608 75.8951C83.8425 75.9946 83.9014 76.1109 83.9331 76.2357C83.9648 76.3605 83.9687 76.4907 83.9445 76.6172C83.9203 76.7437 83.8685 76.8633 83.7929 76.9675C83.7172 77.0717 83.6196 77.158 83.5068 77.2203C82.5188 77.7575 81.3207 77.9533 80.0989 77.9533C78.0405 77.9533 75.9153 77.3977 74.619 76.984C74.5986 76.9775 74.5773 76.9741 74.5558 76.974C74.5164 76.9751 74.4782 76.9881 74.4463 77.0113C74.4143 77.0344 74.3901 77.0666 74.3766 77.1037C74.3632 77.1407 74.3612 77.181 74.3709 77.2192C74.3807 77.2575 74.4016 77.2919 74.4311 77.3181C75.272 78.0701 76.259 79.3384 75.9451 80.9825C75.9077 81.1839 75.8017 81.366 75.6451 81.498C75.4885 81.6299 75.291 81.7035 75.0863 81.7062H75.0605C73.6137 81.7062 72.4768 79.9588 71.6445 78.75C71.5917 78.6516 71.5133 78.5693 71.4176 78.5119C71.3219 78.4544 71.2124 78.4238 71.1008 78.4234C70.9892 78.4229 70.8795 78.4527 70.7834 78.5094C70.6872 78.5662 70.6082 78.6479 70.5547 78.7458C69.7151 79.9549 68.6108 81.7062 67.1621 81.7062H67.1402C66.93 81.6999 66.7286 81.6209 66.5701 81.4828C66.4116 81.3446 66.306 81.1558 66.2711 80.9484C65.9773 79.3214 66.9556 78.066 67.7903 77.3189C67.82 77.2928 67.8411 77.2583 67.8509 77.22C67.8607 77.1817 67.8587 77.1413 67.8453 77.1041C67.8318 77.0669 67.8074 77.0347 67.7753 77.0115C67.7433 76.9884 67.7049 76.9754 67.6654 76.9744C67.6439 76.9745 67.6226 76.978 67.6022 76.9847C66.3054 77.3981 64.1816 77.9533 62.1236 77.9533C60.9021 77.9533 59.7036 77.7575 58.7157 77.2203C58.6029 77.158 58.5053 77.0718 58.4296 76.9675C58.354 76.8633 58.3022 76.7437 58.2779 76.6172C58.2537 76.4908 58.2576 76.3605 58.2894 76.2357C58.3211 76.1109 58.38 75.9946 58.4617 75.8951C59.779 74.2608 62.1243 73.8292 64.2348 73.8292C65.2526 73.8352 66.2684 73.9222 67.2725 74.0893C67.2843 74.0912 67.2963 74.0921 67.3082 74.0921C67.3511 74.0906 67.3924 74.0751 67.4257 74.0479C67.459 74.0207 67.4824 73.9834 67.4925 73.9416C67.5026 73.8999 67.4988 73.8559 67.4816 73.8166C67.4643 73.7772 67.4347 73.7445 67.3972 73.7236C64.8048 72.3211 59.0519 68.7649 57.9089 64.2937C57.8771 64.1662 57.8742 64.0333 57.9006 63.9046C57.9269 63.7759 57.9818 63.6548 58.0611 63.5501C58.1405 63.4455 58.2423 63.36 58.3591 63.2999C58.4759 63.2398 58.6047 63.2067 58.736 63.203C58.7756 63.203 58.815 63.2017 58.8546 63.2017C63.3171 63.2017 67.4077 68.7969 69.0796 71.4221C69.0963 71.45 69.1199 71.4732 69.1482 71.4893C69.1765 71.5054 69.2085 71.5139 69.2411 71.514C69.2716 71.5144 69.3018 71.5078 69.3293 71.4946C69.3568 71.4814 69.3808 71.4619 69.3995 71.4378C69.4182 71.4137 69.4311 71.3856 69.4371 71.3557C69.4431 71.3258 69.442 71.2949 69.434 71.2655C68.5371 67.9658 66.8878 60.0261 70.4969 56.252C70.5763 56.169 70.6716 56.103 70.7772 56.0579C70.8828 56.0128 70.9965 55.9895 71.1113 55.9895C71.2261 55.9895 71.3397 56.0128 71.4453 56.0579C71.5509 56.103 71.6463 56.169 71.7256 56.252C75.335 60.0261 73.6852 67.9658 72.7885 71.2655C72.7802 71.2949 72.779 71.3259 72.7848 71.3559C72.7907 71.386 72.8035 71.4142 72.8223 71.4384C72.8411 71.4626 72.8653 71.482 72.8929 71.4951C72.9205 71.5082 72.9509 71.5147 72.9815 71.514C73.014 71.5139 73.046 71.5054 73.0743 71.4893C73.1026 71.4732 73.1262 71.45 73.1429 71.4221C74.8159 68.7971 78.9046 63.2012 83.3679 63.2017C83.4071 63.2017 83.4471 63.2017 83.4865 63.203C83.6178 63.2067 83.7466 63.2398 83.8634 63.2999C83.9802 63.36 84.082 63.4455 84.1614 63.5501C84.2408 63.6548 84.2956 63.7759 84.322 63.9046C84.3483 64.0333 84.3455 64.1662 84.3136 64.2937C83.1706 68.7649 77.4177 72.3218 74.8253 73.7236C74.7878 73.7445 74.7582 73.7772 74.741 73.8166C74.7238 73.8559 74.7199 73.8999 74.73 73.9416C74.7401 73.9834 74.7636 74.0207 74.7969 74.0479C74.8301 74.0751 74.8714 74.0906 74.9143 74.0921Z" fill="#DFB21E"/>
<path d="M34.9307 59.1441C34.398 59.1429 33.8708 59.0354 33.3801 58.8281C32.8894 58.6207 32.4449 58.3176 32.0727 57.9364C31.7131 57.5707 31.4311 57.1361 31.2436 56.6587C31.0562 56.1813 30.9672 55.6709 30.9821 55.1582C31.0168 53.9435 31.8059 52.335 33.3277 50.3775C33.5169 50.1327 33.7598 49.9346 34.0377 49.7987C34.3157 49.6627 34.6211 49.5925 34.9305 49.5935C35.2398 49.5925 35.5451 49.6627 35.823 49.7987C36.1008 49.9346 36.3436 50.1327 36.5326 50.3775C38.0545 52.3348 38.8437 53.9431 38.8785 55.1582C38.8934 55.6711 38.8045 56.1817 38.6171 56.6594C38.4296 57.137 38.1476 57.5718 37.7878 57.9377C37.4156 58.3185 36.9713 58.6214 36.4807 58.8285C35.9902 59.0357 35.4632 59.1429 34.9307 59.1441ZM34.9307 52.6166C33.9798 53.9457 33.6182 54.8421 33.6062 55.232C33.6025 55.3939 33.6316 55.5548 33.6918 55.7052C33.7519 55.8556 33.8419 55.9922 33.9562 56.107C34.0829 56.2373 34.2345 56.3409 34.402 56.4117C34.5695 56.4824 34.7494 56.5189 34.9313 56.5189C35.1131 56.5189 35.293 56.4824 35.4605 56.4117C35.628 56.3409 35.7796 56.2373 35.9063 56.107C36.0207 55.9922 36.1106 55.8556 36.1707 55.7052C36.2309 55.5548 36.26 55.3939 36.2563 55.232C36.2437 54.8421 35.8814 53.9457 34.9307 52.6166Z" fill="#DFB21E"/>
<path d="M36.2355 48.2493C35.9759 48.2493 35.7221 48.1724 35.5062 48.0281C35.2904 47.8839 35.1221 47.6789 35.0228 47.4391C34.9234 47.1992 34.8974 46.9353 34.9481 46.6807C34.9987 46.4261 35.1238 46.1922 35.3074 46.0086L42.5736 38.7424C42.8197 38.4963 43.1536 38.358 43.5017 38.358C43.8498 38.3581 44.1836 38.4964 44.4298 38.7425C44.6759 38.9887 44.8142 39.3225 44.8142 39.6706C44.8141 40.0187 44.6758 40.3526 44.4297 40.5987L37.1634 47.8649C37.0417 47.987 36.8971 48.0837 36.7378 48.1497C36.5786 48.2156 36.4079 48.2495 36.2355 48.2493Z" fill="#DFB21E"/>
<path d="M57.4713 27.6194C57.4439 27.592 57.4221 27.5595 57.4073 27.5237C57.3925 27.4879 57.3848 27.4495 57.3848 27.4107C57.3848 27.372 57.3925 27.3336 57.4073 27.2978C57.4221 27.262 57.4439 27.2295 57.4713 27.2021L57.872 26.8013C57.955 26.7183 58.0017 26.6057 58.0017 26.4883C58.0017 26.3709 57.955 26.2583 57.872 26.1752L56.9703 25.2736C56.8873 25.1905 56.7747 25.1439 56.6573 25.1439C56.5399 25.1439 56.4273 25.1905 56.3443 25.2736L55.9435 25.6743C55.9161 25.7017 55.8836 25.7235 55.8478 25.7383C55.812 25.7531 55.7736 25.7608 55.7348 25.7608C55.6961 25.7608 55.6577 25.7531 55.6219 25.7383C55.5861 25.7235 55.5535 25.7017 55.5261 25.6743L55.1243 25.2725C55.0413 25.1895 54.9287 25.1428 54.8113 25.1428C54.6939 25.1428 54.5813 25.1895 54.4982 25.2725L53.5955 26.1752C53.5125 26.2583 53.4658 26.3709 53.4658 26.4883C53.4658 26.6057 53.5125 26.7183 53.5955 26.8013L53.9973 27.2031C54.0247 27.2306 54.0465 27.2631 54.0613 27.2989C54.0761 27.3347 54.0838 27.3731 54.0838 27.4118C54.0838 27.4506 54.0761 27.489 54.0613 27.5248C54.0465 27.5606 54.0247 27.5931 53.9973 27.6205L53.5966 28.0213C53.5135 28.1043 53.4669 28.2169 53.4669 28.3343C53.4669 28.4517 53.5135 28.5643 53.5966 28.6473L54.4982 29.549C54.5813 29.632 54.6939 29.6787 54.8113 29.6787C54.9287 29.6787 55.0413 29.632 55.1243 29.549L55.5251 29.1483C55.5525 29.1209 55.585 29.0991 55.6208 29.0843C55.6566 29.0695 55.695 29.0618 55.7337 29.0618C55.7725 29.0618 55.8109 29.0695 55.8467 29.0843C55.8825 29.0991 55.915 29.1209 55.9424 29.1483L56.3432 29.549C56.4262 29.632 56.5388 29.6787 56.6562 29.6787C56.7736 29.6787 56.8862 29.632 56.9692 29.549L57.872 28.6465C57.955 28.5634 58.0016 28.4507 58.0016 28.3333C58.0016 28.2159 57.955 28.1033 57.872 28.0202L57.4713 27.6194Z" fill="#DFB21E"/>
<path d="M81.1414 7.21987L75.95 2.02915C75.3031 1.38227 74.4258 1.01886 73.5109 1.01886C72.5961 1.01886 71.7188 1.38227 71.0719 2.02915C70.425 2.67603 70.0616 3.55339 70.0616 4.46822C70.0616 5.38304 70.425 6.2604 71.0719 6.90728L71.0968 6.93222L68.4609 9.56859L66.6807 7.78753C66.076 7.18298 65.2683 6.82459 64.4143 6.78188C63.5603 6.73917 62.7209 7.01518 62.0589 7.55638C61.3969 8.09758 60.9595 8.86538 60.8316 9.71082C60.7037 10.5563 60.8943 11.4191 61.3666 12.1319L40.2102 33.2894C38.8461 34.6535 38.8977 36.9239 40.3237 38.3506L44.8199 42.8468C45.165 43.195 45.5754 43.4717 46.0275 43.6611C46.4797 43.8506 46.9647 43.949 47.455 43.9508C47.9047 43.954 48.3507 43.8681 48.7671 43.6981C49.1835 43.5281 49.5621 43.2774 49.8811 42.9603L71.0382 21.8033C71.7509 22.275 72.6135 22.4652 73.4585 22.337C74.3036 22.2089 75.0709 21.7716 75.6118 21.1098C76.1527 20.448 76.4286 19.6089 76.386 18.7553C76.3434 17.9017 75.9853 17.0943 75.3812 16.4896L73.6011 14.7097L76.2385 12.0724L76.2632 12.0971C76.9101 12.744 77.7875 13.1074 78.7023 13.1074C79.6171 13.1074 80.4945 12.744 81.1414 12.0971C81.7883 11.4502 82.1517 10.5729 82.1517 9.65806C82.1517 8.74323 81.7883 7.86588 81.1414 7.219V7.21987ZM63.175 14.037L69.1337 19.9957L67.3969 21.7333H55.4785L63.175 14.037ZM48.025 41.1032C47.6842 41.4435 47.0792 41.3928 46.676 40.9896L42.1798 36.4937C41.7767 36.0903 41.7257 35.4852 42.0663 35.1446L52.8535 24.3574H64.7719L48.025 41.1032ZM73.5258 19.5108C73.3713 19.6652 73.1617 19.7519 72.9433 19.7519C72.7248 19.7519 72.5153 19.6652 72.3607 19.5108L63.6595 10.8098C63.505 10.6553 63.4182 10.4457 63.4182 10.2272C63.4182 10.0088 63.505 9.79921 63.6595 9.64471C63.814 9.49022 64.0236 9.40342 64.2421 9.40342C64.4606 9.40342 64.6701 9.49022 64.8246 9.64471L73.5258 18.3459C73.68 18.5005 73.7666 18.71 73.7666 18.9284C73.7666 19.1467 73.68 19.3562 73.5258 19.5108ZM71.7456 12.8533L70.317 11.4249L72.9542 8.78743L74.3829 10.2161L71.7456 12.8533ZM79.2851 10.241C79.1305 10.3953 78.9209 10.482 78.7025 10.482C78.4841 10.482 78.2746 10.3953 78.12 10.241L72.9295 5.05031C72.7752 4.89573 72.6885 4.68622 72.6885 4.46778C72.6885 4.24934 72.7752 4.03983 72.9295 3.88525C73.0864 3.73541 73.295 3.65181 73.5119 3.65181C73.7289 3.65181 73.9375 3.73541 74.0943 3.88525L79.2853 9.07596C79.4397 9.23049 79.5265 9.44002 79.5265 9.6585C79.5265 9.87697 79.4395 10.0865 79.2851 10.241Z" fill="#DFB21E"/>
</svg>
