<svg width="18" height="18" viewBox="0 0 18 18" fill="none" xmlns="http://www.w3.org/2000/svg">
<path d="M8.94453 12.8462C9.53609 12.711 12.3373 12.9935 13.6711 15.5751C13.264 15.6737 10.6509 15.8335 8.94453 12.8462Z" fill="#49763F" stroke="#0A140A" stroke-linejoin="round"/>
<path d="M9.01055 12.8462C8.41899 12.711 5.61776 12.9935 4.28395 15.5751C4.69103 15.6737 7.30415 15.8335 9.01055 12.8462Z" fill="#49763F" stroke="#0A140A" stroke-linejoin="round"/>
<path d="M8.95605 17V12.9781" stroke="#0A140A" stroke-linecap="round" stroke-linejoin="round"/>
<path d="M8.95634 12.8177C9.59751 12.2225 13.2988 10.5559 16.8252 12.8177C16.388 13.2344 13.2405 15.3177 8.95634 12.8177Z" fill="#49763F" stroke="#0A140A" stroke-linejoin="round"/>
<path d="M1.0872 12.8177C1.72837 12.2225 5.42964 10.5559 8.95605 12.8177C8.5189 13.2344 5.37136 15.3177 1.0872 12.8177Z" fill="#49763F" stroke="#0A140A" stroke-linejoin="round"/>
<path d="M9.0674 12.7974C9.11834 11.7275 10.9269 7.06593 15.9452 5.91964C15.9197 6.65835 14.9517 11.1926 9.0674 12.7974Z" fill="#49763F" stroke="#0A140A" stroke-linejoin="round"/>
<path d="M8.91307 12.7974C8.86213 11.7275 7.05353 7.06593 2.0353 5.91964C2.06078 6.65835 3.02875 11.1926 8.91307 12.7974Z" fill="#49763F" stroke="#0A140A" stroke-linejoin="round"/>
<path d="M8.98568 12.8033C8.11136 11.8415 5.66328 6.28962 8.98568 1C9.59769 1.65574 12.6578 6.37705 8.98568 12.8033Z" fill="#49763F" stroke="#0A140A" stroke-linejoin="round"/>
</svg>
