<svg width="112" height="112" viewBox="0 0 112 112" fill="none" xmlns="http://www.w3.org/2000/svg">
<path d="M78.8974 68.1317C79.1043 67.5098 79.1607 66.8477 79.0618 66.1997C78.963 65.5518 78.7118 64.9366 78.3289 64.4046C77.946 63.8727 77.4423 63.4392 76.8592 63.1399C76.2762 62.8405 75.6304 62.6838 74.975 62.6826C74.8759 62.6826 74.7757 62.6861 74.6766 62.6931C71.3684 62.9281 68.3342 64.8454 65.7765 67.2604C66.0211 62.813 65.378 58.2427 62.6854 55.0255C62.2982 54.5639 61.8146 54.1927 61.2686 53.938C60.7226 53.6833 60.1275 53.5513 59.525 53.5513C58.9225 53.5513 58.3273 53.6833 57.7813 53.938C57.2353 54.1927 56.7518 54.5639 56.3646 55.0255C53.672 58.2425 53.0287 62.813 53.2732 67.2604C50.7158 64.8454 47.6813 62.9281 44.3727 62.6931C44.2739 62.6861 44.1737 62.6826 44.075 62.6826C43.4195 62.6837 42.7737 62.8404 42.1905 63.1397C41.6074 63.4391 41.1036 63.8725 40.7207 64.4045C40.3377 64.9365 40.0865 65.5518 39.9877 66.1998C39.8889 66.8478 39.9454 67.51 40.1524 68.1319C41.2713 71.5158 43.9138 74.4415 46.7947 76.783C44.7715 77.228 43.1175 78.0586 41.8536 79.2678C41.3506 79.7477 40.9757 80.3458 40.763 81.0076C40.5503 81.6694 40.5066 82.374 40.6358 83.057C40.7603 83.7335 41.052 84.3681 41.4844 84.903C41.9169 85.4379 42.4762 85.8561 43.1116 86.1195C44.6403 86.7179 46.2719 87.0093 47.9132 86.9772C48.8159 86.974 49.7174 86.9115 50.6119 86.79C50.5784 87.1214 50.5695 87.4548 50.5854 87.7875C50.6342 88.8589 51.0942 89.8702 51.8696 90.6112C52.645 91.3521 53.6762 91.7656 54.7487 91.7657C55.229 91.7657 55.7056 91.6817 56.157 91.5174C57.5686 91.0049 58.6637 89.9385 59.5135 88.8834C60.4283 90.0087 61.5186 91.0272 62.914 91.5259C63.3593 91.6851 63.8288 91.7665 64.3017 91.7665C65.3733 91.7664 66.4037 91.3535 67.1788 90.6136C67.9539 89.8737 68.4142 88.8636 68.4641 87.7932C68.4804 87.4586 68.4717 87.1233 68.4379 86.79C69.3323 86.9115 70.2339 86.974 71.1366 86.9772C72.778 87.0093 74.4096 86.7179 75.9384 86.1195C76.5737 85.8561 77.133 85.4378 77.5654 84.9029C77.9978 84.368 78.2895 83.7335 78.4139 83.057C78.5432 82.374 78.4994 81.6695 78.2867 81.0077C78.074 80.3459 77.6991 79.7479 77.1962 79.2681C75.9322 78.0588 74.2783 77.2284 72.255 76.7835C75.136 74.4418 77.7785 71.5158 78.8974 68.1317ZM66.0312 77.9146C65.9103 77.9869 65.8164 78.0966 65.7634 78.227C65.7105 78.3575 65.7016 78.5016 65.738 78.6376C65.7744 78.7737 65.8541 78.8941 65.965 78.9807C66.076 79.0674 66.2122 79.1155 66.3529 79.1178C66.3748 79.1178 66.3967 79.1178 66.4186 79.1149C67.0451 79.0591 67.7173 79.0233 68.4092 79.0233C70.8924 79.0233 73.6279 79.4861 75.3819 81.1637C75.5667 81.3391 75.7051 81.5576 75.7846 81.7996C75.8642 82.0416 75.8825 82.2996 75.8378 82.5504C75.7932 82.8012 75.687 83.037 75.5287 83.2367C75.3705 83.4364 75.1652 83.5937 74.9312 83.6945C73.7211 84.1582 72.4321 84.3812 71.1366 84.3507C69.2061 84.3114 67.2884 84.0263 65.43 83.5022C65.3724 83.4865 65.313 83.4785 65.2533 83.4783C65.1327 83.4796 65.0149 83.5146 64.9131 83.5792C64.8113 83.6438 64.7296 83.7356 64.6772 83.8441C64.6247 83.9527 64.6036 84.0737 64.6161 84.1936C64.6287 84.3136 64.6745 84.4276 64.7484 84.5229C65.4818 85.4025 65.8706 86.5187 65.8422 87.6637C65.822 88.0597 65.6513 88.4331 65.365 88.7074C65.0786 88.9817 64.6983 89.1362 64.3017 89.1394C64.1292 89.1395 63.958 89.1099 63.7955 89.0519C62.4857 88.5848 61.4004 87.1026 60.5362 85.8511C60.4362 85.665 60.2877 85.5095 60.1064 85.401C59.9252 85.2926 59.7179 85.2353 59.5066 85.2353C59.2954 85.2353 59.0881 85.2926 58.9068 85.401C58.7255 85.5095 58.577 85.665 58.4771 85.8511C57.6159 87.0993 56.5578 88.5774 55.2604 89.0484C55.0961 89.1083 54.9227 89.139 54.7478 89.1391C54.3509 89.1356 53.9704 88.9807 53.6839 88.7059C53.3975 88.4312 53.2268 88.0574 53.2067 87.661C53.1793 86.5175 53.5679 85.4029 54.3005 84.5244C54.3744 84.4291 54.4203 84.315 54.4329 84.195C54.4455 84.075 54.4243 83.9539 54.3718 83.8453C54.3193 83.7366 54.2374 83.6448 54.1356 83.5802C54.0337 83.5156 53.9158 83.4807 53.7952 83.4794C53.7355 83.4795 53.676 83.4875 53.6184 83.5033C51.7603 84.0271 49.8431 84.3121 47.913 84.3514C46.6174 84.3818 45.3284 84.1589 44.1183 83.6951C43.8843 83.5943 43.679 83.437 43.5208 83.2374C43.3626 83.0377 43.2564 82.8019 43.2117 82.5511C43.1671 82.3002 43.1853 82.0423 43.2649 81.8003C43.3445 81.5582 43.4829 81.3398 43.6677 81.1644C45.4219 79.4866 48.1571 79.0239 50.6406 79.0239C51.3327 79.0239 52.0054 79.0598 52.6312 79.1156C52.6531 79.1175 52.6749 79.1184 52.6968 79.1184C52.8376 79.1161 52.9738 79.068 53.0847 78.9814C53.1957 78.8948 53.2754 78.7743 53.3118 78.6383C53.3482 78.5023 53.3392 78.3582 53.2863 78.2277C53.2334 78.0972 53.1394 77.9876 53.0186 77.9153C49.4749 75.7934 44.1844 71.9653 42.6446 67.3083C42.5681 67.0808 42.5467 66.8384 42.5821 66.6009C42.6176 66.3635 42.7089 66.1379 42.8485 65.9426C42.9881 65.7474 43.1721 65.5881 43.3854 65.4778C43.5986 65.3675 43.835 65.3094 44.075 65.3083C44.1118 65.3083 44.1492 65.3096 44.1868 65.3122C48.8628 65.6443 53.1667 70.5677 55.6712 74.0889C55.7282 74.1736 55.8051 74.2429 55.8952 74.2909C55.9853 74.3388 56.0858 74.3639 56.1878 74.3639C56.286 74.3658 56.3833 74.3453 56.4724 74.3039C56.5614 74.2626 56.6399 74.2015 56.7018 74.1253C56.7637 74.0491 56.8075 73.9598 56.8297 73.8641C56.8519 73.7685 56.8521 73.669 56.8301 73.5733C55.7665 68.803 54.7909 60.9972 58.3784 56.711C58.5192 56.5437 58.6948 56.4093 58.893 56.317C59.0912 56.2248 59.3071 56.177 59.5258 56.177C59.7444 56.177 59.9603 56.2248 60.1585 56.317C60.3567 56.4093 60.5323 56.5437 60.6731 56.711C64.2606 60.9972 63.285 68.803 62.2214 73.5733C62.1995 73.669 62.1996 73.7685 62.2218 73.8641C62.2441 73.9598 62.2878 74.0491 62.3497 74.1253C62.4116 74.2015 62.4901 74.2626 62.5791 74.3039C62.6682 74.3453 62.7655 74.3658 62.8637 74.3639C62.9657 74.3638 63.0662 74.3387 63.1563 74.2908C63.2464 74.2428 63.3233 74.1735 63.3804 74.0889C65.8839 70.567 70.1881 65.6452 74.8647 65.3122C74.9026 65.3096 74.9398 65.3083 74.9767 65.3083C75.2168 65.3095 75.4531 65.3676 75.6663 65.4779C75.8795 65.5881 76.0635 65.7475 76.2031 65.9427C76.3427 66.138 76.434 66.3636 76.4694 66.601C76.5049 66.8384 76.4834 67.0808 76.4069 67.3083C74.8654 71.9642 69.5751 75.7921 66.0312 77.9146Z" fill="#DFB21E"/>
<path d="M55.8011 78.3665C56.4512 78.3665 56.9782 77.8395 56.9782 77.1894C56.9782 76.5393 56.4512 76.0123 55.8011 76.0123C55.151 76.0123 54.624 76.5393 54.624 77.1894C54.624 77.8395 55.151 78.3665 55.8011 78.3665Z" fill="#DFB21E"/>
<path d="M63.1019 78.3665C63.752 78.3665 64.279 77.8395 64.279 77.1894C64.279 76.5393 63.752 76.0123 63.1019 76.0123C62.4518 76.0123 61.9248 76.5393 61.9248 77.1894C61.9248 77.8395 62.4518 78.3665 63.1019 78.3665Z" fill="#DFB21E"/>
<path d="M61.5997 94.9675C61.2744 94.9678 60.9606 94.8469 60.7196 94.6284C58.1399 92.2957 57.966 88.7193 58.092 86.7952C58.1173 86.4498 58.2781 86.1284 58.5394 85.901C58.8006 85.6737 59.1412 85.5588 59.4868 85.5814C59.8323 85.604 60.155 85.7624 60.3844 86.0218C60.6137 86.2813 60.7313 86.6209 60.7113 86.9667C60.6164 88.4177 60.7199 91.0895 62.4804 92.6815C62.6771 92.8595 62.8152 93.0928 62.8767 93.3508C62.9382 93.6088 62.9201 93.8793 62.8247 94.1268C62.7294 94.3743 62.5613 94.5871 62.3426 94.7372C62.1239 94.8873 61.8649 94.9675 61.5997 94.9675Z" fill="#DFB21E"/>
<path d="M60.8136 78.0063C60.8696 78.0067 60.9248 78.0193 60.9755 78.0433C61.0261 78.0673 61.0709 78.102 61.1068 78.1451C61.1426 78.1882 61.1686 78.2385 61.1829 78.2927C61.1973 78.3469 61.1996 78.4035 61.1898 78.4587C61.0607 79.2287 60.5758 79.8838 59.5251 79.8838C58.4745 79.8838 57.9895 79.2276 57.8604 78.4587C57.8506 78.4035 57.853 78.3469 57.8673 78.2927C57.8817 78.2385 57.9077 78.1882 57.9435 78.1451C57.9793 78.102 58.0241 78.0673 58.0748 78.0433C58.1254 78.0193 58.1807 78.0067 58.2367 78.0063H60.8136Z" fill="#DFB21E"/>
<path d="M97.905 50.3899C97.9052 49.4767 97.816 48.5656 97.6386 47.6698C97.6386 47.6667 97.6373 47.6637 97.6366 47.6606C97.467 46.8056 97.218 45.9683 96.8929 45.1596L89.8914 27.743V24.3053C89.889 22.3243 89.101 20.425 87.7002 19.0242C86.2993 17.6234 84.4001 16.8354 82.4191 16.833H41.916L40.6153 14.0779C39.1673 11.0182 36.7843 8.49792 33.8104 6.88099L33.8006 6.87574H33.7986C31.3605 5.54917 28.6176 4.88387 25.8426 4.946C23.0677 5.00813 20.3573 5.79553 17.981 7.2299L6.14336 14.3612C5.49325 14.757 4.98008 15.3427 4.67297 16.0391C4.36587 16.7356 4.27958 17.5094 4.42574 18.2564C4.7687 20.1269 5.77215 21.8119 7.2533 23.0046C7.85242 23.4944 8.58785 23.7877 9.35957 23.8447C10.1313 23.9017 10.9018 23.7196 11.5664 23.3231L23.3863 16.2026C24.0405 15.8087 24.7701 15.5563 25.5278 15.4618C26.2856 15.3673 27.0548 15.4328 27.7857 15.654C28.5166 15.8752 29.193 16.2472 29.7712 16.7461C30.3494 17.2449 30.8166 17.8594 31.1425 18.55L31.6345 19.5923C30.5442 20.9211 29.9489 22.587 29.9501 24.3057V27.7434L22.9466 45.1598C22.2769 46.8221 21.9334 48.5976 21.9349 50.3897V102.259C21.937 104.12 22.6775 105.905 23.9939 107.222C25.3103 108.538 27.0951 109.278 28.9568 109.28H90.8805C92.7422 109.278 94.5271 108.538 95.8435 107.222C97.1599 105.905 97.9003 104.12 97.9024 102.259L97.905 50.3899ZM24.5606 12.9555C23.6676 13.1439 22.8127 13.4815 22.0318 13.9541L10.2125 21.0735C10.0116 21.1916 9.77911 21.2451 9.54673 21.2265C9.31434 21.208 9.0933 21.1183 8.91361 20.9698C7.90665 20.1651 7.22723 19.0212 7.00239 17.752C6.95835 17.5336 6.98226 17.307 7.07093 17.1026C7.15959 16.8982 7.30874 16.7259 7.4983 16.6088L19.3357 9.47756C20.9319 8.5171 22.7119 7.90222 24.5606 7.67265V12.9555ZM82.42 19.458C83.7051 19.4595 84.9371 19.9707 85.8458 20.8794C86.7545 21.7881 87.2657 23.0202 87.2672 24.3053V26.6847H46.5662L43.155 19.458H82.42ZM29.2497 13.391C29.0205 13.2985 28.7864 13.214 28.5462 13.1412C28.1015 13.0079 27.6463 12.9123 27.1856 12.8553V7.60965C28.672 7.71433 30.1295 8.0728 31.495 8.6695L29.2497 13.391ZM31.5041 14.7628L33.7934 9.94787C35.7101 11.2783 37.244 13.0887 38.2416 15.1979L48.9584 37.9017C49.0191 38.0267 49.0415 38.1669 49.023 38.3046C49.0044 38.4424 48.9457 38.5716 48.8541 38.6761C48.3442 39.2292 47.7236 39.6689 47.0326 39.9664C46.3416 40.264 45.5958 40.4128 44.8435 40.4031H44.8282C44.6905 40.4036 44.5554 40.3652 44.4385 40.2924C44.3217 40.2195 44.2277 40.1151 44.1676 39.9912L33.5162 17.4289C33.0389 16.4095 32.3535 15.5014 31.5041 14.7628ZM34.9823 26.6847H32.5738V24.3053C32.5738 23.6531 32.7064 23.0077 32.9636 22.4083L34.9823 26.6847ZM25.3829 46.1392L32.1484 29.3097H36.2213L41.7926 41.1123C42.0661 41.6843 42.4954 42.1676 43.0312 42.5065C43.567 42.8454 44.1876 43.0262 44.8216 43.0281H44.8435C45.9594 43.0332 47.0642 42.8066 48.088 42.3627C49.1118 41.9188 50.0323 41.2673 50.7913 40.4493C51.2372 39.9616 51.5271 39.3518 51.6238 38.6982C51.7204 38.0445 51.6195 37.3769 51.3338 36.7811L47.8067 29.309H87.6923L94.4578 46.1383C94.5216 46.2969 94.5809 46.457 94.6374 46.6176H25.2037C25.2601 46.4577 25.3194 46.2978 25.3833 46.1392H25.3829ZM24.6188 49.2432H95.2216C95.2599 49.6228 95.2785 96.3182 95.2785 96.3182C92.6343 96.5965 91.0936 97.6964 89.7144 98.6829C88.2584 99.7253 87.0008 100.625 84.366 100.625C81.7311 100.625 80.4735 99.7253 79.0175 98.6829C77.4241 97.5424 75.6188 96.25 72.1411 96.25C68.6634 96.25 66.8585 97.5424 65.2654 98.6827C63.8096 99.7251 62.5529 100.625 59.9178 100.625C57.2827 100.625 56.026 99.7251 54.57 98.6827C52.9771 97.5424 51.1715 96.25 47.6943 96.25C44.217 96.25 42.4117 97.5424 40.819 98.6827C39.363 99.7251 38.1065 100.625 35.4712 100.625C32.8359 100.625 31.5794 99.7251 30.1236 98.6827C28.7455 97.6957 27.2046 96.5963 24.5608 96.3182C24.5608 96.3182 24.5811 49.6228 24.6192 49.2432H24.6188ZM90.8814 106.655H28.9577C27.7919 106.654 26.6743 106.19 25.85 105.366C25.0257 104.542 24.5621 103.424 24.5608 102.258V98.961C26.3469 99.2086 27.4045 99.965 28.5959 100.817C30.1886 101.958 31.9941 103.25 35.4712 103.25C38.9482 103.25 40.754 101.958 42.3467 100.817C43.8025 99.7749 45.0592 98.875 47.6943 98.875C50.3293 98.875 51.586 99.7749 53.042 100.817C54.6352 101.958 56.4408 103.25 59.9178 103.25C63.3948 103.25 65.2004 101.958 66.7933 100.817C68.2498 99.7749 69.5065 98.875 72.1411 98.875C74.7757 98.875 76.0335 99.7749 77.4895 100.817C79.0827 101.958 80.8883 103.25 84.366 103.25C87.8436 103.25 89.649 101.958 91.2421 100.817C92.4328 99.9641 93.4918 99.2086 95.2783 98.961V102.259C95.277 103.424 94.8133 104.542 93.989 105.366C93.1647 106.19 92.0471 106.654 90.8814 106.655Z" fill="#DFB21E"/>
</svg>
