<svg width="25" height="24" viewBox="0 0 25 24" fill="none" xmlns="http://www.w3.org/2000/svg">
<path d="M22.6674 16.9201V19.9201C22.6685 20.1986 22.6115 20.4743 22.4999 20.7294C22.3884 20.9846 22.2247 21.2137 22.0195 21.402C21.8143 21.5902 21.572 21.7336 21.3082 21.8228C21.0443 21.912 20.7648 21.9452 20.4874 21.9201C17.4102 21.5857 14.4544 20.5342 11.8574 18.8501C9.44124 17.3148 7.39275 15.2663 5.85741 12.8501C4.16739 10.2413 3.11566 7.27109 2.78741 4.1801C2.76242 3.90356 2.79529 3.62486 2.88391 3.36172C2.97254 3.09859 3.11498 2.85679 3.30218 2.65172C3.48937 2.44665 3.71722 2.28281 3.9712 2.17062C4.22519 2.05843 4.49975 2.00036 4.77741 2.0001H7.77741C8.26272 1.99532 8.73321 2.16718 9.10118 2.48363C9.46915 2.80008 9.70949 3.23954 9.77741 3.7201C9.90404 4.68016 10.1389 5.62282 10.4774 6.5301C10.612 6.88802 10.6411 7.27701 10.5613 7.65098C10.4816 8.02494 10.2963 8.36821 10.0274 8.6401L8.75741 9.9101C10.181 12.4136 12.2539 14.4865 14.7574 15.9101L16.0274 14.6401C16.2993 14.3712 16.6426 14.1859 17.0165 14.1062C17.3905 14.0264 17.7795 14.0556 18.1374 14.1901C19.0447 14.5286 19.9873 14.7635 20.9474 14.8901C21.4332 14.9586 21.8768 15.2033 22.1939 15.5776C22.5111 15.9519 22.6796 16.4297 22.6674 16.9201Z" stroke="#0A140A" stroke-width="2" stroke-linecap="round" stroke-linejoin="round"/>
</svg>
