<svg width="183" height="32" viewBox="0 0 183 32" fill="none" xmlns="http://www.w3.org/2000/svg">
<path d="M0.8 1.08572C0.514286 1.48572 0.285714 2.11429 0.171429 2.91429C0.0571429 3.88572 0 5.2 0 6.85714V25.2C0 26.2286 0 27.0857 0 27.7714C0 28.4571 0.0571429 29.0286 0.114286 29.4286C0.171429 29.8286 0.228571 30.1714 0.285714 30.4C0.342857 30.5714 0.4 30.7429 0.457143 30.8571C0.571429 31.0857 0.685714 31.2 0.857143 31.3143C0.914286 31.3714 1.08571 31.4857 1.42857 31.5429C1.77143 31.6 2.17143 31.7143 2.68571 31.7143C3.25714 31.7714 4 31.7714 4.85714 31.7714H7.02857C7.77143 31.7714 8.45714 31.7714 8.97143 31.7714C9.42857 31.7714 9.82857 31.7143 10.1143 31.6571C10.4 31.6 10.5714 31.5429 10.6286 31.4857C10.8 31.3714 10.9714 31.2571 11.0857 31.1429C11.3143 30.9143 11.4857 30.6286 11.6 30.2286C11.6571 29.9429 11.7714 29.2571 11.7714 27.7143V15.0857H7.2C7.25714 15.2571 7.31429 15.4286 7.31429 15.5429C7.37143 15.9429 7.42857 16.3429 7.42857 16.8571V28.3429H6.05714C5.25714 28.3429 4.68571 28.0571 4.45714 27.5429C4.34286 27.2571 4.22857 26.8 4.22857 25.3714V5.94286C4.22857 4.85715 4.34286 4.34286 4.62857 4C4.91429 3.65714 5.42857 3.54286 6.45714 3.54286H8.34286C9.02857 3.54286 9.77143 3.6 10.5143 3.71429C10.9714 3.77143 11.3714 3.82857 11.7143 3.94286V0.114288H4.85714C3.65714 0.114288 2.68571 0.17143 2 0.342858C1.48571 0.514287 1.02857 0.74286 0.8 1.08572Z" fill="white"/>
<path d="M30.5141 28.9143V19.6C30.5141 18.4571 30.3427 17.8857 30.1713 17.6C29.9998 17.2 29.5427 16.8571 28.9713 16.5714L27.4284 15.7714L29.0284 15.0857C29.657 14.8 30.057 14.4571 30.2284 14.0571C30.3998 13.7143 30.5713 12.9143 30.5713 11.1429V3.6C30.5713 2.05715 30.2855 1.02858 29.657 0.571433C29.4855 0.51429 29.3713 0.400003 29.257 0.342861C29.257 0.342861 29.1427 0.285719 28.9141 0.285719C28.6855 0.228576 28.3427 0.228577 27.9998 0.228577C27.5998 0.228577 27.0855 0.228577 26.3998 0.228577H18.6855V31.8286H23.0284V17.7143H24.1713C24.857 17.7143 25.3713 17.9429 25.7141 18.3429C25.9998 18.7429 26.1713 19.2571 26.1713 20.0571V28.9143C26.1713 29.6 26.2284 30.2286 26.2855 30.7429C26.3427 31.0857 26.3998 31.4286 26.5141 31.8286H30.7998C30.7427 31.4857 30.6855 31.1429 30.6284 30.7429C30.5713 30.1714 30.5141 29.5429 30.5141 28.9143ZM26.2284 12.3429C26.2284 13.0286 26.1141 13.5429 25.7713 13.8286C25.4284 14.2857 24.7427 14.2857 24.2855 14.2857H23.0284V3.6H24.2855C24.9713 3.6 25.4855 3.77143 25.8284 4.17143C26.1141 4.51429 26.2855 5.02858 26.2855 5.71429V12.3429H26.2284Z" fill="white"/>
<path d="M54.9716 0.39999C54.7431 0.457132 54.6288 0.514275 54.4574 0.571418C54.3431 0.628561 54.1716 0.742845 54.0574 0.914274C53.6574 1.25713 53.0859 2.45713 53.0859 6.2857V24.9714C53.0859 26.2857 53.1431 27.3714 53.2002 28.2286C53.2574 29.0286 53.3717 29.7143 53.4859 30.2286C53.6002 30.6286 53.7717 30.9714 53.9431 31.1428C54.1717 31.3143 54.4002 31.4857 54.6859 31.6L55.0288 31.6571C55.1431 31.6571 55.2574 31.7143 55.4288 31.7143C55.6574 31.7143 55.9431 31.7714 56.2859 31.7714C56.6859 31.7714 57.2002 31.7714 57.8859 31.7714H62.3431V28.3428H57.4859V17.7143H62.3431V14.2857H57.4859V3.59999H62.3431V0.171417H57.8859C57.1431 0.171417 56.5145 0.171419 56.0574 0.228561C55.6002 0.285704 55.2002 0.342847 54.9716 0.39999Z" fill="white"/>
<path d="M38.9144 0.571448C38.8001 0.628591 38.6287 0.742876 38.5144 0.914304C38.1144 1.25716 37.543 2.45716 37.543 6.28573V24.9714C37.543 26.2857 37.6001 27.3714 37.6573 28.2286C37.7144 29.0286 37.8287 29.7143 37.943 30.2286C38.0573 30.6286 38.2287 30.9714 38.4001 31.1429C38.6287 31.3143 38.8573 31.4857 39.143 31.6L39.4858 31.6572C39.6001 31.6572 39.7144 31.7143 39.8858 31.7143C40.1144 31.7143 40.4001 31.7714 40.743 31.7714C41.143 31.7714 41.6573 31.7714 42.343 31.7714H46.8001V28.3429H41.943V17.7143H46.8001V14.2857H41.943V3.60002H46.8001V0.171448H42.2858C41.543 0.171448 40.9144 0.171449 40.4573 0.228592C40.0001 0.285735 39.6573 0.285733 39.4287 0.342876C39.2001 0.400019 39.0287 0.457162 38.9144 0.571448Z" fill="white"/>
<path d="M80.3428 1.88572C80.2856 1.77143 80.2285 1.6 80.1142 1.37143C79.8285 0.857146 79.5428 0.514288 79.2571 0.400003C79.0856 0.285717 78.5142 0.17143 77.1999 0.17143C76.1713 0.17143 75.5999 0.285717 75.3713 0.400003C75.0285 0.514288 74.7428 0.857146 74.4571 1.37143L73.3142 3.37143L72.8571 0.628573C72.8571 0.57143 72.8571 0.514288 72.7999 0.400003C72.7428 0.285717 72.7428 0.228574 72.6856 0.114288H68.3428C68.3428 0.228574 68.3999 0.400003 68.3999 0.514289C68.4571 0.914289 68.5142 1.31429 68.5713 1.65715C68.6285 2.05715 68.6285 2.45714 68.6856 2.85714C68.6856 3.25714 68.6856 3.71429 68.6856 4.28572V31.7143H73.0285V6.05714C73.0285 4.11429 74.1142 3.88572 74.5713 3.88572C74.9142 3.88572 76.1713 4.05715 76.1713 5.94286V31.8286H80.5142V3.77143C80.5142 3.2 80.5142 2.74286 80.4571 2.45714C80.3999 2.05714 80.3428 1.94286 80.3428 1.88572Z" fill="white"/>
<path d="M98.743 0.914289C98.5144 0.628575 98.2287 0.457148 97.7716 0.400005C97.2001 0.285719 96.4573 0.228577 95.543 0.228577H87.4287V31.8286H91.7716V17.7143H96.0001C97.2573 17.7143 97.7716 17.6571 97.943 17.6C98.1716 17.5429 98.4001 17.4286 98.5716 17.2C98.6859 17.0857 98.9144 16.8 99.143 15.7714C99.3144 14.9143 99.3716 13.8286 99.3716 12.6286V5.02858C99.3716 3.88572 99.3144 2.97143 99.2001 2.28572C99.2001 1.65715 99.0287 1.2 98.743 0.914289ZM95.0858 12.0571C95.0858 12.9143 94.9716 13.4286 94.743 13.7714C94.2859 14.3429 93.4859 14.3429 93.2573 14.3429H91.8859V3.6H93.143C93.8859 3.6 94.4001 3.77143 94.6859 4.17143C94.9716 4.51429 95.0858 5.02858 95.0858 5.82858V12.0571Z" fill="white"/>
<path d="M156.4 28.9143V19.6C156.4 18.4571 156.228 17.8857 156.057 17.6C155.886 17.2 155.428 16.8571 154.857 16.5714L153.314 15.7714L154.914 15.0857C155.543 14.8 155.943 14.4571 156.114 14.0571C156.286 13.7143 156.457 12.9143 156.457 11.1429V3.6C156.457 2.05715 156.171 1.02858 155.543 0.571433C155.371 0.51429 155.257 0.400003 155.143 0.342861C155.143 0.342861 155.028 0.285719 154.8 0.285719C154.571 0.228576 154.228 0.228577 153.886 0.228577C153.486 0.228577 152.971 0.228577 152.286 0.228577H144.571V31.8286H148.914V17.7143H150.057C150.743 17.7143 151.257 17.9429 151.6 18.3429C151.886 18.7429 152.057 19.2571 152.057 20.0571V28.9143C152.057 29.6 152.114 30.2286 152.171 30.7429C152.228 31.0857 152.286 31.4286 152.4 31.8286H156.686C156.628 31.4857 156.571 31.1429 156.514 30.7429C156.457 30.1714 156.4 29.5429 156.4 28.9143ZM152.114 12.3429C152.114 13.0286 152 13.5429 151.657 13.8286C151.257 14.2857 150.571 14.3429 150.114 14.3429H148.857V3.6H150.114C150.8 3.6 151.314 3.77143 151.657 4.17143C151.943 4.51429 152.114 5.02858 152.114 5.71429V12.3429Z" fill="white"/>
<path d="M182.286 0.79999C182.114 0.628561 181.829 0.457131 181.486 0.342845C181.029 0.22856 180.457 0.171417 179.772 0.171417C178.572 0.171417 177.943 0.342847 177.657 0.514276C177.257 0.685704 176.972 1.0857 176.743 1.59999L176 3.31427L175.257 1.59999C174.972 0.971417 174.686 0.571417 174.343 0.457132C174.114 0.342846 173.543 0.171417 172.172 0.171417C171.086 0.171417 170.572 0.285704 170.286 0.39999C169.943 0.514275 169.657 0.857133 169.372 1.37142L168.229 3.37142L167.772 0.742846C167.772 0.62856 167.714 0.571419 167.714 0.514276L167.6 0.171417H163.2C163.257 0.342846 163.257 0.514274 163.314 0.62856C163.372 1.02856 163.429 1.42856 163.486 1.77142C163.543 2.11427 163.6 2.51427 163.6 2.91427C163.6 3.31427 163.6 3.77142 163.6 4.2857V31.7143H167.943V6.05713C167.943 4.11427 169.029 3.8857 169.486 3.8857C169.829 3.8857 171.086 4.05713 171.086 5.94285V31.8286H175.429V6.2857C175.429 5.54285 175.486 5.02856 175.657 4.6857C175.886 4.17142 176.4 3.8857 176.972 3.8857C177.6 3.8857 178.114 4.17142 178.343 4.6857C178.514 5.02856 178.572 5.4857 178.572 6.22856V31.7143H182.914V3.71427C182.914 2.91427 182.857 2.22856 182.743 1.71427C182.629 1.31427 182.514 0.971419 182.286 0.79999Z" fill="white"/>
<path d="M113.543 31.8286H117.886V0.171448H113.543V13.4857L110.343 15.3714V0.171448H106V31.8286H110.343V18.5143L113.543 16.6857V31.8286Z" fill="white"/>
<path d="M136.057 0.857147C135.771 0.628576 135.314 0.457148 134.685 0.400005C134 0.285719 133.028 0.228577 131.885 0.228577H129.828C128.685 0.228577 127.771 0.285719 127.085 0.400005C126.514 0.51429 126.057 0.685718 125.714 0.914289C125.428 1.14286 125.257 1.42857 125.143 1.77143C125.028 2.28572 124.971 2.97143 124.971 3.88572V17.8857H124.914V21.0857L124.971 22.5143V31.8857H129.314V18.5143L132.457 16.6857V31.8286H136.8V3.82858C136.8 2.91429 136.743 2.22858 136.628 1.71429C136.514 1.31429 136.343 1.02858 136.057 0.857147ZM132.457 13.4857L129.314 15.3143V5.82858C129.314 3.77143 130.285 3.42858 130.914 3.42858C131.543 3.42858 132.514 3.71429 132.514 5.82858V13.4857H132.457Z" fill="white"/>
</svg>
