<svg width="160.000000" height="160.000000" viewBox="0 0 160 160" fill="none" xmlns="http://www.w3.org/2000/svg" xmlns:xlink="http://www.w3.org/1999/xlink">
	<desc>
			Created with Pixso.
	</desc>
	<defs>
		<clipPath id="clip29_148">
			<rect id="greenpharm-primary-logo-white" rx="0.000000" width="159.466675" height="159.466675" transform="translate(0.266667 0.266667)" fill="white" fill-opacity="0"/>
		</clipPath>
	</defs>
	<rect id="greenpharm-primary-logo-white" rx="0.000000" width="159.466675" height="159.466675" transform="translate(0.266667 0.266667)" fill="#FFFFFF" fill-opacity="0"/>
	<g clip-path="url(#clip29_148)">
		<path id="Контур 4" d="M80 0C35.88 0 0 35.88 0 80C0 124.11 35.88 160 80 160C124.11 160 160 124.11 160 80C160 35.88 124.11 0 80 0ZM80 157.49C37.27 157.49 2.5 122.72 2.5 80C2.5 37.27 37.27 2.5 80 2.5C122.72 2.5 157.49 37.27 157.49 80C157.49 122.72 122.72 157.49 80 157.49Z" fill="#FAFAFA" fill-opacity="1.000000" fill-rule="nonzero"/>
		<path id="Контур 5" d="M33.41 62.51C36.96 53.02 43.33 44.85 51.65 39.08C59.98 33.32 69.87 30.23 80 30.23C90.12 30.23 100.01 33.32 108.34 39.08C116.66 44.85 123.03 53.02 126.58 62.51L126.73 62.89L129.4 62.89L129.11 62.1C125.44 52.02 118.76 43.32 109.97 37.17C101.19 31.02 90.72 27.72 79.99 27.72C69.27 27.72 58.8 31.02 50.02 37.17C41.23 43.32 34.55 52.02 30.87 62.1L30.58 62.89L33.26 62.89L33.41 62.51Z" fill="#FAFAFA" fill-opacity="1.000000" fill-rule="nonzero"/>
		<path id="Контур 6" d="M126.59 97.48C123.03 106.97 116.66 115.14 108.34 120.91C100.01 126.68 90.12 129.77 80 129.77C69.87 129.77 59.98 126.68 51.65 120.91C43.33 115.14 36.96 106.97 33.41 97.48L33.26 97.1L30.59 97.1L30.88 97.89C34.55 107.97 41.23 116.67 50.02 122.82C58.8 128.97 69.27 132.27 80 132.27C90.72 132.27 101.19 128.97 109.97 122.82C118.76 116.67 125.44 107.97 129.12 97.89L129.41 97.1L126.73 97.1L126.59 97.48Z" fill="#FAFAFA" fill-opacity="1.000000" fill-rule="nonzero"/>
		<path id="Контур 7" d="M8.54 67.53C8.15 67.59 7.79 67.79 7.54 68.09C7.25 68.53 7.08 69.04 7.06 69.56C6.96 70.6 6.91 71.64 6.93 72.68L6.93 87.35C6.93 88.17 6.93 88.85 6.94 89.41C6.96 89.95 6.98 90.4 7.02 90.75C7.04 91.02 7.08 91.28 7.14 91.54C7.17 91.66 7.22 91.78 7.29 91.89C7.36 92.04 7.47 92.16 7.6 92.26C7.73 92.36 7.89 92.42 8.05 92.45C8.38 92.53 8.72 92.58 9.06 92.59C9.52 92.61 10.11 92.63 10.82 92.63L12.56 92.63C13.17 92.63 13.68 92.62 14.09 92.61C14.41 92.6 14.72 92.58 15.03 92.54C15.17 92.52 15.32 92.48 15.45 92.41C15.58 92.34 15.71 92.25 15.82 92.15C16.03 91.96 16.17 91.71 16.24 91.43C16.35 90.77 16.4 90.1 16.37 89.42L16.37 79.24L12.73 79.24C12.77 79.39 12.8 79.52 12.82 79.63C12.88 79.98 12.91 80.34 12.91 80.69L12.91 89.89L11.83 89.89C11.58 89.93 11.33 89.89 11.1 89.77C10.88 89.66 10.69 89.49 10.56 89.27C10.39 88.71 10.33 88.13 10.39 87.55L10.39 72C10.39 71.13 10.47 70.73 10.71 70.47C10.96 70.21 11.37 70.1 12.17 70.1L13.69 70.1C14.27 70.11 14.84 70.15 15.42 70.23C15.74 70.27 16.06 70.33 16.37 70.41L16.37 67.36L10.82 67.36C10.06 67.35 9.29 67.4 8.54 67.53Z" fill="#FAFAFA" fill-opacity="1.000000" fill-rule="nonzero"/>
		<path id="Контур 8" d="M27.51 81.89C27.78 82.29 27.91 82.77 27.87 83.24L27.87 90.3C27.86 90.79 27.89 91.28 27.96 91.76C28 92.05 28.06 92.34 28.13 92.63L31.54 92.63C31.49 92.34 31.44 92.06 31.41 91.78C31.35 91.29 31.33 90.79 31.33 90.3L31.33 82.89C31.37 82.34 31.28 81.79 31.07 81.28C30.84 80.91 30.5 80.62 30.09 80.45L28.87 79.82L30.12 79.25C30.54 79.11 30.87 78.8 31.07 78.41C31.29 77.65 31.38 76.86 31.33 76.07L31.33 70.09C31.33 68.86 31.08 68.05 30.59 67.67C30.47 67.6 30.36 67.55 30.26 67.51C30.17 67.47 30.07 67.45 29.97 67.44C29.78 67.42 29.53 67.4 29.23 67.39C28.92 67.38 28.49 67.37 27.96 67.37L21.88 67.37L21.88 92.63L25.34 92.63L25.34 81.39L26.27 81.39C26.5 81.37 26.74 81.41 26.95 81.5C27.17 81.58 27.36 81.72 27.51 81.89ZM25.34 70.1L26.34 70.1C26.56 70.08 26.79 70.11 27 70.19C27.21 70.27 27.4 70.39 27.56 70.55C27.82 70.91 27.94 71.36 27.9 71.8L27.9 77.07C27.95 77.49 27.82 77.92 27.55 78.26C27.39 78.4 27.2 78.51 26.99 78.57C26.78 78.64 26.56 78.67 26.34 78.65L25.34 78.65L25.34 70.1Z" fill="#FAFAFA" fill-opacity="1.000000" fill-rule="nonzero"/>
		<path id="Контур 9" d="M56.72 70.1L56.72 67.36L53.17 67.36C52.57 67.36 52.08 67.38 51.7 67.4C51.41 67.42 51.14 67.45 50.86 67.51C50.72 67.54 50.59 67.58 50.47 67.65C50.35 67.73 50.24 67.82 50.14 67.92C49.84 68.22 49.35 69.15 49.35 72.2L49.35 87.15C49.35 88.19 49.38 89.07 49.43 89.76C49.46 90.3 49.54 90.83 49.68 91.36C49.74 91.62 49.87 91.87 50.05 92.08C50.22 92.24 50.43 92.37 50.65 92.46L50.92 92.53C51.01 92.55 51.11 92.57 51.21 92.57C51.38 92.59 51.61 92.6 51.91 92.61C52.21 92.62 52.63 92.63 53.17 92.63L56.72 92.63L56.72 89.89L52.82 89.89L52.82 81.39L56.72 81.39L56.72 78.65L52.82 78.65L52.82 70.1L56.72 70.1Z" fill="#FAFAFA" fill-opacity="1.000000" fill-rule="nonzero"/>
		<path id="Контур 10" d="M44.27 70.1L44.27 67.36L40.72 67.36C40.13 67.36 39.63 67.38 39.25 67.4C38.97 67.42 38.69 67.45 38.42 67.51C38.28 67.54 38.15 67.58 38.03 67.65C37.9 67.73 37.79 67.82 37.69 67.92C37.4 68.22 36.91 69.15 36.91 72.2L36.91 87.15C36.91 88.2 36.93 89.07 36.99 89.76C37.02 90.3 37.1 90.83 37.23 91.36C37.29 91.62 37.42 91.87 37.6 92.08C37.78 92.24 37.98 92.37 38.21 92.46L38.47 92.53C38.57 92.55 38.67 92.57 38.77 92.57C38.93 92.59 39.17 92.6 39.46 92.61C39.76 92.62 40.19 92.63 40.72 92.63L44.27 92.63L44.27 89.89L40.37 89.89L40.37 81.39L44.27 81.39L44.27 78.65L40.37 78.65L40.37 70.1L44.27 70.1Z" fill="#FAFAFA" fill-opacity="1.000000" fill-rule="nonzero"/>
		<path id="Контур 11" d="M71.25 92.63L71.25 70.21C71.25 69.76 71.23 69.4 71.21 69.15C71.2 69.01 71.18 68.87 71.13 68.73C71.08 68.6 71.01 68.46 70.94 68.33C70.8 68.01 70.56 67.74 70.26 67.56C69.73 67.39 69.18 67.32 68.62 67.36C68.13 67.33 67.63 67.4 67.16 67.56C66.84 67.74 66.58 68.02 66.42 68.35L65.49 69.95L65.13 67.76C65.12 67.71 65.11 67.65 65.1 67.59C65.06 67.52 65.04 67.44 65.02 67.36L61.53 67.36C61.55 67.47 61.58 67.58 61.59 67.68C61.64 68 61.69 68.3 61.73 68.6C61.77 68.91 61.8 69.23 61.81 69.56C61.83 69.87 61.83 70.25 61.83 70.68L61.83 92.62L65.3 92.62L65.3 72.04C65.3 70.47 66.15 70.3 66.52 70.3C66.82 70.3 67.78 70.42 67.78 71.96L67.78 92.62L71.25 92.63Z" fill="#FAFAFA" fill-opacity="1.000000" fill-rule="nonzero"/>
		<path id="Контур 12" d="M85.09 67.51C84.51 67.4 83.92 67.35 83.33 67.36L76.86 67.36L76.86 92.63L80.33 92.63L80.33 81.38L83.69 81.38C84.21 81.41 84.72 81.38 85.23 81.3C85.43 81.25 85.61 81.15 85.75 81C86 80.68 86.16 80.28 86.19 79.87C86.33 79.04 86.4 78.19 86.39 77.34L86.39 71.2C86.4 70.47 86.36 69.73 86.26 68.99C86.22 68.61 86.08 68.25 85.86 67.94C85.66 67.71 85.39 67.56 85.09 67.51ZM82.93 76.83C82.98 77.3 82.88 77.77 82.64 78.18C82.49 78.35 82.3 78.47 82.09 78.55C81.89 78.63 81.66 78.66 81.44 78.65L80.33 78.65L80.33 70.1L81.34 70.1C81.57 70.08 81.8 70.11 82.01 70.19C82.23 70.27 82.43 70.39 82.59 70.56C82.85 70.94 82.97 71.41 82.93 71.88L82.93 76.83Z" fill="#FAFAFA" fill-opacity="1.000000" fill-rule="nonzero"/>
		<path id="Контур 13" d="M122.48 67.36L122.48 92.63L125.94 92.63L125.94 81.39L126.87 81.39C127.1 81.37 127.34 81.4 127.55 81.49C127.77 81.58 127.96 81.72 128.12 81.89C128.39 82.29 128.51 82.77 128.47 83.24L128.47 90.3C128.46 90.79 128.49 91.28 128.56 91.76C128.6 92.05 128.66 92.34 128.73 92.63L132.15 92.63C132.1 92.34 132.05 92.06 132.01 91.77C131.96 91.28 131.93 90.79 131.93 90.3L131.93 82.89C131.97 82.34 131.88 81.79 131.67 81.28C131.44 80.91 131.1 80.62 130.7 80.45L129.47 79.82L130.73 79.25C131.14 79.1 131.48 78.8 131.67 78.41C131.89 77.65 131.98 76.86 131.93 76.07L131.93 70.09C131.93 68.86 131.69 68.05 131.2 67.66C131.07 67.6 130.96 67.55 130.86 67.5C130.77 67.47 130.67 67.45 130.57 67.44C130.38 67.41 130.14 67.4 129.84 67.39C129.52 67.37 129.1 67.37 128.56 67.37L122.48 67.36ZM128.51 77.07C128.55 77.49 128.42 77.92 128.16 78.26C127.99 78.4 127.8 78.51 127.59 78.57C127.38 78.64 127.16 78.67 126.94 78.65L125.94 78.65L125.94 70.1L126.94 70.1C127.17 70.08 127.39 70.11 127.6 70.19C127.81 70.27 128 70.39 128.16 70.55C128.42 70.92 128.55 71.36 128.51 71.8L128.51 77.07Z" fill="#FAFAFA" fill-opacity="1.000000" fill-rule="nonzero"/>
		<path id="Контур 14" d="M152.94 68.58C152.9 68.31 152.79 68.06 152.62 67.84C152.44 67.67 152.22 67.55 151.98 67.5C151.53 67.4 151.06 67.35 150.6 67.36C150.02 67.32 149.44 67.41 148.91 67.63C148.56 67.83 148.29 68.14 148.15 68.52L147.55 69.89L146.94 68.52C146.81 68.14 146.56 67.81 146.23 67.59C145.67 67.39 145.08 67.31 144.5 67.36C143.99 67.33 143.47 67.4 142.99 67.56C142.67 67.74 142.41 68.01 142.25 68.35L141.33 69.93L140.97 67.82C140.96 67.75 140.95 67.68 140.93 67.62L140.86 67.36L137.36 67.36C137.38 67.5 137.41 67.63 137.43 67.75C137.48 68.07 137.52 68.37 137.56 68.66C137.6 68.95 137.63 69.26 137.65 69.58C137.66 69.88 137.67 70.25 137.67 70.68L137.67 92.62L141.13 92.62L141.13 72.04C141.13 70.47 141.98 70.3 142.36 70.3C142.65 70.3 143.62 70.42 143.62 71.96L143.62 92.62L147.08 92.62L147.08 72.24C147.05 71.8 147.12 71.37 147.28 70.96C147.38 70.77 147.53 70.6 147.72 70.49C147.91 70.38 148.13 70.33 148.34 70.34C148.57 70.32 148.8 70.38 148.99 70.5C149.19 70.61 149.34 70.79 149.44 71C149.57 71.39 149.63 71.82 149.6 72.24L149.6 92.62L153.06 92.62L153.06 70.16C153.07 69.63 153.03 69.1 152.94 68.58Z" fill="#FAFAFA" fill-opacity="1.000000" fill-rule="nonzero"/>
		<path id="Контур 15" d="M101.15 92.63L101.15 67.36L97.69 67.36L97.69 78.01L95.12 79.49L95.12 67.36L91.66 67.36L91.66 92.63L95.12 92.63L95.12 82.02L97.69 80.54L97.69 92.63L101.15 92.63Z" fill="#FAFAFA" fill-opacity="1.000000" fill-rule="nonzero"/>
		<path id="Контур 16" d="M116.26 92.63L116.26 70.29C116.27 69.72 116.22 69.15 116.1 68.6C116.05 68.32 115.9 68.06 115.68 67.88C115.35 67.67 114.98 67.53 114.6 67.5C113.86 67.4 113.11 67.35 112.36 67.36L110.7 67.36C109.96 67.35 109.22 67.4 108.49 67.5C108.1 67.54 107.72 67.67 107.4 67.89C107.17 68.07 107.02 68.32 106.96 68.6C106.84 69.15 106.79 69.72 106.81 70.29L106.81 81.47L106.77 81.49L106.77 84.03L106.81 85.15L106.81 92.63L110.27 92.63L110.27 82L112.79 80.54L112.79 92.63L116.26 92.63ZM110.27 79.47L110.27 71.88C110.27 70.23 111.06 69.98 111.53 69.98C112 69.98 112.8 70.23 112.8 71.88L112.8 78.01L110.27 79.47Z" fill="#FAFAFA" fill-opacity="1.000000" fill-rule="nonzero"/>
		<path id="Контур 17" d="M33.17 34.99C33.62 35.48 34.17 35.88 34.78 36.15C35.36 36.41 36 36.55 36.64 36.57C36.68 36.57 36.73 36.57 36.77 36.57C37.37 36.57 37.97 36.46 38.53 36.25C39.17 36.02 39.75 35.66 40.25 35.19C40.53 34.93 40.79 34.64 41 34.31C41.23 33.96 41.43 33.58 41.58 33.19L41.6 33.15L39.98 31.39L39.97 31.57C39.97 32.02 39.89 32.46 39.74 32.87C39.58 33.24 39.34 33.56 39.04 33.83C38.74 34.11 38.38 34.33 38 34.48C37.63 34.62 37.23 34.67 36.84 34.65C36.44 34.63 36.05 34.53 35.69 34.35C35.3 34.17 34.95 33.91 34.66 33.59C34.36 33.27 34.12 32.9 33.97 32.5C33.82 32.12 33.74 31.72 33.74 31.31C33.74 30.92 33.82 30.53 33.97 30.17C34.14 29.79 34.37 29.45 34.68 29.18C34.97 28.9 35.32 28.69 35.7 28.56C36.14 28.44 36.59 28.39 37.05 28.42L37.22 28.42L35.6 26.67L35.56 26.68C35.16 26.8 34.77 26.95 34.4 27.14C34.05 27.34 33.73 27.57 33.44 27.84C32.94 28.3 32.54 28.85 32.27 29.47C31.73 30.67 31.67 32.04 32.12 33.28C32.35 33.91 32.71 34.5 33.17 34.99Z" fill="#FAFAFA" fill-opacity="1.000000" fill-rule="nonzero"/>
		<path id="Контур 18" d="M45.49 30.56L47.27 29.52L47.31 29.5L47.04 27.34L50.29 25.44L51.95 26.72L51.99 26.76L53.83 25.68L45.45 19.3L45.41 19.27L44.17 19.99L44.13 20.02L45.47 30.45L45.49 30.56ZM48.9 24.34L46.77 25.59L46.28 22.26L48.9 24.34Z" fill="#FAFAFA" fill-opacity="1.000000" fill-rule="nonzero"/>
		<path id="Контур 19" d="M58.24 23.79L60.14 23.21L58.32 17.22L65.56 21.73L65.59 21.75L66.91 21.34L64.09 12.06L64.07 11.99L62.16 12.57L63.98 18.54L56.73 14.03L56.71 14.01L55.38 14.41L58.22 23.72L58.24 23.79Z" fill="#FAFAFA" fill-opacity="1.000000" fill-rule="nonzero"/>
		<path id="Контур 20" d="M74.58 20.08L74.28 13.83L80.2 19.97L80.22 20L81.6 19.93L81.14 10.17L79.15 10.26L79.45 16.49L73.53 10.34L73.51 10.32L72.13 10.38L72.59 20.17L74.58 20.08Z" fill="#FAFAFA" fill-opacity="1.000000" fill-rule="nonzero"/>
		<path id="Контур 21" d="M88.49 20.45L89.69 18.64L93.39 19.34L93.82 21.45L95.91 21.85L93.78 11.53L93.77 11.48L92.36 11.22L92.31 11.21L86.47 19.96L86.41 20.06L88.44 20.44L88.49 20.45ZM92.46 14.31L93.07 17.6L90.64 17.15L92.46 14.31Z" fill="#FAFAFA" fill-opacity="1.000000" fill-rule="nonzero"/>
		<path id="Контур 22" d="M105.23 25.09C105.52 25.09 105.8 25.04 106.07 24.95C106.42 24.83 106.74 24.64 107.01 24.38C107.28 24.11 107.49 23.8 107.64 23.45C107.77 23.13 107.85 22.79 107.86 22.44C107.88 22.11 107.82 21.79 107.7 21.49C107.63 21.29 107.52 21.1 107.38 20.94C107.23 20.79 107.08 20.65 106.91 20.53C107.03 20.51 107.14 20.49 107.25 20.45C107.38 20.41 107.5 20.36 107.62 20.29C107.8 20.15 107.96 19.99 108.1 19.81C108.26 19.61 108.39 19.39 108.49 19.15C108.64 18.8 108.72 18.41 108.71 18.02C108.71 17.66 108.62 17.3 108.45 16.99C108.27 16.68 108.02 16.42 107.74 16.21C107.36 15.94 106.94 15.71 106.5 15.54L104.28 14.6L100.59 23.37L100.56 23.44L103.57 24.71C104.09 24.94 104.66 25.07 105.23 25.09ZM105.48 16.89L105.92 17.08C106.28 17.19 106.58 17.45 106.76 17.79C106.81 17.92 106.83 18.07 106.82 18.22C106.81 18.36 106.77 18.51 106.7 18.64C106.65 18.79 106.57 18.93 106.46 19.04C106.35 19.16 106.21 19.25 106.06 19.31C105.7 19.39 105.33 19.34 105.01 19.17L104.59 19L105.48 16.89ZM103.99 20.43L104.56 20.67C104.83 20.77 105.08 20.9 105.32 21.05C105.47 21.15 105.6 21.28 105.71 21.43C105.82 21.59 105.9 21.77 105.91 21.97C105.93 22.16 105.89 22.36 105.8 22.53C105.48 23.29 104.8 23.43 103.7 22.97L103.04 22.69L103.99 20.43Z" fill="#FAFAFA" fill-opacity="1.000000" fill-rule="nonzero"/>
		<path id="Прямоугольник 14" d="M111.51 28.81L116.68 20.72L118.35 21.79L113.19 29.88L111.51 28.81Z" fill="#FAFAFA" fill-opacity="1.000000" fill-rule="evenodd"/>
		<path id="Контур 23" d="M120.04 35.48C120.38 35.8 120.77 36.05 121.2 36.23C121.57 36.37 121.96 36.45 122.36 36.45L122.43 36.45C122.84 36.44 123.24 36.34 123.61 36.17C124.01 35.98 124.37 35.71 124.66 35.37C124.93 35.1 125.14 34.78 125.27 34.41C125.39 34.05 125.43 33.67 125.39 33.29C125.37 33.15 125.35 33.01 125.32 32.87C125.28 32.72 125.23 32.58 125.17 32.44C125.11 32.29 125.04 32.13 124.94 31.93C124.85 31.75 124.74 31.54 124.62 31.3C124.41 30.94 124.26 30.55 124.16 30.15C124.14 30.04 124.15 29.93 124.18 29.82C124.21 29.72 124.27 29.62 124.34 29.54C124.43 29.44 124.55 29.37 124.67 29.32C124.8 29.27 124.93 29.26 125.06 29.27C125.39 29.3 125.69 29.44 125.93 29.66C126.13 29.84 126.29 30.06 126.39 30.31C126.49 30.59 126.53 30.9 126.52 31.2L126.52 31.29L128.24 30.97L128.23 30.9C128.13 29.86 127.64 28.9 126.86 28.21C126.56 27.93 126.21 27.71 125.83 27.56C125.47 27.42 125.1 27.35 124.72 27.36C124.35 27.36 123.98 27.44 123.65 27.6C123.3 27.76 122.98 27.99 122.73 28.28C122.53 28.5 122.36 28.74 122.25 29.01C122.14 29.26 122.08 29.54 122.09 29.81C122.09 30.12 122.15 30.43 122.25 30.72C122.38 31.1 122.54 31.46 122.72 31.82C122.9 32.16 123.05 32.45 123.15 32.65C123.22 32.8 123.27 32.95 123.31 33.1C123.36 33.27 123.37 33.45 123.32 33.63C123.28 33.8 123.19 33.96 123.07 34.08C122.96 34.21 122.83 34.32 122.67 34.39C122.52 34.46 122.35 34.5 122.18 34.5L122.18 34.5C121.81 34.49 121.46 34.35 121.2 34.09C120.91 33.83 120.7 33.49 120.59 33.11C120.49 32.71 120.5 32.29 120.61 31.89L120.63 31.79L118.82 31.85L118.81 31.91C118.7 32.58 118.75 33.27 118.95 33.92C119.18 34.52 119.55 35.06 120.04 35.48Z" fill="#FAFAFA" fill-opacity="1.000000" fill-rule="nonzero"/>
		<path id="Контур 24" d="M13.78 110.11L16.08 110.11L16.08 109.19L14.86 109.19L14.86 108.56L16.01 108.56L16.01 107.64L14.86 107.64L14.86 107.04L16.08 107.04L16.08 106.12L13.78 106.12L13.78 110.11Z" fill="#FAFAFA" fill-opacity="1.000000" fill-rule="nonzero"/>
		<path id="Контур 25" d="M19.42 107.66C19.3 107.62 19.21 107.59 19.14 107.57C19.09 107.56 19.04 107.54 18.98 107.52C18.95 107.51 18.92 107.49 18.89 107.47C18.87 107.45 18.84 107.43 18.82 107.41C18.79 107.39 18.77 107.37 18.75 107.34C18.74 107.31 18.73 107.28 18.73 107.24C18.73 107.2 18.74 107.16 18.76 107.12C18.78 107.08 18.81 107.05 18.85 107.02C18.93 106.96 19.04 106.93 19.14 106.93C19.38 106.94 19.61 107.03 19.79 107.19L19.82 107.21L20.26 106.36L20.23 106.34C20.04 106.24 19.83 106.16 19.61 106.11C19.4 106.05 19.19 106.02 18.98 106.02C18.79 106.02 18.6 106.05 18.42 106.12C18.26 106.19 18.11 106.28 17.99 106.4C17.86 106.52 17.77 106.67 17.71 106.83C17.64 107.01 17.61 107.19 17.61 107.38C17.6 107.53 17.62 107.68 17.68 107.82C17.73 107.96 17.82 108.08 17.93 108.18C18.01 108.25 18.1 108.31 18.2 108.35C18.31 108.39 18.46 108.44 18.69 108.51C18.86 108.55 19.02 108.62 19.17 108.71C19.21 108.73 19.24 108.77 19.26 108.81C19.28 108.85 19.29 108.89 19.29 108.94C19.29 108.99 19.28 109.04 19.25 109.08C19.23 109.13 19.2 109.16 19.16 109.19C19.06 109.26 18.94 109.3 18.82 109.29C18.67 109.29 18.52 109.26 18.39 109.2C18.22 109.12 18.07 109.02 17.94 108.9L17.91 108.88L17.45 109.73L17.44 109.75L17.46 109.77C17.67 109.91 17.9 110.02 18.13 110.1C18.36 110.17 18.6 110.21 18.84 110.21C19.06 110.21 19.28 110.18 19.49 110.12C19.67 110.06 19.85 109.96 20 109.83C20.14 109.7 20.25 109.54 20.32 109.36C20.39 109.18 20.42 108.98 20.41 108.79C20.43 108.53 20.34 108.28 20.18 108.07C19.97 107.87 19.71 107.72 19.42 107.66Z" fill="#FAFAFA" fill-opacity="1.000000" fill-rule="nonzero"/>
		<path id="Контур 26" d="M21.52 107.04L22.35 107.04L22.35 110.11L23.44 110.11L23.44 107.04L24.29 107.04L24.29 106.12L21.52 106.12L21.52 107.04Z" fill="#FAFAFA" fill-opacity="1.000000" fill-rule="nonzero"/>
		<path id="Контур 27" d="M28.49 106.71C28.31 106.53 28.09 106.38 27.86 106.28C27.62 106.17 27.37 106.12 27.11 106.12L25.57 106.12L25.57 110.11L27.11 110.11C27.37 110.11 27.62 110.06 27.86 109.95C28.09 109.84 28.31 109.7 28.49 109.52C28.67 109.33 28.81 109.11 28.91 108.88C29.02 108.63 29.07 108.37 29.07 108.11C29.07 107.85 29.02 107.59 28.91 107.35C28.81 107.11 28.67 106.89 28.49 106.71ZM27.87 108.52C27.83 108.65 27.76 108.77 27.67 108.87C27.58 108.97 27.46 109.06 27.33 109.11C27.18 109.17 27.02 109.19 26.86 109.19L26.65 109.19L26.65 107.04L26.86 107.04C27.02 107.03 27.18 107.06 27.33 107.11C27.46 107.17 27.58 107.25 27.67 107.36C27.76 107.46 27.83 107.58 27.87 107.7C27.92 107.83 27.95 107.97 27.95 108.11C27.95 108.25 27.92 108.39 27.87 108.52L27.87 108.52Z" fill="#FAFAFA" fill-opacity="1.000000" fill-rule="nonzero"/>
		<path id="Контур 28" d="M132.05 108.63C132.24 108.46 132.39 108.26 132.5 108.05C132.59 107.85 132.64 107.65 132.64 107.43C132.65 107.22 132.61 107.01 132.53 106.82C132.46 106.64 132.35 106.49 132.21 106.36C132.06 106.23 131.89 106.13 131.71 106.06C131.51 105.99 131.3 105.96 131.09 105.96C130.81 105.95 130.53 106.02 130.28 106.15C130.05 106.28 129.86 106.47 129.74 106.7C129.61 106.95 129.54 107.22 129.54 107.5L129.54 107.53L130.72 107.53L130.72 107.5C130.71 107.45 130.71 107.42 130.71 107.39C130.71 107.37 130.71 107.35 130.71 107.33C130.7 107.21 130.74 107.1 130.81 107C130.85 106.96 130.89 106.93 130.94 106.91C130.99 106.89 131.04 106.88 131.09 106.88C131.15 106.88 131.21 106.89 131.26 106.91C131.31 106.94 131.36 106.97 131.39 107.02C131.48 107.11 131.52 107.23 131.52 107.36C131.51 107.6 131.43 107.83 131.29 108.02C131.23 108.1 131.18 108.17 131.12 108.25C131.06 108.33 130.99 108.41 130.91 108.51C130.83 108.6 130.77 108.68 130.69 108.78C130.61 108.87 130.54 108.95 130.47 109.02L129.47 110.06L129.42 110.11L132.69 110.11L132.69 109.19L131.45 109.19L132.05 108.63Z" fill="#FAFAFA" fill-opacity="1.000000" fill-rule="nonzero"/>
		<path id="Контур 29" d="M136.47 106.59C136.33 106.39 136.14 106.24 135.93 106.13C135.71 106.02 135.48 105.97 135.24 105.97C135 105.97 134.76 106.02 134.54 106.13C134.33 106.24 134.14 106.39 134 106.59C133.68 107.02 133.52 107.54 133.54 108.08C133.54 108.38 133.57 108.68 133.65 108.97C133.72 109.21 133.84 109.44 134 109.64C134.22 109.92 134.53 110.13 134.88 110.21C135.23 110.3 135.6 110.26 135.92 110.1C136.14 109.99 136.33 109.83 136.47 109.64C136.63 109.44 136.75 109.21 136.82 108.97C136.97 108.41 136.97 107.81 136.82 107.25C136.75 107.01 136.63 106.78 136.47 106.59ZM135.81 108.6C135.79 108.73 135.75 108.86 135.68 108.98C135.64 109.07 135.57 109.15 135.49 109.22C135.41 109.27 135.33 109.3 135.24 109.3C135.15 109.3 135.06 109.27 134.99 109.21C134.9 109.15 134.84 109.07 134.79 108.97C134.73 108.85 134.68 108.73 134.66 108.6C134.63 108.43 134.61 108.27 134.61 108.11C134.61 107.95 134.63 107.78 134.66 107.63C134.68 107.5 134.73 107.37 134.79 107.26C134.84 107.16 134.91 107.08 134.99 107.02C135.06 106.96 135.15 106.94 135.24 106.94C135.33 106.94 135.41 106.97 135.49 107.02C135.57 107.08 135.64 107.16 135.68 107.26C135.75 107.37 135.79 107.5 135.81 107.63C135.88 107.95 135.88 108.28 135.81 108.6L135.81 108.6Z" fill="#FAFAFA" fill-opacity="1.000000" fill-rule="nonzero"/>
		<path id="Контур 30" d="M138.39 107.04L138.95 107.04L138.95 110.11L140.04 110.11L140.04 106.12L138.39 106.12L138.39 107.04Z" fill="#FAFAFA" fill-opacity="1.000000" fill-rule="nonzero"/>
		<path id="Контур 31" d="M144.68 108.25C144.62 108.19 144.56 108.14 144.49 108.1C144.42 108.07 144.34 108.03 144.27 108C144.34 107.97 144.39 107.94 144.43 107.92C144.48 107.89 144.53 107.85 144.58 107.81C144.67 107.73 144.75 107.63 144.8 107.51C144.85 107.39 144.87 107.27 144.87 107.14C144.87 106.98 144.84 106.83 144.77 106.69C144.7 106.54 144.61 106.42 144.49 106.32C144.36 106.21 144.21 106.14 144.05 106.09C143.87 106.03 143.68 106.01 143.49 106.01C143.31 106.01 143.12 106.03 142.93 106.09C142.78 106.13 142.63 106.21 142.51 106.32C142.39 106.42 142.29 106.55 142.22 106.69C142.15 106.83 142.12 106.98 142.12 107.13C142.11 107.32 142.16 107.5 142.27 107.66C142.37 107.82 142.52 107.94 142.69 108.01C142.61 108.04 142.55 108.07 142.5 108.09C142.43 108.13 142.37 108.17 142.32 108.22C142.21 108.32 142.12 108.44 142.06 108.58C141.99 108.71 141.96 108.86 141.96 109.02C141.96 109.16 141.99 109.31 142.05 109.44C142.11 109.58 142.2 109.7 142.31 109.79C142.46 109.93 142.64 110.03 142.84 110.1C143.05 110.17 143.27 110.21 143.5 110.21C143.7 110.21 143.91 110.18 144.11 110.12C144.28 110.06 144.44 109.98 144.59 109.87C144.72 109.77 144.83 109.64 144.91 109.49C144.99 109.35 145.03 109.18 145.02 109.02C145.02 108.87 144.99 108.73 144.93 108.59C144.88 108.46 144.79 108.34 144.68 108.25ZM143.21 106.86C143.24 106.83 143.29 106.8 143.34 106.78C143.38 106.75 143.44 106.74 143.49 106.75C143.54 106.74 143.6 106.75 143.65 106.77C143.7 106.8 143.74 106.83 143.78 106.86C143.82 106.9 143.85 106.95 143.87 107C143.89 107.04 143.9 107.1 143.9 107.15C143.9 107.2 143.89 107.26 143.87 107.31C143.85 107.36 143.82 107.4 143.78 107.44C143.74 107.48 143.7 107.51 143.65 107.53C143.6 107.55 143.55 107.56 143.5 107.56C143.44 107.56 143.39 107.55 143.34 107.53C143.29 107.51 143.24 107.48 143.21 107.44C143.17 107.4 143.14 107.36 143.12 107.31C143.1 107.26 143.09 107.2 143.09 107.15C143.09 107.1 143.1 107.04 143.12 107C143.14 106.95 143.17 106.9 143.21 106.86ZM143.81 109.2C143.77 109.24 143.72 109.27 143.66 109.3C143.61 109.32 143.55 109.33 143.5 109.33C143.44 109.33 143.38 109.32 143.33 109.3C143.27 109.28 143.22 109.24 143.18 109.2C143.14 109.16 143.11 109.11 143.08 109.06C143.06 109 143.05 108.94 143.05 108.88C143.05 108.83 143.06 108.77 143.08 108.72C143.11 108.67 143.14 108.62 143.18 108.58C143.22 108.54 143.27 108.51 143.32 108.48C143.38 108.46 143.43 108.45 143.49 108.45C143.55 108.45 143.61 108.46 143.66 108.48C143.72 108.5 143.77 108.54 143.81 108.58C143.85 108.62 143.88 108.67 143.91 108.72C143.93 108.77 143.94 108.83 143.94 108.89C143.94 108.95 143.93 109.01 143.9 109.06C143.88 109.11 143.85 109.16 143.81 109.2Z" fill="#FAFAFA" fill-opacity="1.000000" fill-rule="nonzero"/>
		<path id="Контур 32" d="M46.05 129.57C45.79 129.26 45.51 128.98 45.19 128.75C44.65 128.34 44.03 128.05 43.37 127.89C42.09 127.57 40.74 127.76 39.6 128.42C39.02 128.76 38.51 129.22 38.11 129.76C37.7 130.29 37.41 130.9 37.26 131.55C37.11 132.18 37.08 132.82 37.18 133.46C37.38 134.78 38.1 135.97 39.18 136.77C39.49 137 39.82 137.19 40.18 137.35C40.57 137.52 40.97 137.64 41.39 137.72L41.43 137.73L42.87 135.82L42.69 135.84C42.25 135.92 41.81 135.92 41.37 135.85C40.98 135.76 40.62 135.58 40.3 135.34C39.97 135.09 39.69 134.78 39.47 134.42C39.27 134.08 39.15 133.71 39.1 133.32C39.05 132.92 39.08 132.52 39.18 132.13C39.29 131.71 39.49 131.32 39.75 130.98C40.01 130.63 40.33 130.33 40.7 130.1C41.04 129.89 41.43 129.74 41.82 129.67C42.21 129.6 42.61 129.61 42.99 129.69C43.39 129.78 43.77 129.96 44.09 130.21C44.42 130.44 44.69 130.75 44.88 131.1C45.08 131.51 45.21 131.95 45.27 132.4L45.29 132.58L46.73 130.66L46.71 130.62C46.52 130.25 46.3 129.89 46.05 129.57Z" fill="#FAFAFA" fill-opacity="1.000000" fill-rule="nonzero"/>
		<path id="Контур 33" d="M57 135.75C56.53 135.25 55.96 134.85 55.33 134.57C54.71 134.29 54.03 134.13 53.35 134.1C52.69 134.08 52.04 134.18 51.42 134.39C50.81 134.61 50.25 134.94 49.77 135.37C49.28 135.81 48.88 136.36 48.61 136.96C48.32 137.59 48.16 138.26 48.14 138.95C48.12 139.6 48.22 140.25 48.45 140.86C48.68 141.46 49.03 142.02 49.48 142.49C49.95 142.99 50.52 143.39 51.15 143.67C51.78 143.96 52.46 144.13 53.16 144.16C53.24 144.17 53.32 144.17 53.4 144.17C54.35 144.17 55.29 143.9 56.09 143.38C56.9 142.86 57.53 142.12 57.92 141.24C58.19 140.64 58.35 139.99 58.37 139.32C58.39 138.66 58.27 138 58.03 137.38C57.79 136.78 57.44 136.22 57 135.75ZM56.06 140.39C55.89 140.78 55.64 141.13 55.33 141.42C55.03 141.7 54.69 141.92 54.31 142.08C53.94 142.23 53.55 142.3 53.15 142.3L53.14 142.3C52.73 142.3 52.32 142.21 51.95 142.04C51.57 141.87 51.23 141.62 50.95 141.32C50.68 141.02 50.48 140.67 50.34 140.28C50.07 139.48 50.11 138.6 50.46 137.83C50.63 137.45 50.88 137.1 51.19 136.82C51.78 136.27 52.56 135.96 53.37 135.97L53.38 135.97C53.79 135.97 54.19 136.06 54.56 136.22C54.94 136.39 55.28 136.64 55.56 136.95C55.82 137.25 56.03 137.59 56.17 137.97C56.3 138.35 56.36 138.75 56.35 139.16C56.34 139.58 56.24 140 56.06 140.39Z" fill="#FAFAFA" fill-opacity="1.000000" fill-rule="nonzero"/>
		<path id="Контур 34" d="M68.38 144.94L66.99 138.53L65.64 138.28L62.16 147.47L62.12 147.55L64.1 147.92L66.02 142.55L67.35 148.6L67.36 148.65L67.96 148.75L71.46 143.55L71.25 149.23L73.23 149.59L73.42 139.77L73.42 139.7L72.06 139.45L68.38 144.94Z" fill="#FAFAFA" fill-opacity="1.000000" fill-rule="nonzero"/>
		<path id="Контур 35" d="M85.1 140.68C84.8 140.43 84.44 140.24 84.05 140.14C83.55 140.04 83.04 140 82.54 140.04L79.71 140.15L80.09 149.66L80.09 149.74L82.08 149.66L81.94 146.16L83.05 146.12C83.54 146.11 84.03 146.02 84.49 145.85C84.87 145.7 85.22 145.46 85.49 145.16C85.73 144.87 85.92 144.53 86.03 144.17C86.15 143.78 86.2 143.38 86.19 142.97C86.17 142.52 86.06 142.08 85.87 141.68C85.69 141.29 85.43 140.95 85.1 140.68ZM82.54 144.38L81.87 144.4L81.76 141.84L82.33 141.81C82.6 141.8 82.87 141.81 83.14 141.85C83.32 141.88 83.49 141.94 83.65 142.04C83.8 142.14 83.92 142.29 84 142.45C84.09 142.64 84.14 142.84 84.14 143.04C84.18 143.89 83.65 144.33 82.54 144.38Z" fill="#FAFAFA" fill-opacity="1.000000" fill-rule="nonzero"/>
		<path id="Контур 36" d="M94.33 138.17L92.92 138.49L92.88 138.5L91.05 148.98L93.11 148.5L93.48 146.36L97.15 145.51L98.36 147.23L98.39 147.27L100.46 146.79L94.35 138.21L94.33 138.17ZM93.75 144.61L94.27 141.28L96.16 144.05L93.75 144.61Z" fill="#FAFAFA" fill-opacity="1.000000" fill-rule="nonzero"/>
		<path id="Контур 37" d="M108.49 132.96L111.22 138.56L103.36 135.25L103.32 135.24L102.08 135.84L106.37 144.66L108.16 143.78L105.42 138.15L113.28 141.47L113.31 141.48L114.55 140.88L110.28 132.09L108.49 132.96Z" fill="#FAFAFA" fill-opacity="1.000000" fill-rule="nonzero"/>
		<path id="Контур 38" d="M120.56 124.54L118.72 125.98L118.69 126.01L119.13 129.76L115.62 128.47L115.58 128.45L113.73 129.91L119.56 131.95L122.22 135.34L122.26 135.4L123.83 134.17L121.12 130.72L120.56 124.54Z" fill="#FAFAFA" fill-opacity="1.000000" fill-rule="nonzero"/>
	</g>
</svg>
