<svg width="112" height="112" viewBox="0 0 112 112" fill="none" xmlns="http://www.w3.org/2000/svg">
<path d="M94.5748 50.3245C94.7229 49.7407 94.7375 49.131 94.6176 48.5408C94.4978 47.9505 94.2465 47.3948 93.8824 46.915C93.5184 46.4352 93.0509 46.0435 92.5148 45.7691C91.9786 45.4947 91.3875 45.3447 90.7854 45.33C90.704 45.3283 90.6215 45.3274 90.5404 45.3274C85.8515 45.3274 81.5727 48.3072 78.1471 51.8444C78.2267 50.9676 78.2818 50.0756 78.3046 49.1783C78.4628 42.9876 77.0396 38.2775 74.0744 35.1767C73.7042 34.7897 73.2594 34.4817 72.7669 34.2713C72.2744 34.0609 71.7444 33.9524 71.2088 33.9524C70.6732 33.9524 70.1432 34.0609 69.6507 34.2713C69.1582 34.4817 68.7134 34.7897 68.3432 35.1767C65.378 38.2775 63.9548 42.9883 64.113 49.1783C64.1359 50.0751 64.1908 50.9679 64.2705 51.8448C60.8451 48.3079 56.567 45.3276 51.8778 45.3274C51.7958 45.3274 51.7142 45.3274 51.6322 45.33C51.0301 45.3447 50.439 45.4947 49.9028 45.7691C49.3666 46.0435 48.8992 46.4352 48.5351 46.915C48.1711 47.3948 47.9198 47.9505 47.7999 48.5408C47.6801 49.131 47.6947 49.7407 47.8428 50.3245C49.0737 55.1399 52.9834 59.2276 57.0242 62.3175C53.5749 62.8228 50.9556 64.1648 49.2148 66.3254C48.8432 66.7847 48.5774 67.3202 48.4363 67.8938C48.2952 68.4674 48.2821 69.0651 48.3982 69.6443C48.5121 70.218 48.7509 70.7595 49.0978 71.2304C49.4447 71.7013 49.8911 72.09 50.4052 72.3688C52.2047 73.3475 54.435 73.8437 57.0333 73.8437C58.3679 73.8358 59.6998 73.7236 61.0168 73.5081C60.825 74.465 60.8164 75.4495 60.9916 76.4096C61.1552 77.3366 61.6359 78.1779 62.3514 78.7896C63.0668 79.4014 63.9727 79.7454 64.9138 79.763H64.9794C67.7589 79.763 69.7449 77.7236 71.1891 75.8036C72.6584 77.7435 74.6637 79.763 77.4373 79.763C77.4635 79.763 77.4893 79.763 77.5156 79.763C78.4417 79.7463 79.3339 79.412 80.043 78.816C80.7521 78.22 81.235 77.3986 81.4108 76.4892C81.6011 75.5044 81.5978 74.492 81.4012 73.5085C82.718 73.7239 84.0497 73.836 85.384 73.8439C87.983 73.8439 90.2133 73.3477 92.0121 72.369C92.5278 72.0872 92.9752 71.6953 93.3226 71.2213C93.6701 70.7473 93.909 70.2027 94.0226 69.6261C94.1362 69.0495 94.1216 68.4549 93.9798 67.8846C93.8381 67.3142 93.5726 66.782 93.2024 66.3256C91.4611 64.1651 88.8422 62.823 85.393 62.3177C89.4335 59.2287 93.3439 55.1399 94.5748 50.3245ZM77.0663 64.5474C77.0062 64.5799 76.9586 64.6314 76.9308 64.6938C76.9031 64.7562 76.8967 64.826 76.9128 64.8924C76.9288 64.9588 76.9664 65.018 77.0196 65.0608C77.0728 65.1036 77.1386 65.1276 77.2069 65.1291C77.2257 65.1291 77.2444 65.1274 77.2629 65.1243C78.8464 64.8608 80.4483 64.7237 82.0535 64.7141C85.3823 64.7141 89.0815 65.3951 91.1588 67.9735C91.2877 68.1304 91.3805 68.3138 91.4306 68.5106C91.4807 68.7075 91.4868 68.9129 91.4486 69.1124C91.4104 69.3119 91.3287 69.5005 91.2094 69.6648C91.0901 69.8292 90.9361 69.9653 90.7583 70.0634C89.1999 70.9109 87.3105 71.2193 85.3833 71.2193C82.1367 71.2193 78.7848 70.343 76.7401 69.6909C76.7079 69.6805 76.6744 69.6751 76.6406 69.6749C76.5783 69.6766 76.518 69.697 76.4674 69.7334C76.4169 69.7699 76.3785 69.8207 76.3573 69.8792C76.336 69.9378 76.3329 70.0014 76.3483 70.0618C76.3637 70.1221 76.397 70.1764 76.4437 70.2176C77.77 71.4037 79.3268 73.404 78.8313 75.9975C78.7725 76.315 78.6053 76.6023 78.3584 76.8103C78.1114 77.0184 77.8 77.1345 77.4771 77.1387H77.4368C75.1548 77.1387 73.3619 74.3824 72.0492 72.4762C71.9659 72.3211 71.8423 72.1913 71.6913 72.1006C71.5404 72.0099 71.3677 71.9617 71.1916 71.961C71.0155 71.9603 70.8425 72.0072 70.6908 72.0968C70.5392 72.1863 70.4145 72.3152 70.3301 72.4697C69.006 74.3765 67.2641 77.1387 64.979 77.1387H64.9462C64.6148 77.1287 64.297 77.0042 64.0471 76.7863C63.7972 76.5684 63.6305 76.2706 63.5755 75.9436C63.112 73.3773 64.655 71.3971 65.9717 70.2192C66.0184 70.1779 66.0516 70.1235 66.067 70.0631C66.0824 70.0027 66.0793 69.9391 66.0581 69.8804C66.0368 69.8218 65.9985 69.771 65.948 69.7344C65.8975 69.6979 65.8371 69.6774 65.7748 69.6756C65.7409 69.6757 65.7073 69.6811 65.6751 69.6916C63.63 70.3436 60.28 71.2193 57.0344 71.2193C55.1077 71.2193 53.2173 70.9106 51.6593 70.0634C51.4815 69.9653 51.3275 69.8292 51.2082 69.6648C51.089 69.5004 51.0073 69.3118 50.9691 69.1124C50.9309 68.9129 50.937 68.7075 50.9871 68.5107C51.0371 68.3138 51.1299 68.1304 51.2588 67.9735C53.3369 65.3955 57.0353 64.7141 60.364 64.7141C61.9693 64.7238 63.5712 64.8609 65.1547 65.1243C65.1732 65.1274 65.192 65.1291 65.2109 65.1291C65.2791 65.1276 65.345 65.1035 65.3981 65.0607C65.4513 65.0178 65.4888 64.9586 65.5048 64.8923C65.5209 64.8259 65.5145 64.7561 65.4867 64.6937C65.459 64.6314 65.4114 64.5799 65.3513 64.5474C61.2624 62.3356 52.1887 56.7267 50.386 49.6744C50.3358 49.4734 50.3313 49.2637 50.3729 49.0608C50.4144 48.8578 50.501 48.6668 50.6262 48.5017C50.7514 48.3367 50.9121 48.2018 51.0963 48.1071C51.2806 48.0124 51.4837 47.9602 51.6908 47.9544C51.7532 47.9531 51.8153 47.9524 51.8778 47.9524C58.917 47.9524 65.3662 56.777 68.0048 60.9175C68.031 60.9616 68.0684 60.9982 68.113 61.0236C68.1577 61.049 68.2082 61.0623 68.2596 61.0623C68.3078 61.0634 68.3556 61.0532 68.3992 61.0325C68.4427 61.0118 68.4808 60.9811 68.5104 60.9431C68.54 60.905 68.5602 60.8605 68.5695 60.8131C68.5788 60.7658 68.5769 60.717 68.5639 60.6705C67.1497 55.4662 64.5481 42.9435 70.2404 36.9911C70.3655 36.8602 70.5159 36.756 70.6825 36.6848C70.849 36.6137 71.0282 36.577 71.2093 36.577C71.3904 36.577 71.5697 36.6137 71.7362 36.6848C71.9027 36.756 72.0531 36.8602 72.1783 36.9911C77.8706 42.9435 75.269 55.4662 73.8548 60.6705C73.8417 60.717 73.8398 60.7658 73.849 60.8131C73.8583 60.8605 73.8785 60.905 73.9081 60.9431C73.9376 60.9812 73.9757 61.0118 74.0193 61.0325C74.0628 61.0532 74.1106 61.0634 74.1589 61.0623C74.2102 61.0623 74.2607 61.049 74.3054 61.0236C74.3501 60.9982 74.3874 60.9616 74.4137 60.9175C77.0525 56.7768 83.501 47.9515 90.5408 47.9524C90.6027 47.9524 90.6657 47.9524 90.7278 47.9544C90.9349 47.9602 91.138 48.0124 91.3223 48.1071C91.5065 48.2019 91.6671 48.3367 91.7923 48.5018C91.9175 48.6668 92.004 48.8579 92.0456 49.0608C92.0872 49.2637 92.0827 49.4734 92.0325 49.6744C90.2289 56.7267 81.1556 62.3356 77.0663 64.5474Z" fill="#DFB21E"/>
<path d="M73.742 83.8878C73.4637 83.8879 73.1926 83.7992 72.9681 83.6347C69.6678 81.221 69.5512 76.5106 69.7757 73.9176C69.8082 73.5728 69.9757 73.2548 70.2416 73.033C70.5076 72.8112 70.8504 72.7034 71.1954 72.7333C71.5405 72.7631 71.8597 72.9281 72.0836 73.1923C72.3075 73.4565 72.418 73.7985 72.3908 74.1438C72.2484 75.7885 72.1721 79.7995 74.5177 81.5156C74.7412 81.6791 74.9073 81.909 74.9922 82.1726C75.0771 82.4362 75.0765 82.7198 74.9904 82.983C74.9043 83.2462 74.7372 83.4754 74.513 83.6379C74.2888 83.8003 74.0189 83.8877 73.742 83.8875V83.8878Z" fill="#DFB21E"/>
<path d="M28.0009 96.6875C27.786 96.6875 27.5744 96.6345 27.3849 96.5331C18.1948 91.6377 16.7248 81.8368 16.5194 77.8503C16.0134 68.0361 13.5114 65.5955 10.3445 62.5056C7.49007 59.7205 4.25498 56.564 1.86557 47.966C0.279636 42.259 0.696136 31.8809 5.60226 27.2385C7.9326 25.0342 11.6695 23.9116 14.6929 24.5083C17.5366 25.0701 21.5277 27.6566 23.3239 31.3438C24.7433 34.2574 24.6475 37.4666 23.0467 40.6247C21.676 43.3287 21.2529 45.1513 21.7889 46.0421C22.2684 46.8385 23.7439 47.2817 26.0545 47.3231C29.0936 47.3778 32.2762 48.8504 34.1627 51.0746C34.9265 51.9578 35.4875 52.9977 35.8062 54.121C36.1248 55.2443 36.1933 56.4239 36.007 57.5765C35.4789 61.164 33.5047 62.8528 31.5957 64.4866C30.263 65.6274 28.8847 66.8071 27.8459 68.7575C25.7402 72.711 23.0408 84.2197 28.8576 89.2408C28.9881 89.3535 29.0951 89.4907 29.1725 89.6447C29.2499 89.7987 29.2963 89.9664 29.3089 90.1383C29.3215 90.3102 29.3002 90.483 29.246 90.6466C29.1919 90.8102 29.1061 90.9616 28.9934 91.0921C28.8808 91.2226 28.7435 91.3296 28.5896 91.4071C28.4356 91.4845 28.2678 91.5308 28.0959 91.5434C27.924 91.5561 27.7513 91.5347 27.5876 91.4806C27.424 91.4264 27.2726 91.3406 27.1421 91.228C20.3335 85.3504 22.7792 72.6867 25.5289 67.5235C26.8011 65.1352 28.4415 63.7313 29.8888 62.4923C31.6412 60.9925 33.0252 59.808 33.4106 57.1942C33.5432 56.4106 33.4999 55.6074 33.2839 54.8427C33.068 54.0779 32.6847 53.3708 32.1618 52.7724C30.547 50.8692 27.9078 49.9816 26.0088 49.9476C22.6532 49.8873 20.5372 49.0525 19.5397 47.3955C18.1598 45.1025 19.4378 41.9381 20.7052 39.4376C21.9374 37.0066 22.0247 34.6701 20.964 32.4931C19.4673 29.4208 16.0336 27.4485 14.184 27.0835C11.9806 26.6475 9.12939 27.515 7.40651 29.1452C3.45917 32.8801 2.99214 42.2146 4.39498 47.2629C6.59473 55.1791 9.43279 57.9484 12.1777 60.6266C15.4709 63.8398 18.5811 66.8747 19.1398 77.7153C19.3223 81.2558 20.6111 89.9511 28.618 94.2165C28.8765 94.3541 29.0815 94.5742 29.2005 94.8418C29.3194 95.1093 29.3455 95.409 29.2746 95.693C29.2036 95.9771 29.0397 96.2293 28.8089 96.4095C28.5782 96.5897 28.2937 96.6876 28.0009 96.6875Z" fill="#DFB21E"/>
<path d="M35.1382 42.7079C32.8033 42.7079 30.7107 41.1948 29.5929 39.2827C27.9945 36.5483 28.4943 33.5136 30.8371 31.7319C33.8736 29.4219 37.2778 30.5344 39.1553 32.5456C40.995 34.5166 41.8503 37.9225 39.3811 40.7435C38.8236 41.386 38.1309 41.8972 37.3526 42.2404C36.6544 42.5467 35.9006 42.7058 35.1382 42.7079ZM34.5132 33.0778C33.7538 33.0865 33.0189 33.3482 32.425 33.8216C30.9014 34.981 31.1333 36.7185 31.8583 37.9586C32.7385 39.4647 34.5504 40.591 36.3107 39.8313C36.7309 39.6431 37.1044 39.3645 37.4044 39.0154C38.9035 37.3026 38.2499 35.425 37.2349 34.3376C36.8906 33.954 36.4718 33.6445 36.0041 33.4279C35.5363 33.2113 35.0294 33.0922 34.5141 33.0778H34.5132Z" fill="#DFB21E"/>
<path d="M106.815 88.4422L34.6458 87.6479C33.9372 87.6389 33.2337 87.7702 32.5761 88.0342C31.9184 88.2982 31.3195 88.6898 30.8138 89.1862C30.308 89.6827 29.9056 90.2744 29.6295 90.9271C29.3534 91.5798 29.2092 92.2807 29.2052 92.9893C29.2011 93.698 29.3373 94.4005 29.6059 95.0563C29.8746 95.7121 30.2703 96.3083 30.7703 96.8105C31.2703 97.3127 31.8647 97.7111 32.5194 97.9826C33.174 98.2541 33.8758 98.3934 34.5845 98.3925H34.6458L106.815 97.598C108.02 97.5835 109.17 97.0949 110.017 96.2379C110.864 95.381 111.339 94.2248 111.339 93.0201C111.339 91.8153 110.864 90.6592 110.017 89.8022C109.17 88.9453 108.02 88.4566 106.815 88.4422ZM92.669 95.1285L82.769 95.2379C81.8836 93.562 80.7189 92.0495 79.3248 90.7653L88.7107 90.8685C90.3218 91.9867 91.6723 93.4398 92.6694 95.1285H92.669ZM69.2019 95.3868C68.0111 93.6398 66.6223 92.0361 65.0634 90.6078L74.5698 90.7124C76.338 91.3135 78.4621 93.3476 79.752 95.2707L69.2019 95.3868ZM55.0689 95.5424C54.1053 94.133 52.067 92.0938 50.006 90.4422L60.3382 90.5557C62.3649 91.4478 64.387 93.4128 65.9706 95.4225L55.0689 95.5424ZM38.4962 90.5032C38.4894 90.4376 38.4813 90.3785 38.4743 90.3151L45.1788 90.3891C46.996 91.1297 49.9646 93.7066 51.7194 95.5793L38.4509 95.7252C38.4947 95.3925 38.5325 95.0143 38.5603 94.5779C38.6438 93.2201 38.6225 91.8578 38.4967 90.5032H38.4962ZM34.6167 95.7675H34.5854C33.861 95.761 33.1685 95.4687 32.6585 94.9542C32.1485 94.4396 31.8624 93.7445 31.8624 93.0201C31.8624 92.2956 32.1485 91.6005 32.6585 91.086C33.1685 90.5714 33.861 90.2791 34.5854 90.2727H34.6165L35.8358 90.2862C36.0399 91.6167 36.0508 94.4523 35.8045 95.755L34.6167 95.7675ZM106.786 94.9732L95.6311 95.0959C94.8955 93.5625 93.9283 92.1515 92.7633 90.9125L106.787 91.0656C107.301 91.0711 107.793 91.2793 108.155 91.6449C108.517 92.0106 108.719 92.5043 108.719 93.0188C108.719 93.5332 108.517 94.0269 108.155 94.3926C107.793 94.7582 107.301 94.9664 106.787 94.9719L106.786 94.9732Z" fill="#DFB21E"/>
</svg>
