<svg width="21" height="24" viewBox="0 0 21 24" fill="none" xmlns="http://www.w3.org/2000/svg">
<path d="M19.667 10C19.667 17 10.667 23 10.667 23C10.667 23 1.66699 17 1.66699 10C1.66699 7.61305 2.6152 5.32387 4.30303 3.63604C5.99086 1.94821 8.28004 1 10.667 1C13.0539 1 15.3431 1.94821 17.031 3.63604C18.7188 5.32387 19.667 7.61305 19.667 10Z" stroke="#0A140A" stroke-width="2" stroke-linecap="round" stroke-linejoin="round"/>
<path d="M10.667 13C12.3238 13 13.667 11.6569 13.667 10C13.667 8.34315 12.3238 7 10.667 7C9.01014 7 7.66699 8.34315 7.66699 10C7.66699 11.6569 9.01014 13 10.667 13Z" stroke="#0A140A" stroke-width="2" stroke-linecap="round" stroke-linejoin="round"/>
</svg>
