<svg width="112" height="112" viewBox="0 0 112 112" fill="none" xmlns="http://www.w3.org/2000/svg">
<path d="M77.7378 100.65H77.7352C77.3936 100.649 77.0657 100.515 76.8213 100.277C76.5769 100.038 76.4352 99.7133 76.4262 99.3718C76.4173 99.0303 76.5418 98.6988 76.7734 98.4477C77.005 98.1966 77.3254 98.0456 77.6665 98.0269C77.7131 98.0243 77.7599 98.0243 77.8065 98.0269C78.1476 98.0456 78.468 98.1966 78.6995 98.4477C78.9311 98.6988 79.0557 99.0303 79.0467 99.3718C79.0378 99.7133 78.8961 100.038 78.6517 100.277C78.4072 100.515 78.0794 100.649 77.7378 100.65Z" fill="#DFB21E"/>
<path d="M77.7356 100.65C76.6247 100.647 75.5254 100.423 74.502 99.9908C73.4787 99.5583 72.5519 98.9262 71.7758 98.1312C71.0323 97.3765 70.4492 96.4792 70.0615 95.4932C69.6738 94.5073 69.4895 93.4531 69.5198 92.3941C69.6165 89.0061 72.6709 84.392 75.2161 81.1182C75.5134 80.7333 75.8952 80.422 76.3321 80.2082C76.7689 79.9945 77.2491 79.8841 77.7354 79.8855C78.2218 79.884 78.7019 79.9944 79.1388 80.2081C79.5757 80.4219 79.9575 80.7332 80.2548 81.1182C82.7999 84.392 85.8547 89.0061 85.951 92.3941C85.9812 93.4531 85.797 94.5072 85.4093 95.4932C85.0216 96.4791 84.4385 97.3765 83.695 98.1312C82.919 98.9261 81.9922 99.5583 80.969 99.9907C79.9457 100.423 78.8465 100.647 77.7356 100.65ZM77.7356 82.5112C77.6492 82.5105 77.5639 82.5299 77.4863 82.5679C77.4087 82.6058 77.341 82.6613 77.2885 82.7299C74.0777 86.8599 72.2026 90.41 72.1437 92.4698C72.1248 93.1778 72.2492 93.8823 72.5096 94.541C72.7699 95.1997 73.1607 95.7989 73.6586 96.3027C74.1886 96.8476 74.8225 97.2808 75.5227 97.5765C76.223 97.8723 76.9755 98.0247 77.7356 98.0247C78.4958 98.0247 79.2483 97.8723 79.9485 97.5765C80.6488 97.2808 81.2827 96.8476 81.8127 96.3027C82.3105 95.7989 82.7014 95.1997 82.9617 94.541C83.2221 93.8823 83.3466 93.1778 83.3278 92.4698C83.2687 90.41 81.3936 86.8599 78.1825 82.7299C78.1302 82.6613 78.0625 82.6058 77.985 82.5678C77.9075 82.5298 77.8222 82.5105 77.7358 82.5112H77.7356Z" fill="#DFB21E"/>
<path d="M45.1627 73.0942C45.4704 72.4084 45.5825 71.651 45.4866 70.9055C45.3908 70.16 45.0907 69.4555 44.6195 68.8699C44.1483 68.2842 43.5244 67.8403 42.8167 67.5871C42.109 67.3338 41.3451 67.2812 40.6094 67.4349C39.0368 67.7611 37.462 68.5505 35.899 69.7913C35.8616 66.8163 35.199 64.3834 33.9154 62.5227C33.5588 61.955 33.064 61.4872 32.4772 61.1629C31.8905 60.8386 31.2311 60.6685 30.5608 60.6685C29.8904 60.6685 29.231 60.8386 28.6443 61.1629C28.0576 61.4872 27.5628 61.955 27.2061 62.5227C25.9223 64.3834 25.2593 66.8174 25.2223 69.7915C23.6595 68.5501 22.0848 67.7613 20.5122 67.4351C20.2379 67.3781 19.9586 67.3492 19.6785 67.349C18.9997 67.3532 18.3326 67.5263 17.7373 67.8526C17.1419 68.1788 16.6371 68.648 16.2683 69.2179C15.8994 69.7878 15.6781 70.4405 15.6242 71.1172C15.5704 71.7939 15.6857 72.4734 15.9598 73.0944C16.7112 74.8007 17.981 76.4619 19.7511 78.062C19.1677 78.2707 18.6099 78.5453 18.0886 78.8804C17.4216 79.3121 16.8951 79.9292 16.5739 80.6559C16.2526 81.3826 16.1504 82.1873 16.28 82.9712C16.4095 83.7552 16.7651 84.4842 17.3031 85.0689C17.8411 85.6536 18.5381 86.0685 19.3086 86.2627C20.187 86.4783 21.0889 86.5836 21.9933 86.5762C22.5067 86.5751 23.0198 86.5481 23.5305 86.4953C23.636 86.9415 23.8174 87.3663 24.0666 87.7511C24.446 88.332 24.9634 88.8098 25.5726 89.1419C26.1817 89.474 26.8637 89.65 27.5574 89.6542C28.1141 89.6532 28.6647 89.5383 29.1753 89.3166C29.6859 89.0948 30.1457 88.771 30.5265 88.3649L30.553 88.3369C30.6788 88.4682 30.8109 88.5983 30.9492 88.7243C31.6937 89.4084 32.6672 89.7893 33.6783 89.792C34.3274 89.7903 34.967 89.6354 35.545 89.3399C36.123 89.0445 36.6232 88.6168 37.0048 88.0917C37.3493 87.6198 37.5861 87.078 37.6985 86.5047C38.1914 86.5516 38.668 86.5751 39.1282 86.5751C40.0327 86.5825 40.9345 86.4772 41.8129 86.2616C42.5835 86.0675 43.2805 85.6526 43.8186 85.0679C44.3566 84.4832 44.7122 83.7541 44.8417 82.9701C44.9713 82.1862 44.8691 81.3814 44.5477 80.6547C44.2264 79.928 43.6998 79.3109 43.0327 78.8793C42.5114 78.5442 41.9537 78.2696 41.3702 78.0609C43.1416 76.4614 44.411 74.7996 45.1627 73.0942ZM36.8502 80.022H36.8655C36.9483 80.0204 37.0317 80.0197 37.1157 80.0198C38.6618 80.0198 40.3403 80.2629 41.6045 81.0827C41.8434 81.2368 42.032 81.4575 42.1469 81.7176C42.2619 81.9776 42.2981 82.2657 42.2512 82.5461C42.2042 82.8265 42.0762 83.087 41.8829 83.2955C41.6895 83.504 41.4394 83.6512 41.1633 83.7191C40.4974 83.8804 39.814 83.9583 39.1289 83.951C37.9773 83.9343 36.831 83.7906 35.7109 83.5225C35.6497 83.5081 35.587 83.5008 35.5241 83.5006C35.3858 83.5 35.2497 83.5352 35.1289 83.6028C35.0082 83.6703 34.907 83.7678 34.8351 83.886C34.7631 84.0041 34.7229 84.1389 34.7184 84.2771C34.7138 84.4153 34.745 84.5524 34.809 84.675C34.9149 84.868 35.0028 85.0704 35.0715 85.2795C35.1416 85.4975 35.159 85.7291 35.122 85.9552C35.0851 86.1813 34.9949 86.3954 34.859 86.5797C34.7231 86.7641 34.5453 86.9136 34.3403 87.0158C34.1352 87.118 33.9089 87.17 33.6798 87.1675C33.322 87.1662 32.978 87.0291 32.7173 86.784C32.2878 86.3722 31.9021 85.917 31.5663 85.4258C31.463 85.2468 31.3144 85.0983 31.1354 84.9951C30.9564 84.8919 30.7534 84.8377 30.5468 84.838C30.3402 84.8384 30.1373 84.8932 29.9587 84.997C29.78 85.1007 29.6319 85.2498 29.5293 85.4291C29.2564 85.8243 28.9556 86.1995 28.6293 86.5519C28.4933 86.7012 28.3279 86.8208 28.1434 86.903C27.9589 86.9852 27.7594 87.0283 27.5574 87.0297C27.3073 87.0333 27.0603 86.9737 26.8395 86.8563C26.6186 86.7389 26.431 86.5676 26.2941 86.3582C26.1572 86.1489 26.0754 85.9083 26.0564 85.6589C26.0374 85.4095 26.0818 85.1593 26.1854 84.9316C26.2248 84.8441 26.2672 84.7588 26.3125 84.6755C26.3766 84.5528 26.4078 84.4156 26.4033 84.2773C26.3987 84.139 26.3585 84.0042 26.2865 83.886C26.2145 83.7678 26.1132 83.6702 25.9924 83.6027C25.8716 83.5352 25.7354 83.5 25.597 83.5006C25.5342 83.5009 25.4716 83.5082 25.4104 83.5225C24.2905 83.7905 23.1445 83.9343 21.9931 83.951C21.308 83.9583 20.6246 83.8804 19.9587 83.7191C19.6826 83.6512 19.4325 83.504 19.2391 83.2955C19.0458 83.087 18.9177 82.8265 18.8708 82.5461C18.8239 82.2657 18.8601 81.9776 18.975 81.7176C19.09 81.4575 19.2785 81.2368 19.5175 81.0827C20.7817 80.2629 22.4601 80.0198 24.0063 80.0198C24.09 80.0198 24.1738 80.0198 24.2567 80.022H24.2718C24.4448 80.0202 24.6125 79.9628 24.7503 79.8583C24.8882 79.7539 24.9888 79.6079 25.0373 79.4418C25.0858 79.2758 25.0796 79.0986 25.0197 78.9364C24.9598 78.7742 24.8493 78.6355 24.7045 78.5409C22.3809 77.0256 19.5549 74.7436 18.3608 72.0357C18.2628 71.8141 18.2212 71.5717 18.2396 71.3302C18.2581 71.0887 18.336 70.8554 18.4664 70.6513C18.5969 70.4472 18.7758 70.2785 18.9872 70.1603C19.1987 70.042 19.4361 69.978 19.6783 69.9737C19.7793 69.974 19.88 69.9845 19.9788 70.005C22.6592 70.5613 25.1232 73.0205 26.8561 75.2261C26.9293 75.3235 27.0241 75.4026 27.1331 75.4572C27.242 75.5117 27.3621 75.5402 27.4839 75.5405C27.6034 75.5422 27.7218 75.5173 27.8305 75.4676C27.9392 75.4179 28.0355 75.3447 28.1124 75.2532C28.1893 75.1617 28.2449 75.0543 28.2753 74.9387C28.3056 74.8231 28.3098 74.7022 28.2876 74.5848C27.6933 71.267 27.4264 66.8255 29.3667 64.0132C29.4814 63.7959 29.6531 63.614 29.8635 63.4872C30.0739 63.3603 30.315 63.2932 30.5607 63.2932C30.8064 63.2932 31.0474 63.3603 31.2578 63.4872C31.4682 63.614 31.64 63.7959 31.7546 64.0132C33.6949 66.8255 33.4283 71.267 32.8339 74.5848C32.8117 74.7022 32.8159 74.8231 32.8462 74.9387C32.8765 75.0543 32.9321 75.1617 33.009 75.2532C33.0859 75.3447 33.1821 75.4179 33.2908 75.4676C33.3995 75.5173 33.5179 75.5422 33.6374 75.5405C33.7592 75.5402 33.8793 75.5117 33.9883 75.4572C34.0972 75.4026 34.192 75.3235 34.2652 75.2261C35.9983 73.0205 38.4621 70.5613 41.1425 70.005C41.4061 69.9492 41.6801 69.9679 41.9338 70.0589C42.1875 70.15 42.4108 70.3098 42.5788 70.5206C42.7468 70.7313 42.8528 70.9846 42.8851 71.2522C42.9173 71.5198 42.8744 71.7911 42.7612 72.0357C41.5679 74.7436 38.7419 77.0256 36.4175 78.5409C36.2727 78.6355 36.1622 78.7742 36.1023 78.9364C36.0424 79.0986 36.0362 79.2758 36.0847 79.4418C36.1332 79.6079 36.2338 79.7539 36.3716 79.8583C36.5095 79.9628 36.6772 80.0202 36.8502 80.022Z" fill="#DFB21E"/>
<path d="M30.5615 92.6626C30.2134 92.6626 29.8796 92.5243 29.6334 92.2781C29.3873 92.032 29.249 91.6982 29.249 91.3501V86.6813C29.249 86.3332 29.3873 85.9993 29.6334 85.7532C29.8796 85.5071 30.2134 85.3688 30.5615 85.3688C30.9096 85.3688 31.2435 85.5071 31.4896 85.7532C31.7357 85.9993 31.874 86.3332 31.874 86.6813V91.3501C31.874 91.6982 31.7357 92.032 31.4896 92.2781C31.2435 92.5243 30.9096 92.6626 30.5615 92.6626Z" fill="#DFB21E"/>
<path d="M87.0707 24.558H86.2832C85.2133 22.8517 84.1222 17.563 83.9837 7.19732C83.974 5.54676 83.3114 3.96712 82.1408 2.80344C80.9702 1.63975 79.3867 0.986572 77.7361 0.986572C76.0855 0.986572 74.502 1.63975 73.3314 2.80344C72.1608 3.96712 71.4983 5.54676 71.4885 7.19732C71.35 17.563 70.2587 22.8517 69.1888 24.558H68.4013C65.9856 24.558 63.6689 25.5176 61.9607 27.2257C60.2526 28.9339 59.293 31.2506 59.293 33.6663C59.293 36.082 60.2526 38.3987 61.9607 40.1068C63.6689 41.815 65.9856 42.7746 68.4013 42.7746H71.4763L72.1616 69.0071C72.1745 71.2292 74.3928 76.6491 77.7349 76.6491C81.077 76.6491 83.2953 71.2292 83.3084 69.0071L83.9938 42.7746H87.0685C89.4842 42.7746 91.8009 41.815 93.5091 40.1068C95.2172 38.3987 96.1768 36.082 96.1768 33.6663C96.1768 31.2506 95.2172 28.9339 93.5091 27.2257C91.8009 25.5176 89.4842 24.558 87.0685 24.558H87.0707ZM74.1142 7.23298C74.1104 6.75482 74.2014 6.28066 74.3818 5.83783C74.5622 5.39501 74.8285 4.99227 75.1653 4.65284C75.5021 4.31341 75.9028 4.04401 76.3442 3.86017C76.7856 3.67632 77.259 3.58167 77.7372 3.58167C78.2154 3.58167 78.6888 3.67632 79.1302 3.86017C79.5716 4.04401 79.9723 4.31341 80.3091 4.65284C80.6459 4.99227 80.9122 5.39501 81.0926 5.83783C81.273 6.28066 81.364 6.75482 81.3602 7.23298C81.4712 15.5501 82.1574 21.3496 83.4032 24.558H72.0719C73.3172 21.3487 74.0035 15.5488 74.1142 7.23254V7.23298ZM80.6861 68.9539C80.6861 68.9653 80.6861 68.9758 80.6861 68.9883C80.6861 70.488 78.9413 74.0246 77.7375 74.0246C76.5337 74.0246 74.7892 70.488 74.7892 68.9883C74.7892 68.9767 74.7892 68.9653 74.7892 68.9539L74.1052 42.775H81.3707L80.6861 68.9539ZM87.0707 40.15H68.4035C67.5521 40.15 66.709 39.9823 65.9224 39.6565C65.1358 39.3307 64.4211 38.8532 63.8191 38.2511C63.217 37.6491 62.7395 36.9344 62.4137 36.1478C62.0879 35.3612 61.9202 34.5181 61.9202 33.6667C61.9202 32.8153 62.0879 31.9723 62.4137 31.1857C62.7395 30.3991 63.217 29.6844 63.8191 29.0823C64.4211 28.4803 65.1358 28.0027 65.9224 27.6769C66.709 27.3511 67.5521 27.1834 68.4035 27.1834H87.0707C87.9221 27.1834 88.7652 27.3511 89.5518 27.6769C90.3384 28.0027 91.0531 28.4803 91.6551 29.0823C92.2571 29.6844 92.7347 30.3991 93.0605 31.1857C93.3863 31.9723 93.554 32.8153 93.554 33.6667C93.554 34.5181 93.3863 35.3612 93.0605 36.1478C92.7347 36.9344 92.2571 37.6491 91.6551 38.2511C91.0531 38.8532 90.3384 39.3307 89.5518 39.6565C88.7652 39.9823 87.9221 40.15 87.0707 40.15Z" fill="#DFB21E"/>
<path d="M52.6083 56.7479C52.6083 56.4992 52.6015 56.2511 52.5915 56.0042V56C52.5915 55.981 52.5895 55.9624 52.5886 55.9436C52.4634 53.1486 51.7174 50.4166 50.4048 47.9458C49.0922 45.475 47.2459 43.3275 45 41.6592C44.506 41.2963 44.113 40.8132 43.8582 40.2557C43.6034 39.6983 43.4953 39.0849 43.5442 38.474C44.7599 38.1128 45.8049 37.3261 46.4881 36.2576C47.1713 35.1892 47.447 33.9104 47.2647 32.6554C47.0825 31.4004 46.4544 30.2529 45.4955 29.4229C44.5366 28.593 43.3109 28.136 42.0427 28.1356H19.0785C17.8101 28.1356 16.584 28.5925 15.6248 29.4225C14.6656 30.2525 14.0373 31.4001 13.855 32.6554C13.6727 33.9107 13.9485 35.1897 14.632 36.2583C15.3155 37.3268 16.361 38.1135 17.577 38.4744C17.6259 39.0854 17.5178 39.6988 17.2629 40.2563C17.0081 40.8138 16.6149 41.2968 16.1208 41.6596C13.7655 43.4086 11.8512 45.6835 10.5303 48.303C9.20948 50.9225 8.51858 53.8142 8.5127 56.7479V98.6875C8.51605 101.741 9.73071 104.669 11.8902 106.829C14.0496 108.988 16.9775 110.203 20.0314 110.206H41.0892C44.1432 110.203 47.0712 108.988 49.2307 106.829C51.3902 104.669 52.605 101.742 52.6083 98.6875V56.7479ZM11.1381 57.3125H49.9833V95.4555H11.1381V57.3125ZM16.4247 33.4143C16.4255 32.7107 16.7053 32.0362 17.2029 31.5387C17.7004 31.0412 18.375 30.7614 19.0785 30.7606H42.0427C42.3932 30.7574 42.7409 30.8237 43.0657 30.9557C43.3904 31.0876 43.6858 31.2826 43.9348 31.5293C44.1838 31.7761 44.3815 32.0697 44.5163 32.3932C44.6512 32.7168 44.7207 33.0638 44.7207 33.4144C44.7207 33.7649 44.6512 34.112 44.5163 34.4355C44.3815 34.7591 44.1838 35.0527 43.9348 35.2995C43.6858 35.5462 43.3904 35.7412 43.0657 35.8731C42.7409 36.005 42.3932 36.0713 42.0427 36.0682H19.0785C18.3749 36.0674 17.7003 35.7876 17.2028 35.29C16.7053 34.7925 16.4254 34.1179 16.4247 33.4143ZM17.682 43.7703C18.477 43.186 19.1211 42.4207 19.5612 41.5377C20.0013 40.6548 20.2246 39.6796 20.2125 38.6932H40.9109C40.898 39.6795 41.1206 40.6546 41.5602 41.5377C41.9999 42.4207 42.6438 43.1861 43.4385 43.7703C45.1843 45.0672 46.6514 46.7021 47.7524 48.5776C48.8533 50.4531 49.5658 52.531 49.8473 54.6875H11.2733C11.5548 52.531 12.2672 50.4531 13.3682 48.5776C14.4692 46.7021 15.9363 45.0672 17.682 43.7703ZM41.0883 107.581H20.0314C17.6736 107.578 15.413 106.64 13.7458 104.973C12.0785 103.306 11.1407 101.045 11.1381 98.6875V98.0805H49.9833V98.6875C49.9808 101.046 49.043 103.306 47.3755 104.974C45.7081 106.641 43.4472 107.579 41.0892 107.581L41.0883 107.581Z" fill="#DFB21E"/>
</svg>
