<svg width="112" height="112" viewBox="0 0 112 112" fill="none" xmlns="http://www.w3.org/2000/svg">
<path d="M56.6947 79.7611C56.4757 79.761 56.2602 79.7061 56.0679 79.6014C55.8755 79.4967 55.7124 79.3455 55.5934 79.1617C55.4745 78.9778 55.4034 78.7671 55.3866 78.5488C55.3699 78.3304 55.4081 78.1113 55.4977 77.9115C58.2395 71.79 62.5465 68.9646 66.3477 66.4724C69.1374 64.6424 71.5467 63.0621 72.7663 60.5006C72.9159 60.1862 73.1842 59.9443 73.5123 59.8278C73.8403 59.7114 74.2012 59.73 74.5155 59.8796C74.8298 60.0293 75.0718 60.2976 75.1882 60.6256C75.3047 60.9537 75.2861 61.3146 75.1364 61.6289C73.601 64.8539 70.777 66.7061 67.7864 68.6671C64.1165 71.0734 60.3216 73.5636 57.8937 78.9845C57.7902 79.2159 57.6219 79.4124 57.4091 79.5502C57.1963 79.688 56.9482 79.7612 56.6947 79.7611Z" fill="#DFB21E"/>
<path d="M56.6948 79.761C56.4414 79.7611 56.1934 79.6879 55.9807 79.5501C55.768 79.4123 55.5998 79.216 55.4963 78.9847C53.0681 73.5638 49.2733 71.0744 45.6033 68.6673C42.6136 66.7062 39.7898 64.8541 38.2544 61.629C38.1048 61.3147 38.0861 60.9539 38.2026 60.6258C38.319 60.2978 38.561 60.0294 38.8753 59.8798C39.1896 59.7302 39.5505 59.7116 39.8785 59.828C40.2066 59.9444 40.4749 60.1864 40.6245 60.5007C41.8439 63.0621 44.2534 64.6423 47.0431 66.4726C50.843 68.965 55.15 71.7902 57.892 77.9117C57.9816 78.1115 58.0198 78.3306 58.0031 78.549C57.9863 78.7674 57.9152 78.9781 57.7962 79.1619C57.6772 79.3458 57.5141 79.497 57.3217 79.6016C57.1293 79.7063 56.9138 79.761 56.6948 79.761Z" fill="#DFB21E"/>
<path d="M55.9725 85.0955C55.7781 85.0957 55.5861 85.0527 55.4104 84.9697C55.2346 84.8867 55.0796 84.7656 54.9563 84.6153C54.833 84.4651 54.7447 84.2893 54.6976 84.1007C54.6506 83.9121 54.646 83.7154 54.6842 83.5249C56.1343 76.2928 55.475 69.1092 54.777 61.5053C54.0687 53.7858 53.3359 45.8036 54.8308 37.3115C54.8595 37.1407 54.9218 36.9773 55.0139 36.8306C55.1061 36.684 55.2264 36.557 55.3679 36.4571C55.5093 36.3572 55.6692 36.2862 55.8382 36.2484C56.0072 36.2105 56.1821 36.2065 56.3526 36.2365C56.5232 36.2665 56.6862 36.33 56.8321 36.4233C56.9781 36.5166 57.1041 36.6379 57.2029 36.7801C57.3018 36.9223 57.3715 37.0827 57.4081 37.252C57.4446 37.4213 57.4473 37.5962 57.416 37.7665C55.9821 45.9123 56.6985 53.7171 57.3911 61.2646C58.107 69.0651 58.7832 76.4332 57.2581 84.0402C57.1986 84.3376 57.0381 84.6051 56.8037 84.7975C56.5694 84.9899 56.2757 85.0952 55.9725 85.0955Z" fill="#DFB21E"/>
<path d="M70.5691 83.8598C70.1816 83.4244 69.7066 83.0755 69.1751 82.8361C68.6436 82.5967 68.0676 82.472 67.4847 82.4703H44.4549C43.872 82.472 43.2961 82.5967 42.7646 82.8361C42.2331 83.0755 41.7581 83.4244 41.3706 83.8598C40.9215 84.3602 40.5814 84.9485 40.3717 85.5874C40.1621 86.2262 40.0875 86.9017 40.1528 87.5709L41.8177 105.88C42.0351 108.271 43.8844 110.074 46.1194 110.074H65.82C68.0548 110.074 69.9043 108.271 70.1218 105.88L71.7867 87.5709C71.852 86.9017 71.7774 86.2262 71.5678 85.5874C71.3582 84.9485 71.0181 84.3602 70.5691 83.8598ZM69.1726 87.3331L67.5077 105.642C67.4141 106.673 66.6885 107.449 65.8203 107.449H46.1199C45.2514 107.449 44.526 106.673 44.4324 105.642L42.7673 87.3331C42.7348 87.0271 42.7663 86.7178 42.8596 86.4246C42.9529 86.1314 43.106 85.8608 43.3094 85.6299C43.4521 85.4654 43.6279 85.3328 43.8252 85.2406C44.0226 85.1485 44.2372 85.099 44.4549 85.0953H67.4847C67.7025 85.0991 67.9171 85.1486 68.1145 85.2407C68.3119 85.3328 68.4877 85.4654 68.6305 85.6299C68.8339 85.8608 68.987 86.1314 69.0803 86.4246C69.1735 86.7178 69.2049 87.0272 69.1724 87.3331H69.1726Z" fill="#DFB21E"/>
<path d="M65.305 39.2741C65.4542 38.5021 65.4753 37.7107 65.3673 36.9317C66.4161 37.0862 67.4745 37.1662 68.5346 37.1711C70.889 37.1711 72.914 36.7189 74.5537 35.8275C75.0491 35.5567 75.479 35.1803 75.8128 34.7249C76.1467 34.2696 76.3764 33.7464 76.4856 33.1924C76.5948 32.6385 76.581 32.0673 76.445 31.5193C76.309 30.9712 76.0542 30.4598 75.6986 30.0212C74.2219 28.1892 72.0645 27.0025 69.2602 26.4731C72.6891 23.7538 75.9152 20.2271 76.9709 16.0971C77.1133 15.5361 77.1275 14.9502 77.0123 14.383C76.8972 13.8158 76.6558 13.2818 76.3059 12.8207C75.9561 12.3596 75.5068 11.9832 74.9915 11.7196C74.4763 11.456 73.9082 11.3119 73.3296 11.298C73.2554 11.2962 73.1802 11.2953 73.106 11.2953C69.1191 11.2953 65.474 13.6578 62.4927 16.5751C62.8508 11.4408 62.1595 5.98146 58.7241 2.38915C58.3681 2.01674 57.9403 1.72034 57.4666 1.51784C56.9929 1.31534 56.483 1.21094 55.9678 1.21094C55.4526 1.21094 54.9428 1.31534 54.4691 1.51784C53.9954 1.72034 53.5676 2.01674 53.2116 2.38915C49.7761 5.9819 49.086 11.4406 49.4434 16.5755C46.462 13.6576 42.8177 11.2956 38.8307 11.2953C38.7557 11.2953 38.6813 11.2953 38.6063 11.298C38.0277 11.312 37.4597 11.4561 36.9445 11.7198C36.4292 11.9834 35.98 12.3598 35.6302 12.8208C35.2803 13.2819 35.0389 13.8159 34.9237 14.3831C34.8086 14.9503 34.8227 15.5361 34.965 16.0971C36.0209 20.2271 39.247 23.7534 42.6759 26.4729C39.8718 27.002 37.714 28.1892 36.2375 30.0212C35.8818 30.4598 35.627 30.9712 35.4909 31.5192C35.3549 32.0673 35.341 32.6385 35.4503 33.1925C35.5595 33.7465 35.7892 34.2696 36.1231 34.725C36.457 35.1804 36.8869 35.5567 37.3824 35.8275C39.023 36.7189 41.0471 37.1711 43.4015 37.1711C44.4617 37.166 45.5203 37.0861 46.5692 36.9317C46.4644 37.6858 46.4807 38.4517 46.6174 39.2006C46.7748 40.0905 47.2365 40.898 47.9235 41.4849C48.6106 42.0719 49.4803 42.4019 50.3838 42.4184H50.4461C52.8933 42.4184 54.6538 40.7581 55.9519 39.0989C57.2709 40.7715 59.0474 42.4184 61.49 42.4184H61.5639C62.4534 42.4024 63.3104 42.0814 63.9914 41.509C64.6725 40.9366 65.1362 40.1476 65.305 39.2741ZM62.7268 38.7817C62.6745 39.0632 62.5263 39.3179 62.3073 39.5024C62.0883 39.6869 61.8121 39.7897 61.5258 39.7934H61.49C59.467 39.7934 57.8775 37.35 56.7138 35.6602C56.64 35.5225 56.5304 35.4074 56.3966 35.327C56.2628 35.2465 56.1098 35.2037 55.9536 35.2031C55.7975 35.2025 55.6441 35.2441 55.5097 35.3235C55.3752 35.4029 55.2648 35.5172 55.19 35.6542C54.0159 37.3445 52.4718 39.7934 50.4461 39.7934H50.4157C50.1219 39.7846 49.8402 39.6741 49.6187 39.4809C49.3971 39.2877 49.2494 39.0237 49.2006 38.7338C48.7895 36.4588 50.1574 34.7033 51.3246 33.6588C51.3659 33.6222 51.3952 33.574 51.4088 33.5205C51.4223 33.4669 51.4195 33.4106 51.4006 33.3587C51.3818 33.3069 51.3477 33.2619 51.303 33.2295C51.2582 33.1972 51.2048 33.1791 51.1496 33.1776C51.1196 33.1777 51.0897 33.1824 51.061 33.1918C49.248 33.7697 46.2783 34.5461 43.4011 34.5461C41.6929 34.5461 40.0172 34.2724 38.636 33.5212C38.4784 33.4342 38.3419 33.3135 38.2362 33.1678C38.1304 33.0221 38.058 32.8549 38.0241 32.678C37.9903 32.5012 37.9957 32.3191 38.0401 32.1446C38.0845 31.9701 38.1667 31.8075 38.281 31.6684C40.1227 29.3831 43.4017 28.7798 46.3529 28.7798C47.776 28.7882 49.1963 28.9097 50.6001 29.1434C50.6166 29.1461 50.6333 29.1475 50.65 29.1475C50.7105 29.1461 50.7688 29.1248 50.8159 29.0869C50.8629 29.0489 50.8962 28.9965 50.9104 28.9377C50.9246 28.8789 50.9189 28.8171 50.8944 28.7618C50.8698 28.7066 50.8276 28.661 50.7745 28.6321C47.1498 26.6713 39.1059 21.6989 37.508 15.447C37.4634 15.2688 37.4594 15.0829 37.4962 14.903C37.5331 14.7231 37.6098 14.5538 37.7208 14.4075C37.8318 14.2611 37.9742 14.1416 38.1375 14.0576C38.3008 13.9737 38.4809 13.9274 38.6645 13.9223C38.7199 13.921 38.7751 13.9203 38.8301 13.9203C45.0706 13.9203 50.7878 21.7435 53.1267 25.4141C53.15 25.4533 53.1831 25.4857 53.2227 25.5083C53.2623 25.5308 53.3071 25.5426 53.3527 25.5425C53.3954 25.5435 53.4378 25.5344 53.4765 25.5161C53.5151 25.4977 53.5489 25.4705 53.5751 25.4367C53.6014 25.4029 53.6193 25.3634 53.6275 25.3214C53.6357 25.2794 53.634 25.2361 53.6224 25.1949C52.3687 20.5815 50.0625 9.48015 55.1086 4.20324C55.2196 4.08721 55.3529 3.99487 55.5005 3.93178C55.6482 3.86869 55.8071 3.83616 55.9676 3.83616C56.1282 3.83616 56.2871 3.86869 56.4347 3.93178C56.5823 3.99487 56.7157 4.08721 56.8266 4.20324C61.8728 9.48015 59.5665 20.5815 58.3128 25.1949C58.3013 25.2361 58.2995 25.2794 58.3077 25.3214C58.3159 25.3634 58.3339 25.4029 58.3601 25.4367C58.3863 25.4705 58.4201 25.4977 58.4587 25.5161C58.4974 25.5344 58.5398 25.5435 58.5825 25.5425C58.6281 25.5425 58.6728 25.5307 58.7124 25.5082C58.752 25.4857 58.785 25.4533 58.8083 25.4141C61.148 21.7437 66.8646 13.9197 73.1047 13.9203C73.1596 13.9203 73.2154 13.9203 73.2705 13.9223C73.4541 13.9275 73.6341 13.9737 73.7974 14.0577C73.9607 14.1417 74.1031 14.2612 74.2141 14.4075C74.3251 14.5538 74.4018 14.7232 74.4387 14.9031C74.4755 15.083 74.4715 15.2688 74.427 15.447C72.8291 21.6989 64.7852 26.6713 61.1605 28.6321C61.1074 28.661 61.0652 28.7066 61.0406 28.7618C61.0161 28.8171 61.0104 28.8789 61.0246 28.9377C61.0388 28.9965 61.0721 29.0489 61.1191 29.0869C61.1662 29.1248 61.2245 29.1461 61.285 29.1475C61.3016 29.1475 61.3182 29.1461 61.3346 29.1434C62.7386 28.9097 64.1589 28.7882 65.5821 28.7798C68.533 28.7798 71.8123 29.3833 73.654 31.6684C73.7683 31.8075 73.8505 31.9701 73.8949 32.1446C73.9393 32.3191 73.9447 32.5012 73.9109 32.678C73.877 32.8549 73.8046 33.0221 73.6988 33.1678C73.5931 33.3135 73.4566 33.4342 73.299 33.5212C71.9175 34.2726 70.2424 34.5461 68.5339 34.5461C65.6558 34.5461 62.6845 33.7693 60.872 33.1911C60.8437 33.1819 60.8142 33.1771 60.7845 33.1769C60.7292 33.1783 60.6756 33.1962 60.6307 33.2285C60.5858 33.2608 60.5517 33.3059 60.5328 33.3578C60.5139 33.4098 60.5111 33.4662 60.5248 33.5198C60.5385 33.5734 60.568 33.6216 60.6095 33.6581C61.7855 34.7095 63.1658 36.4827 62.7268 38.7817Z" fill="#DFB21E"/>
<path d="M95.3876 52.0916C95.3235 51.577 95.1435 51.0837 94.861 50.6489C94.5786 50.214 94.2011 49.849 93.757 49.5812C92.4288 48.7771 90.8365 48.3693 89.0242 48.3693C88.3512 48.3716 87.6793 48.4221 87.0136 48.5205C88.4666 45.8826 89.3453 42.9268 88.6387 40.0523C88.4573 39.3083 88.0311 38.6469 87.4286 38.1744C86.826 37.7018 86.0821 37.4455 85.3163 37.4467C84.9898 37.4468 84.665 37.4936 84.3517 37.5856C81.5079 38.4208 79.3922 40.67 77.8414 43.2569C76.9529 41.0513 75.5984 39.0736 73.5413 37.9503C73.0861 37.7022 72.5808 37.56 72.063 37.5343C71.5453 37.5086 71.0284 37.6 70.5508 37.8017C70.0733 38.0034 69.6474 38.3102 69.3048 38.6993C68.9623 39.0884 68.7119 39.5497 68.5723 40.049C67.8918 42.4909 68.2685 45.1758 69.0584 47.6508C68.6076 47.5739 68.1512 47.5347 67.6938 47.5335C66.8333 47.5289 65.9793 47.6847 65.1758 47.9929C64.7043 48.1747 64.2786 48.4579 63.9287 48.8226C63.5788 49.1872 63.3134 49.6243 63.1512 50.1029C62.989 50.5815 62.934 51.0898 62.99 51.5921C63.0461 52.0943 63.2119 52.578 63.4757 53.009C64.4857 54.6538 66.1302 55.8292 67.9137 56.6679C67.8088 56.8776 67.7167 57.0934 67.6378 57.3143C67.3645 58.0733 67.3634 58.9038 67.6347 59.6636C67.906 60.4234 68.433 61.0653 69.1253 61.4795C69.8318 61.8926 70.6374 62.1058 71.4557 62.0961C72.0665 62.0888 72.6732 61.9943 73.2573 61.8155C73.5854 63.1238 74.2404 64.4486 75.6434 65.2293C76.3391 65.6168 77.1473 65.7521 77.9313 65.6122C78.7152 65.4722 79.4267 65.0657 79.9454 64.4615C80.1116 64.2691 80.2651 64.066 80.4048 63.8536C82.0261 64.9738 83.8689 65.805 85.7983 65.8512C85.8269 65.8512 85.8542 65.8512 85.8816 65.8512C86.3799 65.8504 86.8721 65.7415 87.3243 65.5322C87.7765 65.3228 88.1779 65.0179 88.501 64.6385C88.824 64.2591 89.061 63.8141 89.1955 63.3343C89.33 62.8545 89.359 62.3513 89.2803 61.8592C89.0608 60.5557 88.4877 59.3374 87.6233 58.3373C90.198 57.7706 92.6803 56.7378 94.4415 54.9303C94.8037 54.5595 95.077 54.1114 95.2409 53.6197C95.4047 53.128 95.4549 52.6055 95.3876 52.0916ZM92.5598 53.0998C89.818 55.914 84.3407 56.3373 81.2881 56.3373C80.9788 56.3373 80.6937 56.3329 80.4398 56.3264H80.4343C80.3913 56.3266 80.3498 56.3418 80.317 56.3695C80.2841 56.3971 80.262 56.4354 80.2544 56.4776C80.2468 56.5199 80.2542 56.5635 80.2754 56.6008C80.2966 56.6382 80.3302 56.6669 80.3704 56.6821C82.4019 57.4477 86.2132 59.2653 86.6864 62.2694C86.706 62.3868 86.6999 62.507 86.6685 62.6218C86.6371 62.7366 86.5812 62.8433 86.5046 62.9344C86.428 63.0255 86.3326 63.0989 86.2248 63.1495C86.1171 63.2002 85.9997 63.2268 85.8807 63.2277H85.8593C83.0293 63.1597 80.1175 60.3816 78.7468 58.8801C78.7303 58.8611 78.71 58.8459 78.6871 58.8354C78.6643 58.8249 78.6394 58.8194 78.6143 58.8193C78.5848 58.8191 78.5557 58.826 78.5294 58.8393C78.5032 58.8527 78.4805 58.8721 78.4632 58.896C78.446 58.9199 78.4347 58.9476 78.4303 58.9768C78.4259 59.0059 78.4285 59.0357 78.438 59.0636C78.7698 60.0679 78.9789 61.5602 77.955 62.7495C77.8306 62.8958 77.6593 62.9944 77.4703 63.0284C77.2813 63.0625 77.0864 63.0298 76.9188 62.9361C75.7231 62.2709 75.6157 60.3043 75.5037 58.9247C75.5059 58.849 75.4931 58.7735 75.466 58.7028C75.4389 58.632 75.3981 58.5673 75.3459 58.5124C75.2937 58.4575 75.2311 58.4135 75.1618 58.3829C75.0925 58.3523 75.0179 58.3357 74.9421 58.3341C74.8303 58.3359 74.7202 58.3625 74.6199 58.4119C73.6865 58.8534 72.4908 59.472 71.4546 59.472C71.1068 59.4801 70.7633 59.3934 70.461 59.2211C70.2933 59.1176 70.1666 58.9592 70.1025 58.7729C70.0383 58.5865 70.0406 58.3837 70.1091 58.1989C70.631 56.7392 72.0122 56.1763 73.0403 55.9595C73.0817 55.9512 73.1189 55.929 73.1458 55.8965C73.1726 55.864 73.1875 55.8232 73.1879 55.7811C73.1883 55.7389 73.1742 55.6979 73.1479 55.6649C73.1216 55.6319 73.0848 55.609 73.0436 55.5999C71.0563 55.1692 67.1925 54.0483 65.7115 51.6364C65.649 51.5331 65.61 51.4173 65.5973 51.2972C65.5845 51.1772 65.5983 51.0558 65.6378 50.9416C65.6772 50.8275 65.7413 50.7235 65.8254 50.6369C65.9096 50.5503 66.0118 50.4833 66.1248 50.4407C66.6252 50.2498 67.1569 50.1541 67.6925 50.1585C70.148 50.1585 72.7476 51.966 74.1295 53.0926C74.1615 53.1203 74.2024 53.1358 74.2448 53.1363C74.2776 53.1363 74.3099 53.1275 74.3383 53.1108C74.3666 53.0941 74.39 53.0702 74.406 53.0415C74.422 53.0127 74.4301 52.9802 74.4293 52.9473C74.4286 52.9145 74.4191 52.8824 74.4018 52.8544C72.9506 50.5026 69.9393 44.9227 71.1 40.7544C71.149 40.5817 71.2531 40.4298 71.3965 40.3217C71.5398 40.2136 71.7145 40.1553 71.8941 40.1557C72.0297 40.1556 72.1632 40.1898 72.2821 40.255C75.9937 42.2815 76.712 48.83 76.8453 51.7707C76.8466 51.8184 76.8668 51.8636 76.9014 51.8965C76.9361 51.9293 76.9824 51.947 77.0301 51.9457C77.0708 51.9465 77.1105 51.9333 77.1426 51.9083C77.1747 51.8832 77.1972 51.848 77.2064 51.8083C78.0206 48.7075 80.3925 41.4833 85.0902 40.1052C85.1934 40.0747 85.3018 40.0654 85.4088 40.0781C85.5158 40.0907 85.619 40.1249 85.7124 40.1786C85.8057 40.2323 85.8872 40.3044 85.9519 40.3905C86.0165 40.4766 86.063 40.575 86.0885 40.6796C87.2571 45.4342 82.2042 51.1155 79.9327 53.3778C79.9071 53.4035 79.8896 53.4361 79.8823 53.4716C79.8751 53.5071 79.8785 53.5439 79.892 53.5776C79.9056 53.6112 79.9287 53.6401 79.9585 53.6606C79.9883 53.6812 80.0236 53.6926 80.0598 53.6933C80.0903 53.6932 80.1203 53.6857 80.1473 53.6714C82.0465 52.6794 85.7514 50.9957 89.0226 50.9959C90.2022 50.9591 91.3691 51.2471 92.3962 51.8282C92.501 51.8925 92.5901 51.9795 92.6569 52.0827C92.7237 52.186 92.7666 52.3029 92.7823 52.4249C92.798 52.5468 92.7861 52.6708 92.7476 52.7876C92.7091 52.9044 92.645 53.0111 92.5598 53.0998Z" fill="#DFB21E"/>
<path d="M48.2154 47.9937C47.4118 47.6855 46.5579 47.5297 45.6973 47.5343C45.24 47.5354 44.7836 47.5747 44.3328 47.6516C45.1224 45.1766 45.4991 42.4917 44.8186 40.0498C44.6791 39.5506 44.4287 39.0892 44.0862 38.7001C43.7437 38.311 43.3178 38.0042 42.8403 37.8025C42.3627 37.6008 41.8458 37.5094 41.3281 37.5351C40.8104 37.5609 40.3051 37.7031 39.8499 37.9511C37.7926 39.0744 36.4374 41.0521 35.5495 43.2578C33.9988 40.6713 31.8835 38.4216 29.0395 37.5865C28.596 37.456 28.1306 37.4169 27.6715 37.4713C27.2125 37.5258 26.7692 37.6727 26.3685 37.9032C25.9677 38.1338 25.6179 38.4431 25.3401 38.8126C25.0623 39.1821 24.8622 39.6041 24.752 40.0531C24.0457 42.9277 24.9242 45.8834 26.3771 48.5213C25.7115 48.423 25.0398 48.3725 24.367 48.3702C22.5547 48.3702 20.9622 48.7779 19.6339 49.582C19.1909 49.8511 18.8143 50.2165 18.532 50.6512C18.2497 51.0859 18.069 51.5786 18.0034 52.0927C17.9377 52.6068 17.9888 53.1291 18.1528 53.6207C18.3168 54.1124 18.5896 54.5607 18.9508 54.9325C20.7117 56.74 23.1945 57.7727 25.7688 58.3395C24.9045 59.3397 24.3313 60.5579 24.1117 61.8614C24.0331 62.3534 24.0621 62.8566 24.1967 63.3364C24.3313 63.8162 24.5682 64.2611 24.8912 64.6405C25.2143 65.0199 25.6157 65.3248 26.0678 65.5342C26.52 65.7435 27.0122 65.8524 27.5104 65.8533C27.5378 65.8533 27.5651 65.8533 27.5927 65.8533C29.5225 65.807 31.3657 64.9757 32.9873 63.8555C33.1271 64.0679 33.2805 64.2711 33.4467 64.4636C33.9654 65.0678 34.677 65.4743 35.4609 65.6141C36.2449 65.754 37.0531 65.6187 37.7488 65.2312C39.1519 64.4505 39.8051 63.1257 40.1347 61.8174C40.7189 61.9962 41.3257 62.0907 41.9366 62.0981C42.7548 62.1077 43.5602 61.8945 44.2665 61.4814C44.9589 61.0673 45.4858 60.4254 45.7572 59.6655C46.0285 58.9057 46.0274 58.0752 45.754 57.3162C45.6751 57.0953 45.583 56.8795 45.4781 56.6698C47.2618 55.8311 48.9064 54.6557 49.9164 53.011C50.1801 52.5799 50.3459 52.0962 50.4019 51.594C50.458 51.0918 50.4029 50.5834 50.2407 50.1048C50.0785 49.6262 49.8131 49.1892 49.4633 48.8245C49.1134 48.4599 48.6877 48.1767 48.2162 47.9948L48.2154 47.9937ZM47.6783 51.6363C46.1976 54.0483 42.3336 55.1691 40.3463 55.5999C40.3051 55.6089 40.2683 55.6319 40.242 55.6649C40.2158 55.6979 40.2017 55.7389 40.2021 55.7811C40.2025 55.8233 40.2174 55.864 40.2443 55.8965C40.2712 55.929 40.3084 55.9512 40.3498 55.9595C41.3779 56.1763 42.7595 56.7391 43.281 58.1988C43.3494 58.3837 43.3518 58.5865 43.2876 58.7728C43.2235 58.9592 43.0968 59.1175 42.929 59.2211C42.6268 59.3933 42.2833 59.48 41.9355 59.472C40.8993 59.472 39.7042 58.8533 38.7699 58.4119C38.6697 58.3624 38.5597 58.3358 38.4479 58.334C38.3722 58.3357 38.2975 58.3523 38.2282 58.3829C38.1589 58.4135 38.0964 58.4575 38.0442 58.5124C37.992 58.5673 37.9511 58.632 37.924 58.7028C37.8969 58.7735 37.884 58.8489 37.8862 58.9246C37.7742 60.3043 37.6674 62.2715 36.4713 62.9361C36.3037 63.0298 36.1088 63.0624 35.9198 63.0284C35.7308 62.9944 35.5595 62.8958 35.4351 62.7495C34.4109 61.5601 34.6203 60.0678 34.9519 59.0636C34.9613 59.0356 34.964 59.0059 34.9596 58.9768C34.9552 58.9476 34.9439 58.92 34.9267 58.8961C34.9095 58.8722 34.8868 58.8527 34.8606 58.8394C34.8343 58.826 34.8052 58.8191 34.7758 58.8192C34.7506 58.8194 34.7258 58.8249 34.703 58.8353C34.6801 58.8458 34.6597 58.8611 34.6432 58.88C33.2723 60.3815 30.3605 63.1596 27.5306 63.2277H27.5102C27.3912 63.2268 27.2738 63.2001 27.1661 63.1495C27.0584 63.0988 26.963 63.0254 26.8864 62.9343C26.8098 62.8432 26.7539 62.7366 26.7225 62.6218C26.6911 62.507 26.685 62.3867 26.7046 62.2693C27.1779 59.2652 30.989 57.447 33.0205 56.682C33.0607 56.6669 33.0943 56.6381 33.1155 56.6008C33.1367 56.5634 33.1442 56.5199 33.1366 56.4776C33.129 56.4353 33.1068 56.3971 33.074 56.3694C33.0411 56.3418 32.9996 56.3266 32.9567 56.3263H32.951C32.6968 56.3329 32.4118 56.3373 32.1027 56.3373C29.05 56.3373 23.5725 55.9133 20.8307 53.0998C20.7452 53.0111 20.6808 52.9044 20.642 52.7875C20.6033 52.6706 20.5913 52.5465 20.6068 52.4243C20.6224 52.3022 20.6652 52.185 20.732 52.0816C20.7989 51.9782 20.888 51.891 20.993 51.8266C22.0202 51.2455 23.1872 50.9575 24.3668 50.9943C27.638 50.9943 31.3429 52.6787 33.2421 53.6698C33.2811 53.6912 33.3265 53.6977 33.3699 53.6881C33.4133 53.6785 33.4517 53.6534 33.478 53.6176C33.5043 53.5817 33.5166 53.5375 33.5127 53.4932C33.5088 53.449 33.4889 53.4076 33.4567 53.3769C31.1857 51.1146 26.133 45.4343 27.3004 40.6787C27.326 40.5741 27.3725 40.4757 27.4372 40.3896C27.5019 40.3035 27.5834 40.2314 27.6767 40.1776C27.7701 40.1239 27.8734 40.0897 27.9804 40.0771C28.0873 40.0645 28.1957 40.0738 28.299 40.1043C32.9967 41.4839 35.3684 48.7075 36.1826 51.8074C36.1918 51.847 36.2143 51.8823 36.2464 51.9073C36.2785 51.9323 36.3182 51.9455 36.3589 51.9448C36.3825 51.9454 36.4061 51.9414 36.4282 51.933C36.4503 51.9246 36.4705 51.9119 36.4877 51.8956C36.5049 51.8794 36.5187 51.8599 36.5283 51.8383C36.538 51.8167 36.5433 51.7934 36.5439 51.7698C36.6772 48.8282 37.3953 42.2806 41.1071 40.2541C41.2259 40.1889 41.3593 40.1547 41.4949 40.1548C41.6745 40.1544 41.8492 40.2127 41.9926 40.3208C42.136 40.4289 42.2401 40.5808 42.2892 40.7535C43.451 44.9218 40.4384 50.5017 38.9872 52.8535C38.9699 52.8814 38.9604 52.9135 38.9596 52.9464C38.9589 52.9793 38.9669 53.0118 38.983 53.0405C38.999 53.0693 39.0223 53.0932 39.0507 53.1099C39.079 53.1266 39.1113 53.1354 39.1442 53.1354C39.1866 53.1349 39.2274 53.1194 39.2595 53.0917C40.6414 51.9651 43.2408 50.1576 45.6964 50.1576C46.2321 50.1532 46.7639 50.2489 47.2644 50.4398C47.3776 50.4823 47.48 50.5493 47.5643 50.6359C47.6486 50.7225 47.7128 50.8266 47.7523 50.9409C47.7918 51.0551 47.8057 51.1767 47.7929 51.2969C47.7801 51.4171 47.741 51.533 47.6783 51.6363Z" fill="#DFB21E"/>
<path d="M80.7738 30.8311L82.5868 31.8227L83.5782 33.6355C83.8437 34.1213 84.2351 34.5267 84.7113 34.8091C85.1876 35.0915 85.731 35.2405 86.2847 35.2405C86.8383 35.2405 87.3818 35.0915 87.858 34.8091C88.3342 34.5267 88.7256 34.1213 88.9911 33.6355L89.9825 31.8229L91.7953 30.8313C92.2811 30.5658 92.6865 30.1743 92.9689 29.6981C93.2514 29.2219 93.4004 28.6785 93.4004 28.1248C93.4004 27.5712 93.2514 27.0277 92.9689 26.5515C92.6865 26.0753 92.2811 25.6839 91.7953 25.4183L89.9825 24.427L88.9911 22.6142C88.7256 22.1283 88.3342 21.723 87.858 21.4405C87.3818 21.1581 86.8383 21.0091 86.2847 21.0091C85.731 21.0091 85.1876 21.1581 84.7113 21.4405C84.2351 21.723 83.8437 22.1283 83.5782 22.6142L82.5868 24.427L80.774 25.4183C80.2882 25.6839 79.8828 26.0753 79.6004 26.5515C79.318 27.0277 79.1689 27.5712 79.1689 28.1248C79.1689 28.6785 79.318 29.2219 79.6004 29.6981C79.8828 30.1743 80.2882 30.5658 80.774 30.8313L80.7738 30.8311ZM82.0336 27.7213L84.4026 26.4255C84.4798 26.3833 84.5433 26.3199 84.5855 26.2428L85.8812 23.8735C85.9207 23.801 85.979 23.7405 86.05 23.6984C86.121 23.6562 86.202 23.6339 86.2846 23.6339C86.3671 23.6339 86.4481 23.6562 86.5191 23.6984C86.5901 23.7405 86.6484 23.801 86.6879 23.8735L87.9838 26.2428C88.0261 26.3198 88.0894 26.3832 88.1665 26.4255L90.5357 27.7213C90.6082 27.7608 90.6687 27.8191 90.7109 27.8901C90.7531 27.9611 90.7753 28.0421 90.7753 28.1247C90.7753 28.2073 90.7531 28.2883 90.7109 28.3593C90.6687 28.4303 90.6082 28.4886 90.5357 28.5281L88.1665 29.8237C88.0894 29.866 88.026 29.9295 87.9838 30.0066L86.6879 32.375C86.6484 32.4475 86.5901 32.508 86.5191 32.5502C86.4481 32.5923 86.3671 32.6146 86.2846 32.6146C86.202 32.6146 86.121 32.5923 86.05 32.5502C85.979 32.508 85.9207 32.4475 85.8812 32.375L84.5855 30.0057C84.5433 29.9285 84.4799 29.865 84.4026 29.8229L82.0336 28.5272C81.9613 28.4876 81.901 28.4293 81.859 28.3585C81.817 28.2876 81.7948 28.2067 81.7948 28.1243C81.7948 28.0419 81.817 27.961 81.859 27.8901C81.901 27.8192 81.9613 27.7609 82.0336 27.7213Z" fill="#DFB21E"/>
<path d="M24.5038 26.2487L25.1701 26.6131L25.5345 27.2794C25.7819 27.7318 26.1464 28.1092 26.5899 28.3722C27.0334 28.6351 27.5395 28.7738 28.0551 28.7738C28.5706 28.7738 29.0767 28.6351 29.5202 28.3722C29.9637 28.1092 30.3282 27.7318 30.5756 27.2794L30.9398 26.6133L31.6061 26.2489C32.0585 26.0015 32.4359 25.637 32.6989 25.1935C32.9618 24.75 33.1005 24.2439 33.1005 23.7284C33.1005 23.2128 32.9618 22.7067 32.6989 22.2632C32.4359 21.8197 32.0585 21.4552 31.6061 21.2078L30.94 20.8436L30.5758 20.1773C30.3284 19.725 29.9638 19.3476 29.5203 19.0847C29.0769 18.8218 28.5708 18.6831 28.0553 18.6831C27.5397 18.6831 27.0337 18.8218 26.5902 19.0847C26.1467 19.3476 25.7822 19.725 25.5347 20.1773L25.1703 20.8436L24.504 21.2078C24.0517 21.4552 23.6743 21.8198 23.4114 22.2632C23.1485 22.7067 23.0098 23.2127 23.0098 23.7282C23.0098 24.2438 23.1485 24.7498 23.4114 25.1933C23.6743 25.6367 24.0515 26.0013 24.5038 26.2487ZM25.7635 23.5108L27.0406 22.8123C27.0821 22.7896 27.1163 22.7554 27.139 22.7139L27.8375 21.4375C27.8588 21.3984 27.8902 21.3658 27.9285 21.3431C27.9668 21.3204 28.0104 21.3084 28.0549 21.3084C28.0995 21.3084 28.1431 21.3204 28.1814 21.3431C28.2197 21.3658 28.2511 21.3984 28.2724 21.4375L28.9709 22.7146C28.9937 22.7561 29.0279 22.7903 29.0695 22.813L30.3466 23.5115C30.3856 23.5328 30.4181 23.5643 30.4408 23.6025C30.4635 23.6408 30.4755 23.6844 30.4755 23.7289C30.4755 23.7734 30.4635 23.817 30.4408 23.8553C30.4181 23.8935 30.3856 23.925 30.3466 23.9463L29.0695 24.6448C29.0279 24.6675 28.9937 24.7017 28.9709 24.7432L28.2724 26.0203C28.2511 26.0594 28.2197 26.092 28.1814 26.1147C28.1431 26.1375 28.0995 26.1495 28.0549 26.1495C28.0104 26.1495 27.9668 26.1375 27.9285 26.1147C27.8902 26.092 27.8588 26.0594 27.8375 26.0203L27.139 24.7432C27.1163 24.7017 27.0821 24.6675 27.0406 24.6448L25.7635 23.9463C25.7244 23.9251 25.6917 23.8936 25.6689 23.8553C25.6461 23.8169 25.634 23.7732 25.634 23.7286C25.634 23.684 25.6461 23.6402 25.6689 23.6019C25.6917 23.5636 25.7244 23.5321 25.7635 23.5108Z" fill="#DFB21E"/>
<path d="M21.4802 39.2185L22.1868 37.9266L23.4787 37.22C23.9493 36.9627 24.3419 36.5835 24.6155 36.1222C24.889 35.6609 25.0333 35.1344 25.0333 34.5981C25.0333 34.0618 24.889 33.5354 24.6155 33.074C24.3419 32.6127 23.9493 32.2335 23.4787 31.9762L22.1866 31.2694L21.48 29.9775C21.2226 29.5069 20.8434 29.1144 20.3821 28.8409C19.9208 28.5674 19.3944 28.4231 18.8581 28.4231C18.3218 28.4231 17.7954 28.5674 17.334 28.8409C16.8727 29.1144 16.4935 29.5069 16.2361 29.9775L15.5291 31.2694L14.237 31.976C13.7665 32.2333 13.3739 32.6125 13.1004 33.0739C12.8269 33.5352 12.6826 34.0616 12.6826 34.5979C12.6826 35.1342 12.8269 35.6606 13.1004 36.1219C13.3739 36.5832 13.7665 36.9625 14.237 37.2198L15.5291 37.9266L16.2357 39.2185C16.4931 39.689 16.8723 40.0816 17.3336 40.3551C17.7949 40.6286 18.3213 40.7729 18.8576 40.7729C19.3939 40.7729 19.9203 40.6286 20.3817 40.3551C20.843 40.0816 21.2222 39.689 21.4796 39.2185H21.4802ZM18.5393 37.959L17.5149 36.0858C17.4815 36.0248 17.4313 35.9747 17.3703 35.9412L15.4974 34.9168C15.4401 34.8856 15.3923 34.8395 15.359 34.7833C15.3257 34.7272 15.3081 34.6632 15.3081 34.5979C15.3081 34.5326 15.3257 34.4686 15.359 34.4125C15.3923 34.3563 15.4401 34.3102 15.4974 34.279L17.3703 33.2545C17.4314 33.2213 17.4816 33.1712 17.5149 33.1102L18.5393 31.237C18.5707 31.1798 18.6168 31.132 18.6729 31.0988C18.729 31.0655 18.7931 31.048 18.8583 31.048C18.9235 31.048 18.9875 31.0655 19.0437 31.0988C19.0998 31.132 19.1459 31.1798 19.1772 31.237L20.2016 33.1102C20.235 33.1712 20.2852 33.2213 20.3462 33.2545L22.2192 34.279C22.2764 34.3102 22.3243 34.3563 22.3576 34.4125C22.3909 34.4686 22.4084 34.5326 22.4084 34.5979C22.4084 34.6632 22.3909 34.7272 22.3576 34.7833C22.3243 34.8395 22.2764 34.8856 22.2192 34.9168L20.3462 35.9406C20.2852 35.974 20.2351 36.0242 20.2016 36.0852L19.1772 37.9583C19.1459 38.0156 19.0998 38.0633 19.0437 38.0966C18.9875 38.1298 18.9235 38.1474 18.8583 38.1474C18.7931 38.1474 18.729 38.1298 18.6729 38.0966C18.6168 38.0633 18.5707 38.0156 18.5393 37.9583V37.959Z" fill="#DFB21E"/>
</svg>
