<svg width="18" height="12" viewBox="0 0 18 12" fill="none" xmlns="http://www.w3.org/2000/svg">
<path d="M12.4271 4.84235H1.02499C0.882919 4.84235 0.767546 4.95752 0.767546 5.0996V6.90031C0.767546 7.04239 0.882919 7.15756 1.02499 7.15756H12.4272L8.63728 9.99998C8.44518 10.1441 8.40625 10.4166 8.55032 10.6087L9.46336 11.8261C9.60743 12.0182 9.87996 12.0571 10.0721 11.913L16.7967 6.86956C17.3764 6.43478 17.3764 5.56522 16.7967 5.13044L10.0721 0.0869817C9.87996 -0.057092 9.60744 -0.0181602 9.46336 0.173938L8.55032 1.39132C8.40625 1.58342 8.44518 1.85594 8.63728 2.00002L12.4271 4.84235Z" fill="#0A140A"/>
</svg>
