<svg width="112" height="112" viewBox="0 0 112 112" fill="none" xmlns="http://www.w3.org/2000/svg">
<path d="M56.0017 42.6657C55.3047 42.6592 54.6207 42.4767 54.0131 42.1352C53.7081 41.9685 53.4817 41.6876 53.3835 41.3542C53.2854 41.0208 53.3234 40.6621 53.4894 40.3567C53.6554 40.0513 53.9358 39.8243 54.2689 39.7253C54.6021 39.6264 54.961 39.6636 55.2667 39.8289C55.487 39.9659 55.7413 40.0386 56.0007 40.0386C56.2602 40.0386 56.5144 39.9659 56.7347 39.8289C57.0401 39.6669 57.397 39.6319 57.7281 39.7314C58.0591 39.831 58.3375 40.0572 58.5027 40.3608C58.668 40.6644 58.7068 41.0209 58.6108 41.353C58.5147 41.6851 58.2915 41.9658 57.9897 42.1343C57.3825 42.4763 56.6986 42.659 56.0017 42.6657Z" fill="#DFB21E"/>
<path d="M56.025 50.6015C53.0478 50.6015 51.6294 48.442 51.2947 46.4212C51.2422 46.0973 51.2609 45.7658 51.3496 45.4499C51.4383 45.1339 51.5947 44.8411 51.8081 44.5918C52.0428 44.3183 52.3342 44.0992 52.6622 43.9498C52.9901 43.8005 53.3467 43.7244 53.7071 43.7269H58.3431C58.7035 43.7244 59.0602 43.8005 59.3882 43.95C59.7162 44.0994 60.0076 44.3186 60.2423 44.5922C60.4557 44.8414 60.6121 45.1342 60.7007 45.4501C60.7893 45.766 60.8079 46.0974 60.7552 46.4212C60.4208 48.442 59.0024 50.6015 56.025 50.6015ZM53.9606 46.3519C54.245 47.4303 54.9373 47.9765 56.025 47.9765C57.1126 47.9765 57.8056 47.4296 58.0895 46.3519H53.9606Z" fill="#DFB21E"/>
<path d="M49.9523 29.9873C49.6949 29.8609 49.4302 29.7499 49.1597 29.6548C48.8644 29.5454 48.5448 29.4579 48.2252 29.3722C47.5788 29.2097 46.9191 29.1056 46.2541 29.0613C45.6112 29.0154 44.9651 29.0447 44.3291 29.1488C43.7217 29.2505 43.136 29.4549 42.5972 29.7532L42.5316 29.7902C42.3382 29.8985 42.1128 29.9348 41.8951 29.8929C41.6775 29.8509 41.4817 29.7334 41.3424 29.561C41.2031 29.3886 41.1293 29.1725 41.134 28.9509C41.1387 28.7293 41.2216 28.5165 41.3681 28.3502C42.0007 27.6595 42.8002 27.1429 43.6899 26.85C44.5383 26.5636 45.4282 26.4199 46.3236 26.4247C47.1943 26.4226 48.0615 26.5344 48.9031 26.7572C49.3309 26.8699 49.7496 27.0146 50.1557 27.1901L50.4657 27.3319C50.5691 27.3809 50.675 27.4426 50.778 27.4999C50.9967 27.6225 51.2065 27.7604 51.4059 27.9125C51.66 28.095 51.8369 28.3656 51.9023 28.6715C51.9676 28.9775 51.9166 29.2968 51.7592 29.5672C51.6018 29.8375 51.3494 30.0396 51.0511 30.1338C50.7528 30.2281 50.43 30.2078 50.1459 30.077L49.9523 29.9873Z" fill="#DFB21E"/>
<path d="M60.5958 27.9125C60.7951 27.7606 61.0049 27.623 61.2236 27.5006C61.3266 27.4433 61.4325 27.3816 61.536 27.3326L61.8459 27.1908C62.252 27.0153 62.6707 26.8705 63.0985 26.7579C63.9402 26.5351 64.8074 26.4233 65.678 26.4254C66.5734 26.4206 67.4634 26.5643 68.3118 26.8507C69.2014 27.1435 70.0009 27.6601 70.6336 28.3508C70.7801 28.5171 70.8631 28.7297 70.8679 28.9513C70.8727 29.1728 70.7991 29.3888 70.66 29.5613C70.5209 29.7338 70.3253 29.8515 70.1078 29.8937C69.8902 29.9358 69.6648 29.8997 69.4714 29.7918L69.4042 29.7539C68.8654 29.4556 68.2798 29.2512 67.6724 29.1495C67.0363 29.0454 66.3902 29.016 65.7474 29.062C65.0823 29.1063 64.4226 29.2103 63.7762 29.3728C63.4566 29.4582 63.137 29.5459 62.8417 29.6555C62.5712 29.7506 62.3066 29.8616 62.0492 29.988L61.856 30.0768C61.5718 30.2082 61.2488 30.2289 60.9502 30.1348C60.6515 30.0407 60.3987 29.8386 60.2412 29.568C60.0836 29.2974 60.0326 28.9778 60.0982 28.6716C60.1638 28.3655 60.3412 28.0948 60.5958 27.9125Z" fill="#DFB21E"/>
<path d="M43.401 32.6443C43.8394 32.5758 44.2676 32.453 44.6756 32.2787C45.2222 32.0556 45.786 31.8772 46.3615 31.7454C47.0579 31.5959 47.7794 31.6092 48.4698 31.7844C49.1489 31.9747 49.7864 32.2902 50.3496 32.7147C50.4949 32.8199 50.6173 32.9537 50.709 33.1079C50.8008 33.2621 50.8601 33.4334 50.8832 33.6113C50.9063 33.7893 50.8927 33.9701 50.8434 34.1426C50.7941 34.3151 50.71 34.4757 50.5963 34.6145C50.4826 34.7533 50.3417 34.8674 50.1823 34.9498C50.0228 35.0321 49.8483 35.081 49.6693 35.0934C49.4903 35.1058 49.3106 35.0815 49.1414 35.0219C48.9721 34.9623 48.8168 34.8687 48.6851 34.7469L48.6665 34.7292C48.4023 34.4665 48.0949 34.2512 47.7578 34.0926C47.4178 33.9509 47.0483 33.8945 46.6816 33.9283C46.1983 33.9767 45.7197 34.0645 45.2507 34.1908C44.6402 34.3593 44.0089 34.4403 43.3756 34.4315C43.1498 34.4209 42.9364 34.3251 42.7785 34.1633C42.6205 34.0016 42.5298 33.786 42.5246 33.56C42.5195 33.334 42.6002 33.1145 42.7505 32.9457C42.9008 32.7768 43.1096 32.6713 43.3347 32.6504L43.401 32.6443Z" fill="#DFB21E"/>
<path d="M47.1107 37.03C48.2182 37.03 49.116 36.1322 49.116 35.0247C49.116 33.9172 48.2182 33.0194 47.1107 33.0194C46.0033 33.0194 45.1055 33.9172 45.1055 35.0247C45.1055 36.1322 46.0033 37.03 47.1107 37.03Z" fill="#DFB21E"/>
<path d="M68.6243 34.4312C67.991 34.44 67.3597 34.359 66.7491 34.1906C66.2801 34.0643 65.8016 33.9765 65.3183 33.9281C64.9515 33.8943 64.582 33.9507 64.242 34.0924C63.9049 34.251 63.5976 34.4663 63.3333 34.7289L63.32 34.7414C63.1939 34.8595 63.0457 34.9515 62.884 35.0123C62.7223 35.0731 62.5502 35.1014 62.3775 35.0957C62.2048 35.09 62.035 35.0503 61.8776 34.979C61.7203 34.9076 61.5786 34.806 61.4605 34.6798C61.3425 34.5537 61.2504 34.4055 61.1896 34.2438C61.1288 34.0821 61.1005 33.91 61.1062 33.7373C61.1119 33.5647 61.1516 33.3948 61.2229 33.2375C61.2943 33.0801 61.396 32.9384 61.5221 32.8203C61.5628 32.7826 61.6056 32.7473 61.6503 32.7145C62.2134 32.2899 62.8509 31.9744 63.53 31.7841C64.2204 31.6089 64.9419 31.5956 65.6383 31.7452C66.2138 31.877 66.7776 32.0553 67.3242 32.2785C67.7323 32.4528 68.1605 32.5756 68.5989 32.644L68.6645 32.6502C68.8896 32.6711 69.0983 32.7766 69.2487 32.9454C69.399 33.1141 69.4798 33.3337 69.4746 33.5597C69.4694 33.7856 69.3788 34.0013 69.2209 34.163C69.063 34.3248 68.8496 34.4206 68.6238 34.4312H68.6243Z" fill="#DFB21E"/>
<path d="M64.8881 37.03C65.9956 37.03 66.8934 36.1322 66.8934 35.0248C66.8934 33.9173 65.9956 33.0195 64.8881 33.0195C63.7806 33.0195 62.8828 33.9173 62.8828 35.0248C62.8828 36.1322 63.7806 37.03 64.8881 37.03Z" fill="#DFB21E"/>
<path d="M58.0709 36.8889H54C53.6519 36.8889 53.3181 36.7506 53.0719 36.5045C52.8258 36.2584 52.6875 35.9245 52.6875 35.5764C52.6875 35.2283 52.8258 34.8945 53.0719 34.6483C53.3181 34.4022 53.6519 34.2639 54 34.2639H58.0709C58.419 34.2639 58.7529 34.4022 58.999 34.6483C59.2452 34.8945 59.3834 35.2283 59.3834 35.5764C59.3834 35.9245 59.2452 36.2584 58.999 36.5045C58.7529 36.7506 58.419 36.8889 58.0709 36.8889Z" fill="#DFB21E"/>
<path d="M103.561 69.7607C101.809 65.6957 98.8932 62.2399 95.1812 59.8284C91.4691 57.4168 87.1266 56.1573 82.7003 56.2085C82.5359 55.6229 82.2579 55.0755 81.882 54.5974C80.8282 53.247 79.6485 53.0162 78.7005 52.831C78.0834 52.7102 77.5503 52.6059 76.9585 52.2007C76.0593 51.585 75.9901 51.1488 75.8388 50.1935C75.7379 49.3425 75.4939 48.5146 75.1169 47.745C74.6059 46.7477 73.6432 46.0278 72.395 45.645C72.4149 45.5794 72.4357 45.516 72.4551 45.451C72.8334 45.5257 73.218 45.5638 73.6036 45.5647C74.3291 45.5631 75.0484 45.4317 75.7276 45.1769C76.593 44.8487 77.3841 44.3507 78.0543 43.7124C78.7245 43.074 79.2602 42.3081 79.6301 41.4597C80.438 39.5642 80.6145 36.8489 79.2926 34.9628C81.9756 22.6159 78.2678 14.6053 74.6409 10.0395C70.1106 4.3354 63.1882 0.930115 56.1237 0.930115H56.0544C48.9887 0.930115 42.0675 4.3354 37.5367 10.0393C33.9099 14.6051 30.202 22.6155 32.885 34.9624C31.5627 36.8489 31.7394 39.5642 32.5475 41.4592C32.9174 42.3076 33.4532 43.0735 34.1234 43.7119C34.7935 44.3502 35.5846 44.8481 36.45 45.1762C37.1292 45.4311 37.8484 45.5624 38.5738 45.5641C38.9371 45.5633 39.2996 45.5291 39.6566 45.4619C39.6719 45.5129 39.6884 45.5632 39.7039 45.614C38.4078 45.9887 37.407 46.7208 36.882 47.7444C36.5051 48.514 36.2611 49.3418 36.1601 50.1928C36.0088 51.1481 35.9396 51.5843 35.0401 52.2003C34.4495 52.6052 33.9155 52.7096 33.2982 52.8303C32.3502 53.0156 31.1707 53.2459 30.117 54.5967C29.1422 55.8456 29.093 57.122 29.0534 58.1475C29.0204 59.0025 28.9878 59.4674 28.6513 59.8653C28.2208 60.3643 27.7144 60.7925 27.1507 61.1341C26.2488 61.7326 25.2257 62.4109 24.4739 64.5028C23.9707 65.9028 24.2551 67.0644 24.4844 67.9982C24.6889 68.8316 24.7764 69.2536 24.5329 69.7292C23.4866 71.7721 23.2685 73.5916 23.8848 75.1373C23.9867 75.3925 24.1106 75.6383 24.2551 75.8719C20.3924 83.4225 19.846 99.3031 19.5336 108.38L19.5321 108.425C19.518 108.836 19.5867 109.245 19.7342 109.629C19.8817 110.012 20.1049 110.362 20.3905 110.658C20.6761 110.953 21.0182 111.188 21.3966 111.349C21.7749 111.509 22.1817 111.592 22.5926 111.591H89.407C89.8179 111.592 90.2246 111.509 90.603 111.349C90.9813 111.188 91.3235 110.953 91.6091 110.658C91.8947 110.362 92.1179 110.012 92.2654 109.629C92.4128 109.245 92.4816 108.836 92.4675 108.425L92.466 108.38C92.3745 105.718 92.2625 102.47 92.0529 99.0191C92.1866 98.9599 92.3205 98.901 92.453 98.8391C97.7272 96.3937 101.839 91.9869 103.913 86.5562C105.988 81.1255 105.862 75.0996 103.561 69.7607ZM72.7817 48.9425C73.0299 49.4662 73.1869 50.0284 73.2461 50.605C73.4231 51.7223 73.6434 53.1129 75.4756 54.3675C76.2947 54.911 77.2239 55.2664 78.1967 55.4081C78.9726 55.5597 79.3622 55.636 79.8124 56.2133C79.8634 56.2786 79.9106 56.3469 79.9537 56.4178C77.6037 56.7474 75.321 57.4481 73.1908 58.4937C72.9173 58.6316 72.6119 58.6936 72.3063 58.6734C72.0008 58.6531 71.7062 58.5514 71.4533 58.3787L68.4179 56.2485C68.0321 55.9775 67.5728 55.8306 67.1013 55.8273C66.6298 55.824 66.1686 55.9645 65.779 56.2301C65.3894 56.4957 65.0901 56.8737 64.9209 57.3138C64.7517 57.7539 64.7206 58.2351 64.8319 58.6932L65.7898 62.6441C64.1236 61.616 63.4164 59.7837 63.0137 57.076C64.9838 56.0246 66.7812 54.6775 68.3433 53.0816C69.6792 51.7116 70.7058 50.0078 71.5023 48.1243C72.1618 48.3035 72.6105 48.6087 72.7817 48.9425ZM54.6495 33.8953C52.3805 31.0454 44.3858 30.6141 40.7152 30.7672C40.7891 30.1586 40.8703 29.5702 40.9433 29.0391C40.9985 28.6394 41.0494 28.271 41.0903 27.9453C41.1809 26.9949 41.1847 26.0382 41.1019 25.0871C41.0363 23.9662 40.9731 22.9075 41.3093 22.2252C41.777 21.2822 42.8331 20.6482 43.9509 19.9771C44.5902 19.6126 45.2041 19.2052 45.7884 18.7578C46.3775 18.2624 46.9301 17.7251 47.4417 17.15C48.311 16.2194 49.132 15.3403 50.1518 15.0281C50.4214 14.9502 50.7012 14.9134 50.9818 14.9187C51.6729 14.9481 52.3602 15.037 53.036 15.1845C54.027 15.4048 55.0396 15.5131 56.0548 15.5074C57.0699 15.5128 58.0825 15.4045 59.0735 15.1845C60.1673 14.9826 61.2015 14.7908 61.9654 15.0314C62.9778 15.3407 63.7988 16.2199 64.6679 17.1504C65.1793 17.7245 65.7314 18.261 66.3201 18.7556C66.9048 19.2037 67.5192 19.6117 68.1591 19.9767C69.2771 20.6478 70.3333 21.2817 70.7994 22.2219C71.1372 22.9071 71.0744 23.9658 71.0083 25.0876C70.9254 26.0387 70.9292 26.9953 71.0197 27.9457V27.9492C71.0604 28.2726 71.1111 28.6409 71.1663 29.0406C71.2395 29.5713 71.3194 30.1604 71.3946 30.7687C67.7428 30.6106 59.6961 31.0345 57.4183 33.8953C56.927 34.5126 56.4444 35.5808 56.937 37.1639C57.6963 39.6047 60.5842 42.1969 62.5617 42.7976C64.5496 43.4424 66.6807 43.5031 68.702 42.9726C69.3561 42.8154 69.9852 42.5685 70.5715 42.2387C69.8153 45.7551 68.5855 49.0728 66.4636 51.249C63.8465 53.8905 60.5445 55.7497 56.9287 56.6175C56.3534 56.7541 55.754 56.7541 55.1787 56.6175C51.5631 55.7496 48.2613 53.8904 45.6443 51.249C43.5274 49.0781 42.2974 45.7708 41.5405 42.2638C42.114 42.5809 42.7276 42.8193 43.3647 42.9726C45.3859 43.5032 47.517 43.4424 49.5048 42.7976C51.4825 42.1964 54.3706 39.6038 55.1301 37.1639C55.6234 35.5808 55.1409 34.5126 54.6495 33.8953ZM71.9901 33.4344C72.0996 33.4387 72.2065 33.4691 72.3019 33.523C72.3973 33.5769 72.4785 33.6528 72.5387 33.7444C72.63 33.899 72.686 34.0719 72.7028 34.2508C72.7196 34.4296 72.6967 34.6099 72.6358 34.7788C71.2487 39.1842 69.3743 40.1085 68.0858 40.4202C66.5205 40.8439 64.865 40.7972 63.326 40.2859C62.0665 39.9033 59.9168 37.9039 59.4437 36.3838C59.2608 35.796 59.42 35.5963 59.4721 35.5307C60.5064 34.232 65.6371 33.3515 69.877 33.3515C70.6168 33.3513 71.3303 33.3782 71.9899 33.4344H71.9901ZM51.4731 58.1829C52.4803 58.586 53.5154 58.9158 54.5701 59.1697C55.5459 59.4015 56.5624 59.4015 57.5381 59.1697C58.558 58.9242 59.5594 58.6076 60.535 58.2223C61.023 60.9588 62.0105 63.4786 64.5629 64.9714C64.709 65.0569 64.8717 65.1464 65.0463 65.2389C63.8198 66.8946 62.8276 68.7116 62.0978 70.6385L55.9992 75.1494L45.8764 67.6594C45.914 67.0149 45.959 66.366 46.0115 65.7125C46.5755 65.4421 47.0565 65.1956 47.4378 64.9725C50.0024 63.4714 50.9872 60.9346 51.4731 58.1829ZM77.2158 40.43C76.9853 40.95 76.6547 41.4195 76.2428 41.8118C75.8308 42.204 75.3457 42.5112 74.815 42.716C74.2721 42.9217 73.6855 42.9848 73.1112 42.8993C73.3577 41.7749 73.5565 40.6378 73.7206 39.5115C74.0782 39.3537 74.4746 39.3055 74.8596 39.373C75.1976 39.4436 75.5498 39.3783 75.8399 39.191C76.13 39.0038 76.3346 38.7097 76.4094 38.3727C76.4842 38.0356 76.4232 37.6826 76.2396 37.3902C76.056 37.0978 75.7645 36.8896 75.4284 36.8106C75.2006 36.7622 74.9692 36.7329 74.7365 36.7231C74.876 36.3527 75.0117 35.971 75.139 35.5666C75.1595 35.5009 75.1722 35.4353 75.1893 35.3697C75.854 35.4395 76.4735 35.7389 76.9413 36.2162C77.846 37.1354 77.7911 39.0803 77.2158 40.43ZM39.593 11.6721C43.63 6.5894 49.7841 3.55512 56.0552 3.55512H56.1246C62.3957 3.55512 68.5496 6.5894 72.5866 11.6721C75.7353 15.6358 78.9428 22.5161 76.9835 33.1382C76.3409 32.8768 75.656 32.7346 74.9624 32.7184C74.892 32.5677 74.8107 32.4222 74.7192 32.2831C74.5528 32.0362 74.3541 31.8127 74.1286 31.6183C74.0277 30.5782 73.8869 29.5555 73.7663 28.681C73.7127 28.2929 73.6633 27.9355 73.6239 27.6216C73.5554 26.8297 73.5566 26.0334 73.6276 25.2418C73.7112 23.8293 73.7978 22.3689 73.1514 21.0584C72.342 19.427 70.8373 18.5233 69.5094 17.726C68.9717 17.4206 68.4545 17.0804 67.9611 16.7075C67.4718 16.2903 67.0121 15.8395 66.5854 15.3584C65.5685 14.2699 64.4159 13.0357 62.7394 12.5232C61.3632 12.0936 59.9562 12.3532 58.5962 12.6041C57.7822 12.7889 56.9501 12.8828 56.1154 12.8844C56.0748 12.8822 56.0341 12.8822 55.9935 12.8844C55.1587 12.8827 54.3267 12.7889 53.5125 12.6046C52.1525 12.3537 50.7462 12.0945 49.3781 12.5215C47.6937 13.0362 46.5414 14.2704 45.5246 15.3589C45.0971 15.8406 44.6366 16.292 44.1465 16.7099C43.6537 17.082 43.1372 17.4216 42.6001 17.7264C41.2723 18.5237 39.7673 19.4274 38.9566 21.0617C38.312 22.3694 38.3984 23.8297 38.482 25.2422C38.553 26.0337 38.5543 26.8299 38.4859 27.6216C38.4463 27.9357 38.3971 28.2933 38.3433 28.6814C38.2243 29.545 38.0856 30.5535 37.9852 31.5803C37.7407 31.7833 37.5264 32.0201 37.3488 32.2836C37.2566 32.4239 37.1748 32.5708 37.104 32.723C36.4497 32.7505 35.805 32.8907 35.1983 33.1373C33.2407 22.517 36.443 15.6351 39.593 11.6721ZM37.3633 42.716C36.8326 42.5113 36.3474 42.204 35.9354 41.8118C35.5234 41.4196 35.1928 40.95 34.9623 40.43C34.3865 39.0806 34.3318 37.1354 35.2361 36.2171C35.6779 35.7662 36.2564 35.4739 36.8816 35.3859C36.8975 35.4465 36.9094 35.5077 36.9282 35.5681C37.0561 35.9745 37.1924 36.3578 37.3326 36.7296C37.1364 36.7425 36.9414 36.7699 36.7492 36.8115C36.5754 36.8423 36.4095 36.9079 36.2616 37.0043C36.1137 37.1007 35.9868 37.226 35.8884 37.3726C35.79 37.5192 35.7223 37.6842 35.6892 37.8576C35.656 38.031 35.6583 38.2094 35.6957 38.3819C35.7331 38.5545 35.8049 38.7177 35.9069 38.8619C36.0089 39.006 36.1389 39.1281 36.2891 39.2208C36.4394 39.3135 36.6068 39.3749 36.7814 39.4014C36.956 39.4279 37.1341 39.4189 37.3051 39.375C37.6665 39.3112 38.0385 39.3451 38.3824 39.4732C38.548 40.6144 38.7493 41.767 38.9991 42.9063C38.4464 42.9779 37.8847 42.9125 37.3633 42.716ZM39.432 34.7788C39.3711 34.6099 39.3481 34.4297 39.3649 34.2509C39.3816 34.0721 39.4375 33.8993 39.5287 33.7446C39.5889 33.653 39.6701 33.5772 39.7655 33.5233C39.8609 33.4694 39.9678 33.439 40.0773 33.4346C40.7373 33.3784 41.4504 33.3515 42.1913 33.3515C46.4313 33.3515 51.5621 34.232 52.5957 35.5307C52.6482 35.5963 52.8072 35.7962 52.6244 36.3838C52.1512 37.9039 50.0015 39.9033 48.742 40.2861C47.2031 40.7971 45.5478 40.8438 43.9826 40.4202C42.6935 40.1085 40.818 39.1845 39.432 34.7788ZM27.0352 67.3726C26.8333 66.5501 26.7209 66.0146 26.9451 65.3916C27.4034 64.1174 27.8297 63.8345 28.6034 63.3213C29.3747 62.8436 30.0675 62.2494 30.6573 61.56C31.5926 60.4535 31.6399 59.2311 31.6777 58.249C31.7127 57.3464 31.756 56.765 32.1876 56.212C32.638 55.6347 33.0276 55.5583 33.8035 55.4067C34.7762 55.2651 35.7055 54.9098 36.5246 54.3664C38.3568 53.1118 38.5769 51.7212 38.7541 50.6039C38.8133 50.0273 38.9704 49.4651 39.2185 48.9414C39.3979 48.5914 39.8848 48.2751 40.5966 48.099C41.3944 49.9914 42.4238 51.7037 43.765 53.0795C45.3002 54.6482 47.0631 55.9767 48.9942 57.02C48.5849 59.8115 47.8619 61.6811 46.1122 62.7045C45.9341 62.8086 45.7213 62.9232 45.4811 63.0453C45.1508 62.6248 44.7024 62.3126 44.1934 62.1489C43.6844 61.9852 43.1381 61.9774 42.6246 62.1265L40.8746 62.6224C40.0651 62.851 39.3101 63.2406 38.6548 63.7679C37.9995 64.2952 37.4574 64.9494 37.0609 65.6913C36.818 66.1551 36.6003 66.6317 36.4089 67.119C32.3806 68.9633 28.3757 71.0235 26.2151 73.1001C26.2015 73.113 26.1884 73.1277 26.1749 73.1408C26.2521 72.3626 26.489 71.6087 26.8709 70.9262C27.5714 69.5586 27.2741 68.3467 27.0352 67.373V67.3726ZM39.8881 76.2562C39.8565 75.9183 39.7271 75.5969 39.5159 75.3312C39.3047 75.0656 39.0206 74.8671 38.6985 74.7602C38.2783 74.6273 37.8675 74.4665 37.4687 74.279C37.582 72.9299 38.0523 69.4345 39.3815 66.9176C39.6116 66.4893 39.9258 66.1119 40.3052 65.8079C40.6847 65.504 41.1216 65.2797 41.5897 65.1486L43.341 64.6526C43.3546 64.6478 43.3693 64.6467 43.3834 64.6497C43.3975 64.6526 43.4106 64.6594 43.4211 64.6693C43.4343 64.6794 43.4445 64.6928 43.4507 64.7082C43.4569 64.7236 43.4588 64.7404 43.4563 64.7568C42.3392 77.3439 44.0128 87.9771 45.7904 99.2283C41.8369 92.7006 37.9771 85.5266 36.9855 79.3787C37.1113 79.2098 37.5507 78.752 38.996 77.9489C39.293 77.7838 39.5355 77.5359 39.6939 77.2353C39.8523 76.9347 39.9198 76.5945 39.8881 76.2562ZM32.3209 108.966L31.4172 81.223C31.4116 81.0507 31.3721 80.8812 31.301 80.7242C31.2299 80.5672 31.1286 80.4257 31.0028 80.3078C30.877 80.19 30.7293 80.0981 30.568 80.0373C30.4067 79.9766 30.235 79.9482 30.0627 79.9538C29.8904 79.9594 29.7209 79.9989 29.5639 80.07C29.4069 80.1411 29.2654 80.2424 29.1476 80.3682C29.0297 80.4939 28.9378 80.6417 28.877 80.803C28.8163 80.9643 28.7879 81.136 28.7935 81.3083L29.6945 108.966H22.5933C22.5347 108.966 22.4766 108.955 22.4226 108.932C22.3687 108.909 22.3198 108.876 22.279 108.833C22.2382 108.791 22.2063 108.742 22.1851 108.687C22.1639 108.632 22.1539 108.574 22.1558 108.515L22.1575 108.472C22.4533 99.8596 23.1463 79.6917 28.0336 74.9943C29.5587 73.5286 32.3758 71.9615 35.4004 70.4981C35.0788 71.9145 34.8825 73.3566 34.8139 74.8075C34.819 75.5928 35.3263 76.1326 36.2091 76.5879C35.0439 77.4167 34.1791 78.4009 34.3644 79.6099C35.655 88.0257 41.8085 97.8891 46.8146 105.863C46.966 106.892 47.1114 107.926 47.251 108.967L32.3209 108.966ZM62.101 108.966H49.8992C49.732 107.715 45.5209 80.6936 45.7471 70.8293L55.219 77.8363C55.4397 78.0001 55.7065 78.0902 55.9814 78.0937C56.2563 78.0972 56.5253 78.014 56.7502 77.856C56.7561 77.8522 58.9928 76.1985 60.9701 74.7366C60.1448 79.4838 60.8676 84.3706 63.0318 88.6756C63.5292 89.6609 64.0975 90.6087 64.7324 91.5117C64.3802 93.9564 62.2682 107.715 62.101 108.966ZM79.6791 108.966H64.7492C64.8897 107.928 65.0355 106.893 65.1867 105.863C66.8993 103.135 68.7425 100.184 70.4822 97.1469C72.3984 98.4302 74.4993 99.4135 76.7122 100.063C77.7718 100.375 78.8535 100.606 79.948 100.755L79.6791 108.966ZM66.2098 99.2276C66.4747 97.5502 66.7329 95.8884 66.9838 94.2301C67.4294 94.6877 67.8941 95.1247 68.3779 95.541C67.67 96.7848 66.9426 98.0179 66.2098 99.2276ZM89.7222 108.833C89.6814 108.875 89.6325 108.909 89.5783 108.932C89.5241 108.955 89.4658 108.967 89.407 108.966H82.3057L82.5666 100.954C82.6915 100.956 82.8162 100.961 82.9409 100.961C85.1536 100.96 87.3539 100.63 89.47 99.983C89.6635 103.27 89.7664 106.254 89.8418 108.47L89.8436 108.514C89.8459 108.573 89.8364 108.631 89.8155 108.686C89.7947 108.741 89.7629 108.791 89.7222 108.833ZM101.095 86.5119C99.9641 89.0876 98.2961 91.392 96.2025 93.2708C94.109 95.1496 91.6382 96.5595 88.9556 97.4061C86.273 98.2527 83.4406 98.5164 80.6478 98.1796C77.855 97.8429 75.1664 96.9134 72.762 95.4534C70.3575 93.9934 68.2927 92.0366 66.7058 89.7139C65.1189 87.3913 64.0464 84.7565 63.5603 81.9858C63.0741 79.2151 63.1855 76.3726 63.8869 73.6484C64.5883 70.9243 65.8636 68.3814 67.6273 66.19C68.0378 65.6765 68.3256 65.0761 68.4687 64.4344C68.6119 63.7928 68.6066 63.127 68.4533 62.4877L67.5742 58.8628L69.9456 60.5268C70.5828 60.9693 71.3269 61.2328 72.1005 61.2898C72.8741 61.3469 73.6489 61.1954 74.344 60.8512C77.9765 59.0771 82.0659 58.4608 86.0598 59.0854C90.0538 59.71 93.7598 61.5456 96.677 64.344C99.5943 67.1425 101.582 70.769 102.372 74.7335C103.162 78.698 102.717 82.8096 101.095 86.5126V86.5119Z" fill="#DFB21E"/>
<path d="M93.4747 70.0265C93.1992 70.0267 92.9245 70.055 92.6548 70.1109C91.2025 70.4124 89.75 71.1211 88.3087 72.2291C88.2398 69.4807 87.6028 67.2215 86.4012 65.4795C86.0499 64.9221 85.5632 64.4628 84.9863 64.1444C84.4094 63.8261 83.7613 63.6591 83.1024 63.6591C82.4436 63.6591 81.7954 63.8261 81.2186 64.1444C80.6417 64.4628 80.1549 64.9221 79.8037 65.4795C78.6021 67.2215 77.9651 69.4807 77.8962 72.2291C76.4549 71.1211 75.0024 70.4124 73.5501 70.1109C73.2805 70.055 73.0059 70.0267 72.7306 70.0265C72.0632 70.0306 71.4072 70.2007 70.8218 70.5213C70.2364 70.842 69.7399 71.3032 69.3771 71.8635C69.0142 72.4237 68.7964 73.0654 68.7433 73.7308C68.6901 74.3961 68.8032 75.0643 69.0725 75.675C69.7744 77.268 70.9445 78.8202 72.5677 80.3156C72.0712 80.5073 71.5955 80.7491 71.1482 81.0375C70.4924 81.462 69.9747 82.0687 69.6588 82.7832C69.3429 83.4978 69.2425 84.2889 69.3698 85.0597C69.4971 85.8305 69.8467 86.5474 70.3757 87.1223C70.9046 87.6972 71.5899 88.1052 72.3474 88.2963C73.1946 88.5044 74.0644 88.6061 74.9367 88.599C75.3777 88.599 75.8349 88.5765 76.3083 88.5314C76.4148 88.9324 76.5839 89.3141 76.8094 89.6624C77.1823 90.2333 77.6907 90.703 78.2894 91.0296C78.888 91.3561 79.5582 91.5292 80.2401 91.5335C80.7726 91.534 81.2998 91.4269 81.7899 91.2188V93.0263C81.7899 93.3744 81.9282 93.7082 82.1744 93.9544C82.4205 94.2005 82.7544 94.3388 83.1024 94.3388C83.4505 94.3388 83.7844 94.2005 84.0305 93.9544C84.2767 93.7082 84.4149 93.3744 84.4149 93.0263V91.2936C84.9342 91.537 85.5005 91.6639 86.0739 91.6655C86.7121 91.6638 87.3408 91.5115 87.909 91.2211C88.4772 90.9306 88.9689 90.5102 89.344 89.994C89.6608 89.56 89.8853 89.0658 90.0038 88.5417C90.4385 88.5802 90.86 88.5995 91.2682 88.5995C92.1405 88.6065 93.0103 88.5048 93.8575 88.2967C94.615 88.1057 95.3003 87.6978 95.8293 87.1228C96.3582 86.5479 96.7078 85.8311 96.8352 85.0603C96.9625 84.2895 96.8621 83.4983 96.5461 82.7838C96.2302 82.0693 95.7125 81.4626 95.0567 81.0381C94.6094 80.7497 94.1338 80.5078 93.6372 80.3163C95.2604 78.8209 96.4304 77.2686 97.1324 75.6757C97.4017 75.065 97.5148 74.3969 97.4616 73.7315C97.4085 73.0662 97.1907 72.4246 96.8279 71.8643C96.4652 71.3041 95.9687 70.8428 95.3834 70.5221C94.798 70.2014 94.1421 70.0313 93.4747 70.0271V70.0265ZM94.7303 74.6165C93.5928 77.1978 90.8994 79.3724 88.6847 80.8168C88.5469 80.907 88.4417 81.0392 88.3846 81.1938C88.3276 81.3484 88.3218 81.5173 88.3681 81.6754C88.4143 81.8336 88.5102 81.9727 88.6415 82.0722C88.7729 82.1717 88.9327 82.2264 89.0975 82.2281H89.1119C89.1911 82.2268 89.2705 82.2262 89.3506 82.2262C90.8243 82.2262 92.424 82.4578 93.6289 83.2392C93.8567 83.386 94.0364 83.5964 94.146 83.8443C94.2555 84.0921 94.2901 84.3666 94.2454 84.6339C94.2007 84.9012 94.0786 85.1495 93.8943 85.3482C93.7101 85.5469 93.4716 85.6873 93.2085 85.752C92.5735 85.9059 91.9219 85.9802 91.2686 85.9731C90.171 85.9571 89.0785 85.8201 88.011 85.5645C87.9527 85.551 87.893 85.5442 87.8331 85.5442C87.7013 85.5437 87.5716 85.5773 87.4566 85.6417C87.3416 85.706 87.2452 85.799 87.1766 85.9116C87.108 86.0242 87.0697 86.1525 87.0653 86.2843C87.0609 86.416 87.0906 86.5466 87.1515 86.6635C87.2519 86.8475 87.3354 87.0403 87.4009 87.2395C87.4677 87.4473 87.4841 87.6681 87.4489 87.8836C87.4136 88.099 87.3277 88.303 87.1982 88.4788C87.0686 88.6545 86.8992 88.797 86.7038 88.8944C86.5084 88.9918 86.2927 89.0414 86.0744 89.0391C85.7336 89.0377 85.4061 88.9071 85.1578 88.6736C84.7484 88.2811 84.3807 87.8472 84.0606 87.379C83.9622 87.2085 83.8206 87.0669 83.65 86.9685C83.4794 86.8701 83.2859 86.8185 83.089 86.8188C82.8921 86.8191 82.6987 86.8714 82.5285 86.9703C82.3582 87.0692 82.217 87.2112 82.1192 87.3821C81.8592 87.7588 81.5725 88.1165 81.2614 88.4522C81.1319 88.5945 80.9743 88.7084 80.7986 88.7868C80.6229 88.8651 80.4329 88.9063 80.2405 88.9077C80.0022 88.9111 79.7668 88.8543 79.5563 88.7424C79.3458 88.6305 79.167 88.4672 79.0366 88.2677C78.9061 88.0681 78.8282 87.8389 78.8101 87.6012C78.792 87.3635 78.8343 87.1251 78.9331 86.9081C78.9705 86.8247 79.0109 86.7431 79.054 86.664C79.115 86.547 79.1448 86.4163 79.1405 86.2845C79.1361 86.1527 79.0978 86.0243 79.0292 85.9116C78.9606 85.799 78.8641 85.7059 78.749 85.6416C78.6339 85.5772 78.5041 85.5436 78.3722 85.5442C78.3123 85.5443 78.2525 85.5511 78.1941 85.5645C77.1268 85.8201 76.0345 85.9571 74.9372 85.9731C74.2839 85.9802 73.6322 85.9059 72.9973 85.752C72.7341 85.6873 72.4957 85.5469 72.3114 85.3482C72.1271 85.1495 72.0051 84.9012 71.9604 84.6339C71.9157 84.3666 71.9502 84.0921 72.0598 83.8443C72.1693 83.5964 72.3491 83.386 72.5769 83.2392C73.7817 82.4578 75.3814 82.2262 76.8552 82.2262C76.935 82.2262 77.0149 82.2262 77.0938 82.2281H77.1083C77.2731 82.2264 77.4331 82.1718 77.5645 82.0722C77.6959 81.9726 77.7918 81.8334 77.838 81.6752C77.8842 81.5169 77.8783 81.348 77.8212 81.1933C77.764 81.0387 77.6586 80.9065 77.5206 80.8163C75.306 79.3726 72.6125 77.1971 71.475 74.6161C71.3818 74.4049 71.3423 74.174 71.3599 73.9438C71.3776 73.7137 71.4518 73.4915 71.5761 73.297C71.7004 73.1025 71.8708 72.9417 72.0723 72.829C72.2737 72.7163 72.4999 72.6552 72.7306 72.651C72.8269 72.6512 72.9229 72.6612 73.0172 72.6808C75.572 73.2108 77.9203 75.5547 79.572 77.6569C79.6418 77.7498 79.7322 77.8252 79.836 77.8772C79.9399 77.9292 80.0544 77.9564 80.1705 77.9566C80.2844 77.9582 80.3972 77.9344 80.5007 77.887C80.6043 77.8396 80.696 77.7698 80.7693 77.6827C80.8426 77.5955 80.8955 77.4931 80.9244 77.383C80.9533 77.2728 80.9573 77.1576 80.9362 77.0457C80.3696 73.8835 80.1154 69.6502 81.9643 66.9699C82.0737 66.763 82.2374 66.5899 82.4378 66.4691C82.6382 66.3484 82.8678 66.2846 83.1018 66.2846C83.3358 66.2846 83.5653 66.3484 83.7658 66.4691C83.9662 66.5899 84.1299 66.763 84.2393 66.9699C86.0886 69.6502 85.8344 73.8835 85.2674 77.0457C85.2463 77.1576 85.2503 77.2728 85.2792 77.383C85.308 77.4931 85.361 77.5955 85.4343 77.6827C85.5076 77.7698 85.5993 77.8396 85.7028 77.887C85.8064 77.9344 85.9192 77.9582 86.033 77.9566C86.1492 77.9564 86.2636 77.9292 86.3675 77.8772C86.4713 77.8252 86.5616 77.7498 86.6313 77.6569C88.2831 75.5547 90.6314 73.2108 93.1862 72.6808C93.2804 72.6612 93.3764 72.6512 93.4727 72.651C93.7036 72.6549 93.93 72.7158 94.1316 72.8284C94.3332 72.9409 94.5039 73.1016 94.6284 73.2961C94.7529 73.4906 94.8274 73.7128 94.8451 73.9431C94.8629 74.1733 94.8235 74.4043 94.7303 74.6156V74.6165Z" fill="#DFB21E"/>
</svg>
