<svg width="112" height="112" viewBox="0 0 112 112" fill="none" xmlns="http://www.w3.org/2000/svg">
<path d="M72.2312 90.6957L72.1969 90.7062C72.0237 90.7572 71.8632 90.8442 71.726 90.9615C71.5888 91.0788 71.4779 91.2238 71.4006 91.3869C71.3233 91.5501 71.2813 91.7277 71.2774 91.9082C71.2736 92.0887 71.3079 92.268 71.3781 92.4343C72.2676 94.5016 72.9409 96.6554 73.3873 98.8612C72.1573 96.3915 70.6731 94.0569 68.9587 91.8951C68.7694 91.6585 68.5023 91.4965 68.205 91.4379C67.9076 91.3792 67.5991 91.4277 67.3341 91.5746L67.2903 91.5991C67.1261 91.6889 66.9835 91.8134 66.8726 91.9641C66.7617 92.1148 66.6851 92.288 66.6482 92.4715C66.6113 92.6549 66.615 92.8442 66.6591 93.0261C66.7032 93.2079 66.7866 93.3779 66.9034 93.5241C69.7198 97.0576 71.9473 101.295 73.67 106.393C73.7851 106.735 74.0172 107.025 74.3253 107.212C74.6334 107.4 74.9977 107.472 75.3541 107.417C75.7105 107.362 76.0361 107.183 76.2735 106.912C76.5109 106.641 76.645 106.294 76.652 105.934C76.739 100.942 75.7649 95.9879 73.7942 91.4005C73.6668 91.1107 73.4366 90.8783 73.148 90.7481C72.8594 90.618 72.5328 90.5993 72.2312 90.6957Z" fill="#DFB21E"/>
<path d="M105.324 80.9301C105.164 80.6032 105.003 80.2725 104.841 79.9378C102.471 75.0636 99.717 69.4022 95.5934 65.9553C95.4366 65.8252 95.2504 65.7353 95.051 65.6934C94.8515 65.6516 94.6449 65.6589 94.449 65.715C94.2531 65.771 94.0738 65.874 93.9267 66.015C93.7796 66.156 93.669 66.3307 93.6047 66.5241C93.5925 66.5607 93.5799 66.5971 93.5671 66.6334C93.4861 66.8754 93.481 67.1363 93.5524 67.3812C93.6239 67.6261 93.7686 67.8433 93.967 68.0037C97.0864 70.6182 99.4047 74.8477 101.476 79.0322C101.164 78.8729 100.847 78.7125 100.526 78.5509C97.6888 77.1175 94.6178 75.5617 91.9015 73.1192C91.6601 72.9032 91.3467 72.7852 91.0227 72.7882C90.6988 72.7912 90.3876 72.9151 90.1502 73.1356L90.1308 73.1533C89.9985 73.2752 89.8932 73.4234 89.8216 73.5883C89.75 73.7533 89.7136 73.9314 89.7149 74.1113C89.7161 74.2911 89.755 74.4687 89.8289 74.6327C89.9028 74.7967 90.0102 74.9434 90.1441 75.0634C93.1364 77.754 96.4568 79.436 99.3425 80.894C100.726 81.5929 102.033 82.2531 103.171 82.9528C103.461 83.1337 103.803 83.2114 104.143 83.1736C104.482 83.1358 104.799 82.9846 105.043 82.7444C105.273 82.5095 105.425 82.2081 105.475 81.8825C105.526 81.557 105.473 81.2238 105.324 80.9301Z" fill="#DFB21E"/>
<path d="M96.9911 22.3422C96.6888 22.2163 96.3549 22.1874 96.0355 22.2597C95.7161 22.332 95.4271 22.5018 95.2085 22.7456C93.5178 24.5312 90.7187 25.6315 86.8871 26.0157C86.7357 26.0308 86.322 26.0417 85.8657 26.0496C85.6979 26.0536 85.5325 26.0911 85.3793 26.1599C85.2261 26.2286 85.0882 26.3272 84.9736 26.4499C84.859 26.5727 84.77 26.717 84.7119 26.8745C84.6537 27.032 84.6276 27.1996 84.635 27.3673C84.635 27.3765 84.635 27.3857 84.635 27.3949C84.6334 27.563 84.6654 27.7297 84.729 27.8853C84.7925 28.041 84.8865 28.1823 85.0053 28.3013C85.1241 28.4202 85.2655 28.5142 85.421 28.5779C85.5766 28.6416 85.7433 28.6736 85.9114 28.6722C86.4347 28.6628 86.9347 28.6488 87.1487 28.6273C89.4843 28.3933 91.5143 27.9076 93.2247 27.1766C92.0378 28.6556 90.5305 29.8457 88.8164 30.6569C88.4596 30.8228 88.0945 30.9706 87.7227 31.0996C87.5237 31.1708 87.346 31.2912 87.2061 31.4495C87.0661 31.6078 86.9684 31.7989 86.9221 32.005C86.8757 32.2112 86.8823 32.4257 86.941 32.6287C86.9998 32.8316 87.1089 33.0165 87.2583 33.1659C87.2777 33.1856 87.297 33.2055 87.3162 33.2254C87.4812 33.401 87.693 33.5257 87.9265 33.5847C88.1601 33.6438 88.4056 33.6347 88.6342 33.5586C89.0723 33.4062 89.5024 33.2321 89.9231 33.0367C91.7602 32.173 93.4056 30.9498 94.7619 29.4394C96.1183 27.929 97.1581 26.162 97.82 24.2429C97.9471 23.88 97.9323 23.4824 97.7785 23.1299C97.6248 22.7774 97.3436 22.496 96.9911 22.3422Z" fill="#DFB21E"/>
<path d="M48.57 93.5988C48.4411 93.4117 48.2653 93.2618 48.0603 93.164C47.8552 93.0662 47.6281 93.0239 47.4016 93.0413C47.1751 93.0587 46.9571 93.1353 46.7695 93.2633C46.5818 93.3913 46.4311 93.5664 46.3322 93.7709L45.1155 96.2938C45.0961 96.3342 45.0767 96.3751 45.0571 96.4167C45.079 95.5659 45.1256 94.7169 45.1969 93.8698C45.2158 93.6602 45.1834 93.4492 45.1024 93.255C45.0213 93.0608 44.8942 92.8893 44.7319 92.7553C44.5696 92.6213 44.3771 92.529 44.1711 92.4862C43.9651 92.4434 43.7517 92.4515 43.5495 92.5098L43.5189 92.519C43.2647 92.5926 43.0389 92.7416 42.8712 92.9463C42.7036 93.151 42.602 93.4018 42.58 93.6655C42.2951 97.1025 42.3884 100.56 42.8582 103.977C42.9089 104.343 43.0904 104.679 43.3691 104.922C43.6478 105.165 44.005 105.299 44.3748 105.299H44.4024C44.7772 105.293 45.1365 105.148 45.4123 104.894C45.6881 104.641 45.8613 104.294 45.8991 103.921C46.1498 101.451 46.7702 98.905 47.48 97.4334L48.6893 94.9259C48.7889 94.7198 48.8322 94.4908 48.8147 94.2625C48.7971 94.0342 48.7193 93.8146 48.5893 93.6261L48.57 93.5988Z" fill="#DFB21E"/>
<path d="M23.8589 35.2294C23.9378 34.9174 23.898 34.5872 23.7471 34.3029C23.5963 34.0186 23.3452 33.8005 23.0425 33.691C22.2378 33.4062 21.4761 33.0119 20.7791 32.5191C19.8997 31.8922 17.3375 29.6316 15.2666 26.5965C17.8763 28.7657 20.7879 30.5435 23.9099 31.8738C24.072 31.9431 24.2466 31.9783 24.4229 31.9774C24.5991 31.9765 24.7734 31.9394 24.9347 31.8684C25.0961 31.7974 25.2412 31.6941 25.361 31.5648C25.4809 31.4355 25.5729 31.283 25.6314 31.1167L25.6456 31.0767C25.7558 30.7693 25.7449 30.4316 25.6152 30.1319C25.4855 29.8323 25.2467 29.5932 24.9472 29.4632C20.0776 27.3746 14.7007 23.6287 12.7433 19.3963C12.589 19.0639 12.3205 18.7978 11.9866 18.6465C11.6528 18.4952 11.2757 18.4687 10.924 18.5717C10.5722 18.6748 10.2691 18.9006 10.0697 19.2081C9.87029 19.5156 9.78781 19.8845 9.83723 20.2477C10.8048 27.3267 17.5132 33.414 19.2566 34.6568C20.1484 35.2901 21.122 35.7994 22.1509 36.1707C22.3217 36.2328 22.5037 36.2582 22.685 36.2453C22.8663 36.2324 23.0429 36.1816 23.2033 36.096C23.3636 36.0105 23.5042 35.8921 23.6159 35.7487C23.7276 35.6053 23.8078 35.44 23.8514 35.2636L23.8589 35.2294Z" fill="#DFB21E"/>
<path d="M12.4365 19.8914V19.8924L12.437 19.8946L12.4365 19.8914Z" fill="#DFB21E"/>
<path d="M52.1578 36.4C51.9343 36.3915 51.7124 36.4407 51.5135 36.5429C51.3145 36.6452 51.1453 36.797 51.0221 36.9836C50.9252 37.1276 50.8128 37.2846 50.6826 37.4561C49.0787 39.6309 47.8118 42.035 46.9247 44.5874C45.6755 48.0534 45.0743 51.7196 45.1513 55.403C42.7571 50.4884 42.7474 44.8779 43.697 40.9389C44.2618 38.5934 45.0603 37.0125 46.1448 35.8969C46.5434 35.4735 47.0237 35.1353 47.5567 34.9028C48.0897 34.6704 48.6644 34.5484 49.2458 34.5444C49.534 34.5405 49.8128 34.441 50.0382 34.2614C50.2637 34.0818 50.423 33.8324 50.4912 33.5523C50.4934 33.5434 50.4958 33.5346 50.4982 33.5256C50.5549 33.3374 50.5673 33.1385 50.5346 32.9447C50.5019 32.7508 50.4249 32.5671 50.3096 32.4078C50.1943 32.2486 50.0437 32.1181 49.8698 32.0265C49.6958 31.9349 49.503 31.8847 49.3064 31.8798C47.4189 31.9128 45.62 32.686 44.2971 34.0327C42.8314 35.4863 41.8296 37.4848 41.1455 40.3226C39.7558 46.0882 40.2204 55.0679 46.1039 61.4014C46.2998 61.6121 46.5596 61.7527 46.8431 61.8014C47.1267 61.8501 47.4184 61.8042 47.6734 61.6709C47.9284 61.5376 48.1325 61.3242 48.2543 61.0635C48.3762 60.8028 48.4089 60.5094 48.3477 60.2282C47.3167 55.3106 47.6789 50.2028 49.3935 45.4799C50.1907 43.1772 51.3301 41.0077 52.7732 39.0443C52.92 38.8513 53.0687 38.6472 53.2122 38.4335C53.3432 38.2418 53.4204 38.0186 53.4359 37.7869C53.4515 37.5553 53.4048 37.3237 53.3006 37.1162C53.1965 36.9087 53.0387 36.7329 52.8437 36.607C52.6487 36.481 52.4235 36.4096 52.1915 36.4H52.1578Z" fill="#DFB21E"/>
<path d="M82.9786 70.3299C82.7729 70.3299 82.5701 70.2815 82.3865 70.1887C82.203 70.0959 82.0438 69.9612 81.9218 69.7955C80.7782 68.2424 79.6396 66.5528 78.4339 64.7643C73.8839 58.0099 68.7266 50.3546 61.3138 47.3772C60.9941 47.2452 60.7393 46.9923 60.605 46.6735C60.4707 46.3547 60.4677 45.9958 60.5966 45.6748C60.7255 45.3537 60.976 45.0966 61.2935 44.9593C61.611 44.8219 61.9699 44.8155 62.2921 44.9414C70.4532 48.2191 75.8498 56.2289 80.6111 63.2973L80.9657 63.8239C78.7749 55.4326 71.8145 43.0776 63.92 40.7611C62.9794 40.485 60.3658 40.788 59.5846 42.3214C59.5064 42.475 59.3987 42.6117 59.2676 42.7236C59.1366 42.8356 58.9847 42.9206 58.8208 42.9739C58.6569 43.0272 58.4841 43.0477 58.3122 43.0342C58.1404 43.0206 57.9729 42.9734 57.8193 42.8952C57.6657 42.8169 57.5291 42.7092 57.4171 42.5782C57.3051 42.4471 57.2201 42.2953 57.1668 42.1314C57.1135 41.9674 57.0931 41.7946 57.1066 41.6228C57.1201 41.451 57.1673 41.2835 57.2455 41.1299C58.7398 38.1967 62.8033 37.6979 64.6594 38.2424C71.3265 40.1989 76.3698 47.5922 78.7824 51.825C82.2918 57.9819 84.5048 64.9187 84.2894 69.0861C84.2721 69.4221 84.1264 69.7385 83.8825 69.9702C83.6386 70.2019 83.315 70.331 82.9786 70.331V70.3299Z" fill="#DFB21E"/>
<path d="M65.9753 74.2958C65.3716 69.1246 62.728 64.4285 58.1075 60.3072C57.9251 60.1445 57.6532 59.9174 57.3559 59.6757C57.2084 59.5583 57.0363 59.4757 56.8524 59.434C56.6686 59.3922 56.4777 59.3925 56.2939 59.4346C56.1101 59.4768 55.9382 59.5598 55.791 59.6775C55.6437 59.7952 55.5248 59.9446 55.4432 60.1145C55.4377 60.1254 55.432 60.1364 55.4263 60.1473C55.2877 60.3979 55.2392 60.6885 55.2892 60.9705C55.3391 61.2525 55.4844 61.5088 55.7006 61.6965C60.2358 65.5216 62.8142 69.8559 63.368 74.6001C63.6787 77.4844 63.2607 80.4006 62.1522 83.0815C61.8442 78.1861 60.1329 72.2667 56.1635 68.1945C53.726 65.6935 53.1857 63.2118 53.1885 62.5396C53.1885 62.47 53.1907 62.4022 53.194 62.3357C53.2018 62.0755 53.131 61.8191 52.9907 61.5999C52.8503 61.3807 52.6471 61.209 52.4076 61.1072L52.3811 61.0949C52.1909 61.0099 51.9829 60.9724 51.775 60.9856C51.5672 60.9988 51.3656 61.0623 51.1876 61.1706C51.0097 61.279 50.8608 61.4289 50.7536 61.6075C50.6465 61.7862 50.5843 61.9881 50.5725 62.1961C50.5671 62.3055 50.5641 62.4161 50.5635 62.528C50.5574 63.8892 51.3342 67.0007 54.2823 70.0265C59.2374 75.1102 60.185 83.8038 59.2652 88.0788C59.2032 88.3671 59.2402 88.6678 59.37 88.9326C59.4999 89.1973 59.7151 89.4106 59.9809 89.5381C60.2468 89.6655 60.5479 89.6998 60.8356 89.6353C61.1233 89.5707 61.3809 89.4112 61.5669 89.1824C64.9325 85.0426 66.5799 79.4774 65.9753 74.2958Z" fill="#DFB21E"/>
<path d="M24.6233 82.9134C24.5093 82.7842 24.37 82.6797 24.2139 82.6065C24.0579 82.5333 23.8885 82.4929 23.7162 82.4878C23.5439 82.4828 23.3725 82.5132 23.2124 82.5771C23.0524 82.6411 22.9071 82.7372 22.7858 82.8596C19.0957 86.6622 15.8796 88.2105 12.9858 89.6017C12.5809 89.7966 12.1843 89.9872 11.7962 90.1794C15.3855 84.5558 18.9599 80.7714 22.1963 79.1849C22.5088 79.0316 22.7477 78.7605 22.8604 78.4311C22.973 78.1017 22.9502 77.7411 22.7969 77.4285C22.6437 77.116 22.3726 76.8771 22.0432 76.7644C21.7138 76.6518 21.3532 76.6746 21.0406 76.8278C16.9738 78.8215 12.75 83.4341 8.48763 90.5386C8.29988 90.8547 8.19877 91.2147 8.19448 91.5823C8.19019 91.9498 8.28287 92.3121 8.46319 92.6324C8.64351 92.9528 8.9051 93.22 9.22158 93.407C9.53806 93.594 9.89825 93.6944 10.2659 93.6978C10.6393 93.6967 11.0056 93.5953 11.3264 93.404C12.1738 92.9049 13.1201 92.4496 14.1233 91.9677C17.0808 90.5459 20.642 88.833 24.6712 84.6858C24.8953 84.4512 25.0191 84.1384 25.0164 83.814C25.0136 83.4896 24.8846 83.179 24.6565 82.9482C24.6452 82.9368 24.6341 82.9253 24.6233 82.9134Z" fill="#DFB21E"/>
<path d="M64.2524 12.4049C64.2135 12.4049 64.1743 12.4031 64.135 12.3999C63.7882 12.3691 63.4679 12.2019 63.2445 11.935C63.021 11.6681 62.9127 11.3234 62.9434 10.9767C63.0856 9.3728 62.7028 6.94227 61.158 5.37121C59.8785 4.07008 57.9424 3.50352 55.4009 3.68552C53.9696 3.78812 52.5279 4.63665 51.4457 6.01324C50.3719 7.37912 49.8138 9.06677 50.0238 10.3132C50.0816 10.6565 50.0007 11.0087 49.7988 11.2923C49.5969 11.5759 49.2906 11.7676 48.9474 11.8254C48.6041 11.8832 48.2519 11.8023 47.9683 11.6004C47.6847 11.3985 47.4929 11.0922 47.4351 10.749C47.1033 8.77693 47.8492 6.34071 49.382 4.39099C50.9203 2.43427 53.0456 1.22283 55.2126 1.0673C58.5557 0.826678 61.186 1.65574 63.0296 3.53065C65.1998 5.7374 65.7585 8.94362 65.5579 11.2088C65.5289 11.5351 65.3788 11.8388 65.1373 12.0601C64.8957 12.2815 64.5801 12.4044 64.2524 12.4049Z" fill="#DFB21E"/>
<path d="M40.0375 18.7946C39.7137 18.7941 39.4016 18.674 39.161 18.4574C38.9204 18.2408 38.7684 17.9429 38.7341 17.621C38.4172 14.6449 39.3425 11.7082 41.2097 9.76544C42.4831 8.44003 44.8502 6.91906 48.9001 7.18419C49.0721 7.19568 49.2401 7.24093 49.3946 7.31737C49.5491 7.3938 49.6871 7.49991 49.8006 7.62965C49.914 7.75939 50.0009 7.91021 50.0561 8.0735C50.1113 8.23679 50.1338 8.40936 50.1223 8.58135C50.1108 8.75333 50.0655 8.92137 49.9891 9.07587C49.9127 9.23037 49.8065 9.3683 49.6768 9.48178C49.5471 9.59527 49.3963 9.68209 49.233 9.7373C49.0697 9.7925 48.8971 9.81499 48.7251 9.8035C46.285 9.64119 44.3917 10.241 43.1013 11.5833C41.5274 13.221 41.1612 15.6321 41.3432 17.3418C41.3799 17.6879 41.2778 18.0344 41.0591 18.3051C40.8405 18.5759 40.5233 18.7487 40.1772 18.7856C40.1308 18.7909 40.0842 18.7939 40.0375 18.7946Z" fill="#DFB21E"/>
<path d="M74.0185 20.8118C73.8323 20.8117 73.6482 20.7721 73.4785 20.6955C73.3088 20.6189 73.1572 20.5071 73.034 20.3675C72.9107 20.228 72.8185 20.0638 72.7634 19.886C72.7083 19.7081 72.6917 19.5205 72.7145 19.3357C73.0276 16.842 72.1742 14.1673 70.5402 12.5238C69.0365 11.0116 66.9142 10.3698 64.4071 10.671C64.0614 10.7124 63.7135 10.6148 63.4398 10.3996C63.1661 10.1844 62.9891 9.86935 62.9478 9.52369C62.9064 9.17803 63.0041 8.83009 63.2192 8.55643C63.4344 8.28276 63.7495 8.10577 64.0951 8.06441C68.3155 7.56128 70.942 9.20431 72.4017 10.673C74.6172 12.9016 75.7352 16.3463 75.319 19.6636C75.279 19.9805 75.1249 20.2719 74.8855 20.4832C74.6461 20.6946 74.3378 20.8114 74.0185 20.8118Z" fill="#DFB21E"/>
<path d="M82.0206 34.2436C81.9351 34.2435 81.8499 34.2352 81.766 34.2189C81.5969 34.1856 81.4359 34.1194 81.2924 34.0239C81.1489 33.9285 81.0255 33.8057 80.9295 33.6626C80.8334 33.5195 80.7664 33.3589 80.7324 33.1899C80.6984 33.0209 80.698 32.8469 80.7313 32.6778C81.3836 29.3591 80.9829 26.6153 79.54 24.5228C77.5826 21.684 74.307 20.8535 72.9893 20.629C72.8189 20.6005 72.6558 20.5386 72.5094 20.4469C72.363 20.3552 72.2361 20.2355 72.1361 20.0947C72.036 19.9539 71.9648 19.7947 71.9264 19.6262C71.888 19.4578 71.8832 19.2834 71.9124 19.1132C71.9415 18.9429 72.004 18.78 72.0962 18.6339C72.1884 18.4879 72.3085 18.3614 72.4497 18.2619C72.5909 18.1623 72.7504 18.0916 72.9189 18.0538C73.0875 18.016 73.2619 18.0119 73.4321 18.0416C75.0773 18.3229 79.1766 19.3727 81.7008 23.0335C83.5602 25.7305 84.1007 29.1458 83.3069 33.1848C83.2481 33.4829 83.0878 33.7514 82.8533 33.9444C82.6187 34.1375 82.3244 34.2432 82.0206 34.2436Z" fill="#DFB21E"/>
<path d="M31.7318 32.1978C31.454 32.1977 31.1835 32.1096 30.959 31.946C30.7346 31.7824 30.5678 31.5518 30.4827 31.2874C30.0874 30.06 28.9659 25.7311 31.1431 21.5633C32.7118 18.5601 35.5597 16.4106 39.6088 15.1758C39.94 15.0798 40.2958 15.1181 40.599 15.2824C40.9023 15.4467 41.1287 15.7237 41.2293 16.0536C41.3299 16.3835 41.2966 16.7398 41.1367 17.0453C40.9767 17.3509 40.7028 17.5811 40.3744 17.6864C37.024 18.7093 34.7009 20.4229 33.4698 22.7798C31.765 26.0435 32.665 29.5013 32.9813 30.4837C33.0445 30.6806 33.0604 30.8897 33.0275 31.0939C32.9947 31.2981 32.9141 31.4916 32.7923 31.6588C32.6706 31.8259 32.511 31.962 32.3267 32.0558C32.1425 32.1497 31.9386 32.1987 31.7318 32.1989V32.1978Z" fill="#DFB21E"/>
<path d="M87.8869 42.392C88.1019 42.1421 88.3705 41.9438 88.6726 41.8117C88.9747 41.6796 89.3026 41.6172 89.6321 41.629C89.9174 41.627 90.201 41.6739 90.4706 41.7675C90.3335 40.3265 89.9872 38.9132 89.4424 37.5721C88.0973 34.3223 85.711 32.0596 82.5411 31.0271C82.2111 30.9228 81.8532 30.953 81.5453 31.1113C81.2375 31.2696 81.0047 31.5431 80.8975 31.8722C80.7903 32.2014 80.8175 32.5595 80.9731 32.8687C81.1288 33.1779 81.4002 33.413 81.7284 33.523C84.7826 34.5177 86.2903 36.8196 87.0169 38.5762C87.5077 39.7939 87.8013 41.082 87.8869 42.392Z" fill="#DFB21E"/>
<path d="M89.1962 46.9657C88.903 46.9749 88.6108 46.9261 88.3365 46.8223C88.0621 46.7185 87.811 46.5616 87.5973 46.3606C87.3988 47.2755 87.0864 48.1619 86.6674 48.9992C86.5094 49.3094 86.4811 49.6696 86.5887 50.0007C86.6963 50.3318 86.9311 50.6066 87.2413 50.7646C87.5515 50.9226 87.9118 50.9509 88.2429 50.8433C88.5739 50.7356 88.8487 50.5009 89.0067 50.1907C89.5523 49.1043 89.9544 47.9516 90.2028 46.7616C89.8857 46.9006 89.5424 46.9701 89.1962 46.9657Z" fill="#DFB21E"/>
<path d="M34.9483 30.3815C34.91 30.0357 34.7361 29.7191 34.4648 29.5013C34.1934 29.2835 33.8467 29.1822 33.5008 29.2198C29.7768 29.6277 26.8703 31.388 25.0947 34.3103C23.5634 36.8309 23.1259 39.804 23.3565 42.4259C23.4562 42.3354 23.5534 42.2428 23.6452 42.1433C23.654 42.1299 23.664 42.1177 23.6726 42.1044C23.907 41.7234 24.2416 41.4141 24.6397 41.2103C25.0379 41.0064 25.4844 40.9158 25.9305 40.9483C25.9546 39.1718 26.3582 37.2866 27.3382 35.6735C28.6944 33.4423 30.8629 32.1497 33.7865 31.8292C33.9578 31.8105 34.1238 31.7581 34.2749 31.6752C34.426 31.5923 34.5593 31.4804 34.6672 31.346C34.7751 31.2116 34.8554 31.0572 34.9037 30.8917C34.9519 30.7262 34.967 30.5529 34.9483 30.3815Z" fill="#DFB21E"/>
<path d="M19.0713 66.8999C19.2587 66.6158 19.4314 66.3224 19.5889 66.0207C19.638 65.9271 19.6955 65.8381 19.7608 65.7549C19.7827 65.6994 19.8061 65.6436 19.8282 65.5878C19.9376 65.3155 20.0415 65.0409 20.1495 64.7697C20.2697 64.4289 20.4567 64.1155 20.6994 63.8477C20.9421 63.58 21.2357 63.3632 21.5631 63.2102C21.7665 61.7446 22.2725 60.5415 22.82 60.0003C23.0419 59.7814 23.1787 59.4906 23.2058 59.1801C23.2328 58.8695 23.1485 58.5595 22.9679 58.3054C22.0004 56.9444 21.4555 53.7992 22.2185 50.8915C22.4097 50.1477 22.7002 49.433 23.0821 48.7666C22.5624 48.9659 22.0309 49.133 21.4907 49.2671C21.0001 49.3998 20.4797 49.3691 20.0082 49.1796C19.8864 49.5169 19.7741 49.8632 19.6801 50.2246C18.9016 53.1908 19.1791 56.6648 20.3086 58.9466C19.0046 60.8899 18.508 64.0439 19.0713 66.8999Z" fill="#DFB21E"/>
<path d="M27.2412 72.016C25.2488 71.5877 23.947 70.6582 23.0948 69.6034C23.0606 69.652 23.0291 69.7023 22.9943 69.7502C22.6733 70.2048 22.2289 70.5581 21.7136 70.7682C21.6415 70.7981 21.5671 70.8255 21.4904 70.8505C21.2702 70.92 21.0393 70.95 20.8086 70.9391C22.169 72.7812 24.1763 74.0423 26.6897 74.5824C26.8586 74.6197 27.0332 74.6232 27.2035 74.5928C27.3738 74.5624 27.5364 74.4986 27.682 74.4051C27.8276 74.3117 27.9532 74.1903 28.0517 74.0481C28.1502 73.9059 28.2196 73.7456 28.256 73.5765C28.2923 73.4074 28.2949 73.2327 28.2635 73.0626C28.2321 72.8925 28.1674 72.7302 28.0731 72.5852C27.9788 72.4402 27.8567 72.3152 27.7139 72.2175C27.5712 72.1199 27.4105 72.0514 27.2412 72.016Z" fill="#DFB21E"/>
<path d="M30.3496 84.1651C30.7464 83.4949 31.0482 82.7727 31.2464 82.0194C30.1401 81.6834 29.1467 81.0511 28.374 80.1909C27.0278 78.6316 26.5857 76.2676 27.0615 73.1644C27.0899 72.993 27.0841 72.8177 27.0442 72.6486C27.0043 72.4795 26.9313 72.32 26.8293 72.1793C26.7273 72.0386 26.5984 71.9196 26.4501 71.8292C26.3018 71.7387 26.137 71.6786 25.9652 71.6523C25.7935 71.626 25.6182 71.6341 25.4497 71.6761C25.2811 71.718 25.1225 71.7931 24.9831 71.8968C24.8437 72.0005 24.7263 72.1309 24.6377 72.2803C24.5491 72.4298 24.4911 72.5953 24.4669 72.7674C23.8704 76.6644 24.5168 79.7392 26.388 81.9065C27.3879 83.0379 28.6623 83.8927 30.0886 84.3883C30.1684 84.3059 30.2557 84.2312 30.3496 84.1651Z" fill="#DFB21E"/>
<path d="M77.706 84.8643C77.2644 84.5866 76.8776 84.2299 76.565 83.8121C75.7608 85.3336 74.4623 86.5358 72.8835 87.2205C70.2121 88.3591 67.3141 87.7579 66.6161 87.4226C66.3357 87.288 66.0167 87.2573 65.7158 87.336C65.415 87.4146 65.1518 87.5976 64.9733 87.8522C62.2986 91.6679 57.8785 91.6703 56.1021 91.4955C53.1927 91.2076 50.4878 89.8258 49.8082 88.2799C49.6727 87.9718 49.424 87.7275 49.1135 87.5975C48.8029 87.4676 48.4544 87.4619 48.1398 87.5816C45.3982 88.6251 42.9528 88.864 40.8718 88.2915C39.2858 87.8331 37.864 86.9309 36.7737 85.6912C36.456 86.2269 36.1002 86.7391 35.7091 87.2238C35.5299 87.4381 35.2994 87.6037 35.0391 87.705C36.4363 89.1914 38.2119 90.2693 40.1753 90.8231C42.526 91.4695 45.167 91.3262 48.0387 90.3998C49.5131 92.3368 52.4708 93.7742 55.8437 94.1076C56.3515 94.1579 56.8516 94.1829 57.3441 94.1826C61.0718 94.1826 64.3183 92.7586 66.5148 90.1495C68.2088 90.594 71.1197 90.825 73.9125 89.6355C75.9902 88.7338 77.7092 87.1669 78.7989 85.1813C78.4141 85.1668 78.0389 85.0579 77.706 84.8643Z" fill="#DFB21E"/>
<path d="M92.5517 53.7031C91.4751 50.6321 89.2136 48.5958 87.45 47.9399C87.1238 47.8186 86.7627 47.8319 86.4462 47.9768C86.1297 48.1218 85.8837 48.3865 85.7624 48.7128C85.6411 49.0391 85.6544 49.4002 85.7993 49.7167C85.9442 50.0332 86.209 50.2791 86.5352 50.4004C87.722 50.8419 89.3188 52.4162 90.0746 54.5716C90.6353 56.1717 90.933 58.6976 89.1655 61.6435C89.0211 61.8845 88.9578 62.1654 88.985 62.4449C89.0121 62.7245 89.1282 62.988 89.3162 63.1967C89.7504 63.6779 90.2721 65.4655 89.7655 67.3118C89.2208 69.2965 87.6671 70.7396 85.2713 71.4844C85.0997 71.5378 84.9409 71.6258 84.8047 71.743C84.6685 71.8602 84.5579 72.0041 84.4796 72.1658C84.4013 72.3276 84.357 72.5036 84.3496 72.6832C84.3421 72.8627 84.3715 73.0418 84.4361 73.2095C84.9471 74.5362 84.9917 76.8237 83.8825 78.7106C83.7825 78.8786 83.6741 79.0414 83.5576 79.1984C83.6001 79.2348 83.6423 79.2711 83.6823 79.3115C83.9411 79.499 84.2014 79.6847 84.4433 79.8952C84.8388 80.249 85.1433 80.6928 85.331 81.1891C85.6336 80.8295 85.9059 80.4455 86.1452 80.0411C87.2664 78.075 87.6557 75.7756 87.244 73.5501C89.8401 72.4266 91.6151 70.492 92.2971 68.0065C92.8965 65.8212 92.5401 63.6374 91.8246 62.2646C93.6538 58.7525 93.2506 55.6979 92.5517 53.7031Z" fill="#DFB21E"/>
<path d="M56.9716 30.0645C57.6932 30.0645 58.2782 29.4796 58.2782 28.7579C58.2782 28.0363 57.6932 27.4514 56.9716 27.4514C56.25 27.4514 55.665 28.0363 55.665 28.7579C55.665 29.4796 56.25 30.0645 56.9716 30.0645Z" fill="#DFB21E"/>
<path d="M70.074 36.4247C71.001 36.4247 71.7524 35.6732 71.7524 34.7462C71.7524 33.8192 71.001 33.0677 70.074 33.0677C69.147 33.0677 68.3955 33.8192 68.3955 34.7462C68.3955 35.6732 69.147 36.4247 70.074 36.4247Z" fill="#DFB21E"/>
<path d="M65.534 19.672C66.132 19.672 66.6168 19.1872 66.6168 18.5892C66.6168 17.9911 66.132 17.5063 65.534 17.5063C64.936 17.5063 64.4512 17.9911 64.4512 18.5892C64.4512 19.1872 64.936 19.672 65.534 19.672Z" fill="#DFB21E"/>
<path d="M55.5652 50.2541C56.1633 50.2541 56.648 49.7693 56.648 49.1713C56.648 48.5733 56.1633 48.0885 55.5652 48.0885C54.9672 48.0885 54.4824 48.5733 54.4824 49.1713C54.4824 49.7693 54.9672 50.2541 55.5652 50.2541Z" fill="#DFB21E"/>
<path d="M36.6522 69.4488C37.2502 69.4488 37.735 68.964 37.735 68.366C37.735 67.7679 37.2502 67.2831 36.6522 67.2831C36.0541 67.2831 35.5693 67.7679 35.5693 68.366C35.5693 68.964 36.0541 69.4488 36.6522 69.4488Z" fill="#DFB21E"/>
<path d="M83.8436 58.268C84.4416 58.268 84.9264 57.7833 84.9264 57.1852C84.9264 56.5872 84.4416 56.1024 83.8436 56.1024C83.2455 56.1024 82.7607 56.5872 82.7607 57.1852C82.7607 57.7833 83.2455 58.268 83.8436 58.268Z" fill="#DFB21E"/>
<path d="M36.6522 39.1296C37.2502 39.1296 37.735 38.6448 37.735 38.0467C37.735 37.4487 37.2502 36.9639 36.6522 36.9639C36.0541 36.9639 35.5693 37.4487 35.5693 38.0467C35.5693 38.6448 36.0541 39.1296 36.6522 39.1296Z" fill="#DFB21E"/>
<path d="M44.0251 27.0143C44.9521 27.0143 45.7036 26.2628 45.7036 25.3358C45.7036 24.4088 44.9521 23.6573 44.0251 23.6573C43.0982 23.6573 42.3467 24.4088 42.3467 25.3358C42.3467 26.2628 43.0982 27.0143 44.0251 27.0143Z" fill="#DFB21E"/>
<path d="M46.989 76.6561C47.916 76.6561 48.6675 75.9047 48.6675 74.9777C48.6675 74.0507 47.916 73.2992 46.989 73.2992C46.062 73.2992 45.3105 74.0507 45.3105 74.9777C45.3105 75.9047 46.062 76.6561 46.989 76.6561Z" fill="#DFB21E"/>
<path d="M64.7878 62.423C65.7148 62.423 66.4663 61.6715 66.4663 60.7445C66.4663 59.8175 65.7148 59.066 64.7878 59.066C63.8609 59.066 63.1094 59.8175 63.1094 60.7445C63.1094 61.6715 63.8609 62.423 64.7878 62.423Z" fill="#DFB21E"/>
<path d="M53.3259 18.261C54.0717 18.261 54.6763 17.6565 54.6763 16.9107C54.6763 16.1649 54.0717 15.5604 53.3259 15.5604C52.5802 15.5604 51.9756 16.1649 51.9756 16.9107C51.9756 17.6565 52.5802 18.261 53.3259 18.261Z" fill="#DFB21E"/>
<path d="M56 111.781C55.6519 111.781 55.3181 111.643 55.0719 111.397C54.8258 111.151 54.6875 110.817 54.6875 110.469V93.2969C54.6875 92.9488 54.8258 92.6149 55.0719 92.3688C55.3181 92.1227 55.6519 91.9844 56 91.9844C56.3481 91.9844 56.6819 92.1227 56.9281 92.3688C57.1742 92.6149 57.3125 92.9488 57.3125 93.2969V110.469C57.3125 110.817 57.1742 111.151 56.9281 111.397C56.6819 111.643 56.3481 111.781 56 111.781Z" fill="#DFB21E"/>
<path d="M30.7606 46.2197C30.7319 46.0239 30.6577 45.8375 30.5441 45.6755C30.4304 45.5135 30.2805 45.3803 30.1062 45.2866C29.9319 45.1928 29.7381 45.1412 29.5402 45.1357C29.3424 45.1303 29.1461 45.1712 28.9669 45.2552C28.4971 45.4637 28.003 45.6124 27.4962 45.6977C22.3928 46.6561 14.3012 51.3172 8.80709 55.2628C12.3128 49.3883 18.979 42.2568 27.7793 42.2568C28.4398 42.2571 29.0997 42.2971 29.7555 42.3764C30.0804 42.4172 30.4087 42.3334 30.6742 42.1417C30.9398 41.9501 31.1228 41.6649 31.1865 41.3437L31.1931 41.3098C31.2275 41.1355 31.2257 40.956 31.1877 40.7825C31.1497 40.6089 31.0765 40.4451 30.9725 40.301C30.8685 40.157 30.7359 40.0359 30.5831 39.9453C30.4303 39.8547 30.2605 39.7966 30.0842 39.7744C24.9839 39.1573 19.943 40.5704 15.3381 43.9418C11.0211 47.1028 7.17871 51.9629 4.79434 57.2762C4.62275 57.654 4.5841 58.0788 4.68467 58.4813C4.78525 58.8839 5.01913 59.2406 5.34825 59.4933C5.67736 59.7461 6.08233 59.88 6.49723 59.8732C6.91214 59.8665 7.31254 59.7195 7.63327 59.4562C13.1593 54.939 22.8749 49.2375 27.9805 48.2781C28.7008 48.1517 29.4026 47.9361 30.0696 47.6361C30.3213 47.5159 30.5262 47.3159 30.6524 47.0672C30.7786 46.8185 30.819 46.5351 30.7674 46.261C30.765 46.2468 30.7628 46.2332 30.7606 46.2197Z" fill="#DFB21E"/>
<path d="M8.68978 77.5125C8.26632 77.5108 7.85537 77.3688 7.52126 77.1086C7.18716 76.8484 6.94876 76.4848 6.8434 76.0747C6.73804 75.6645 6.77166 75.231 6.939 74.842C7.10634 74.453 7.39796 74.1305 7.76818 73.925C12.4912 71.2873 17.1029 66.7743 19.8032 62.1477C20.2503 61.3821 20.6766 60.5668 21.0885 59.7786C21.8542 58.313 22.6476 56.7984 23.6641 55.4008C25.3437 53.0912 28.8017 51.0752 31.7073 50.7117C31.8795 50.6878 32.0546 50.6985 32.2226 50.7429C32.3907 50.7873 32.5482 50.8646 32.6861 50.9704C32.824 51.0762 32.9395 51.2083 33.0259 51.359C33.1123 51.5098 33.168 51.6762 33.1896 51.8487C33.2112 52.0211 33.1983 52.1961 33.1517 52.3636C33.1051 52.531 33.0258 52.6875 32.9182 52.824C32.8107 52.9605 32.6771 53.0743 32.5252 53.1588C32.3733 53.2433 32.2062 53.2967 32.0335 53.3161C29.846 53.5902 27.0429 55.2179 25.7871 56.9447C24.8843 58.1861 24.1703 59.5507 23.4147 60.9955C22.9888 61.81 22.5482 62.6519 22.0703 63.4709C19.6879 67.5526 15.9343 71.5509 11.8617 74.4355C18.672 72.9321 23.6289 68.251 28.8367 63.3329C29.7442 62.4758 30.6827 61.5899 31.6172 60.7365C32.6142 59.8263 33.7299 58.7501 34.3516 57.4929C34.9363 56.3117 34.9947 55.0272 34.5047 54.1412C34.336 53.8366 34.2952 53.4775 34.3913 53.1429C34.4874 52.8082 34.7125 52.5255 35.0171 52.3568C35.3217 52.1881 35.6808 52.1473 36.0155 52.2434C36.3501 52.3395 36.6329 52.5646 36.8016 52.8692C37.7172 54.5221 37.6814 56.686 36.7057 58.6573C35.8813 60.3222 34.5607 61.6043 33.3875 62.6753C32.4688 63.5136 31.5393 64.3919 30.6398 65.2415C24.571 70.9716 18.2971 76.8971 8.816 77.5083C8.77356 77.5112 8.73134 77.5125 8.68978 77.5125Z" fill="#DFB21E"/>
<path d="M23.5073 108.911C23.1582 108.911 22.8197 108.791 22.5479 108.572C22.2761 108.353 22.0873 108.047 22.0128 107.706C21.3445 104.638 21.9404 101.331 22.466 98.4133L22.5988 97.673C24.4035 87.4913 30.9704 80.5619 37.1564 75.1269C37.4188 74.9039 37.7583 74.793 38.1017 74.818C38.4451 74.843 38.765 75.002 38.9923 75.2606C39.2195 75.5193 39.3361 75.8569 39.3167 76.2007C39.2974 76.5445 39.1437 76.8669 38.8889 77.0985C33.045 82.2336 26.8467 88.748 25.1835 98.1311C25.1398 98.3783 25.0952 98.6275 25.0497 98.8788C24.7241 100.496 24.4957 102.131 24.3659 103.775C25.4069 102.161 26.6126 100.453 27.8602 98.6858C32.0258 92.7855 36.7475 86.0981 37.4349 79.9735C37.4737 79.6276 37.6483 79.3112 37.9204 79.094C38.1925 78.8768 38.5397 78.7766 38.8856 78.8154C39.2316 78.8543 39.5479 79.0289 39.7651 79.301C39.9823 79.573 40.0825 79.9202 40.0437 80.2662C39.2809 87.061 34.3527 94.0411 30.0046 100.2C27.977 103.072 26.0618 105.784 24.8672 108.085C24.7375 108.334 24.5421 108.542 24.3024 108.688C24.0627 108.833 23.7877 108.91 23.5073 108.911Z" fill="#DFB21E"/>
<path d="M104.726 57.7455C103.919 50.77 99.8499 45.7693 96.6104 43.6072C93.6847 41.6542 87.9917 39.3497 82.7369 40.977C82.5226 41.0458 82.3297 41.1689 82.177 41.3343C82.0243 41.4997 81.9171 41.7018 81.8656 41.9209C81.8141 42.14 81.8203 42.3687 81.8833 42.5848C81.9464 42.8009 82.0644 42.9969 82.2257 43.154L82.246 43.1743C82.4096 43.3376 82.6145 43.4536 82.8387 43.5097C83.063 43.5659 83.2983 43.5602 83.5196 43.4932C87.8897 42.1635 92.8311 44.2403 95.1531 45.7901C97.2021 47.1577 99.4019 49.7276 100.797 53.0421C96.9458 49.205 91.4024 46.1808 86.6061 45.4196C86.3839 45.3843 86.0691 45.3539 85.7294 45.3301C85.5269 45.3162 85.324 45.3506 85.1375 45.4305C84.9509 45.5104 84.7859 45.6334 84.6562 45.7895C84.5265 45.9455 84.4357 46.1302 84.3912 46.3282C84.3468 46.5262 84.3501 46.732 84.4007 46.9285L84.4072 46.9552C84.466 47.2093 84.6025 47.4387 84.7978 47.6115C84.9931 47.7843 85.2375 47.8919 85.4968 47.9192C88.0256 48.1734 91.0076 49.2626 93.9334 51.0325C97.4334 53.15 100.399 56.0031 101.865 58.6642C101.994 58.904 102.186 59.1044 102.419 59.2441C102.653 59.3839 102.92 59.4578 103.193 59.4581C103.354 59.4577 103.515 59.4325 103.668 59.3832C104.007 59.2746 104.297 59.052 104.49 58.7534C104.683 58.4548 104.766 58.0986 104.726 57.7455Z" fill="#DFB21E"/>
<path d="M99.7189 106.683C99.4682 106.683 99.2214 106.621 99.0003 106.502C98.7792 106.384 98.5907 106.213 98.4514 106.005C93.8076 99.1126 90.721 95.7991 85.7482 92.3691C80.3514 88.6462 73.6349 84.0129 71.1254 76.9407C71.0651 76.7777 71.0378 76.6043 71.0451 76.4306C71.0524 76.257 71.094 76.0865 71.1677 75.9291C71.2414 75.7717 71.3456 75.6304 71.4743 75.5136C71.603 75.3968 71.7537 75.3067 71.9175 75.2486C72.0813 75.1905 72.255 75.1654 72.4286 75.175C72.6021 75.1845 72.772 75.2285 72.9285 75.3042C73.0849 75.38 73.2247 75.486 73.3399 75.6163C73.455 75.7465 73.5431 75.8983 73.599 76.0629C75.8246 82.3349 81.8897 86.5178 87.239 90.2086C90.3991 92.3557 93.2459 94.9312 95.6978 97.8613C90.4312 87.3075 80.9057 77.4931 71.9853 74.1269C71.8219 74.0677 71.6719 73.9766 71.544 73.8589C71.4161 73.7412 71.3128 73.5993 71.2402 73.4414C71.1676 73.2835 71.127 73.1127 71.1209 72.939C71.1149 72.7653 71.1433 72.5922 71.2047 72.4295C71.2661 72.2669 71.3591 72.1181 71.4785 71.9918C71.5978 71.8654 71.7411 71.764 71.8999 71.6935C72.0588 71.6229 72.23 71.5846 72.4038 71.5808C72.5776 71.577 72.7504 71.6077 72.9122 71.6712C78.8554 73.9141 85.0712 78.6761 90.4148 85.0806C95.5353 91.2166 99.3638 98.1973 101.196 104.737C101.259 104.965 101.269 105.204 101.225 105.436C101.181 105.669 101.083 105.888 100.94 106.076C100.797 106.265 100.613 106.418 100.401 106.523C100.189 106.628 99.9555 106.683 99.7189 106.683V106.683Z" fill="#DFB21E"/>
</svg>
