<svg width="112" height="112" viewBox="0 0 112 112" fill="none" xmlns="http://www.w3.org/2000/svg">
<path d="M64.3843 99.089C44.9444 72.5793 43.6415 69.7375 38.1581 57.7785C36.9135 55.064 35.5027 51.9871 33.6267 48.066C33.3138 47.4172 32.8246 46.8695 32.2151 46.4856C31.6056 46.1017 30.9004 45.897 30.1801 45.8949C29.3829 45.8937 28.6057 46.1439 27.9589 46.61L27.9425 46.6216C27.0874 44.9779 26.4024 43.2512 25.8983 41.4682L26.1531 41.2856C26.8689 40.7696 27.3508 39.9909 27.4931 39.1201C27.6354 38.2493 27.4266 37.3576 26.9123 36.6407C26.3981 35.9237 25.6205 35.4399 24.75 35.2955C23.8796 35.1512 22.9874 35.3579 22.2692 35.8704L11.1427 43.8504C10.4311 44.3679 9.95314 45.1459 9.81304 46.0146C9.67293 46.8832 9.88209 47.772 10.3949 48.487C10.9077 49.202 11.6825 49.6852 12.5502 49.831C13.4179 49.9769 14.308 49.7736 15.0264 49.2656L15.2813 49.0827C16.8089 50.1314 18.2253 51.3334 19.5084 52.6702L19.4924 52.6818C19.0393 53.0072 18.663 53.4279 18.3899 53.9144C18.1169 54.4009 17.9538 54.9413 17.9121 55.4976C17.8704 56.0539 17.9511 56.6126 18.1485 57.1344C18.346 57.6561 18.6554 58.1283 19.0549 58.5176C22.2839 61.6648 24.8144 64.0441 27.047 66.1432C36.3699 74.9092 38.8756 77.2654 57.5978 103.957C57.9145 104.41 58.3179 104.795 58.7848 105.091C59.2516 105.387 59.7724 105.587 60.3172 105.68C60.862 105.773 61.4198 105.757 61.9583 105.633C62.4969 105.509 63.0054 105.279 63.4545 104.957C63.9036 104.635 64.2843 104.227 64.5745 103.757C64.8648 103.286 65.0588 102.763 65.1453 102.217C65.2318 101.672 65.2091 101.114 65.0786 100.577C64.948 100.04 64.7122 99.5342 64.3847 99.089H64.3843ZM13.4969 47.1323C13.3445 47.2401 13.1557 47.2832 12.9716 47.2523C12.7875 47.2214 12.6231 47.1189 12.5143 46.9672C12.4055 46.8155 12.3611 46.627 12.3907 46.4427C12.4204 46.2584 12.5218 46.0933 12.6727 45.9835L23.7983 38.0032C23.9177 37.917 24.0613 37.8706 24.2087 37.8707C24.2477 37.8708 24.2866 37.8739 24.325 37.8801C24.4631 37.9027 24.5912 37.9658 24.6934 38.0614C24.7955 38.1569 24.867 38.2806 24.8988 38.4168C24.9306 38.553 24.9213 38.6956 24.872 38.8264C24.8228 38.9573 24.7358 39.0707 24.6221 39.1521L13.4969 47.1323ZM17.542 47.462L23.639 43.089C24.205 44.8416 24.9233 46.5413 25.7859 48.1686L21.667 51.1219C20.4014 49.784 19.0211 48.5593 17.542 47.462ZM61.9216 102.821C61.7547 102.94 61.5658 103.025 61.3658 103.071C61.1658 103.117 60.9587 103.123 60.7565 103.088C60.5542 103.054 60.3608 102.979 60.1874 102.87C60.014 102.76 59.8641 102.617 59.7464 102.449C36.5409 69.3657 38.1063 73.4211 20.8867 56.6379C20.7619 56.5163 20.6653 56.3688 20.6036 56.2059C20.5419 56.0429 20.5167 55.8684 20.5296 55.6946C20.5426 55.5209 20.5935 55.3521 20.6787 55.2001C20.7639 55.0481 20.8813 54.9166 21.0228 54.8148L29.4884 48.7428C29.6301 48.6413 29.7923 48.572 29.9636 48.54C30.1349 48.508 30.3112 48.5139 30.48 48.5573C30.6488 48.6008 30.806 48.6807 30.9405 48.7914C31.0751 48.9022 31.1837 49.0411 31.2588 49.1984C41.6354 70.8899 38.3708 68.0547 62.2675 100.641C62.3888 100.807 62.4761 100.995 62.5244 101.194C62.5727 101.393 62.581 101.6 62.5489 101.803C62.5167 102.006 62.4447 102.2 62.3371 102.375C62.2294 102.549 62.0882 102.701 61.9216 102.821Z" fill="#DFB21E"/>
<path d="M40.762 95.0097C34.6783 95.0097 29.4666 93.9323 25.2723 91.8076C24.9723 91.6444 24.7478 91.3708 24.6463 91.0448C24.5447 90.7188 24.5743 90.366 24.7286 90.0614C24.8829 89.7568 25.1499 89.5244 25.4728 89.4134C25.7957 89.3024 26.1492 89.3216 26.4582 89.467C30.2817 91.4038 35.0942 92.3857 40.762 92.3857C44.3572 92.3857 47.3901 91.4718 50.5966 89.4226C51.3169 88.961 52.0683 88.4281 52.8921 87.7948C53.9045 87.017 54.9162 86.1693 55.8949 85.3499C59.1081 82.6592 62.4309 79.8752 66.9772 78.3654C72.096 76.6653 78.0289 76.8998 85.1146 79.0805C85.4449 79.1849 85.7206 79.4156 85.8815 79.7223C86.0424 80.029 86.0755 80.3869 85.9737 80.718C85.8718 81.0491 85.6432 81.3264 85.3377 81.4897C85.0322 81.6529 84.6745 81.6887 84.3427 81.5893C69.8126 77.1168 63.871 82.0925 57.5804 87.3622C56.5811 88.1991 55.5477 89.0645 54.4921 89.876C53.6083 90.5555 52.797 91.1303 52.0117 91.6337C48.406 93.9369 44.8318 95.0097 40.762 95.0097Z" fill="#DFB21E"/>
<path d="M107.96 17.6474L94.8155 4.50315C94.0371 3.72371 93.0084 3.24415 91.9109 3.14901C90.8134 3.05387 89.7176 3.34926 88.8166 3.98311C87.9156 4.61696 87.2673 5.54855 86.986 6.61365C86.7048 7.67875 86.8086 8.80895 87.2792 9.805L74.9541 22.13C69.7018 27.379 65.3342 33.444 62.021 40.0894L56.365 51.4281C56.2681 51.6207 56.1199 51.7828 55.9366 51.8963C55.7533 52.0099 55.5422 52.0705 55.3266 52.0714H55.3123C55.1842 52.0699 55.0562 52.069 54.9278 52.069H54.9203C46.9239 52.069 39.2388 55.2505 33.2803 61.0279C27.3178 66.8091 23.904 74.3951 23.6677 82.3884C23.5223 87.0163 24.4089 91.6185 26.2633 95.8611C28.1176 100.104 30.8932 103.88 34.3887 106.917C37.5431 109.653 41.5812 111.155 45.7569 111.145H64.0947C68.3162 111.149 72.3944 109.614 75.5658 106.827C78.7851 103.995 81.3878 100.532 83.2123 96.6516C85.0368 92.7714 86.0442 88.5576 86.1718 84.2718C86.2995 79.986 85.5447 75.7197 83.9543 71.7379C82.3639 67.756 79.9719 64.1437 76.9268 61.1251C76.75 60.9518 76.6331 60.7268 76.5929 60.4826C76.5528 60.2384 76.5915 59.9878 76.7035 59.7671L80.8026 51.7157C83.9583 45.5138 88.0728 39.8485 92.9942 34.9289L102.712 25.2092C103.71 25.6648 104.835 25.7555 105.893 25.4653C106.95 25.1752 107.872 24.5227 108.497 23.6219C109.122 22.721 109.411 21.6292 109.313 20.5371C109.214 19.445 108.736 18.4222 107.96 17.6474ZM91.1379 33.0728C86.0216 38.1874 81.7442 44.0771 78.4633 50.5247L74.3644 58.576C73.9986 59.2921 73.8707 60.1061 73.9993 60.8999C74.1278 61.6936 74.5062 62.4257 75.0792 62.9897C77.8687 65.755 80.0598 69.0642 81.5167 72.7118C82.9735 76.3594 83.6649 80.2676 83.548 84.1936C83.4311 88.1197 82.5083 91.9798 80.837 95.5343C79.1656 99.0887 76.7814 102.262 73.8324 104.856C71.1401 107.221 67.6782 108.524 64.0947 108.52H45.7569C42.2152 108.53 38.7897 107.257 36.1131 104.938C32.9108 102.156 30.3679 98.6959 28.6691 94.809C26.9702 90.9222 26.1579 86.7059 26.2912 82.4661C26.7366 67.4102 39.8456 54.694 54.9208 54.694H54.9273C55.0453 54.694 55.1629 54.6948 55.28 54.6964H55.3259C56.0291 54.6939 56.7178 54.4967 57.3157 54.1267C57.9136 53.7567 58.3974 53.2283 58.7135 52.6002L63.9197 42.1638C63.9197 42.1638 64.6387 40.7271 64.7759 40.4613C67.9109 34.3801 71.9705 28.8221 76.8098 23.9857L88.9366 11.8591L100.643 23.5655L91.1379 33.0728ZM106.104 22.4087C105.718 22.7936 105.196 23.0097 104.651 23.0097C104.106 23.0097 103.584 22.7936 103.198 22.4087L90.0542 9.26468C89.6689 8.8794 89.4524 8.35683 89.4524 7.81193C89.4524 7.26704 89.6688 6.74445 90.0541 6.35914C90.4394 5.97382 90.962 5.75734 91.5069 5.75732C92.0518 5.7573 92.5743 5.97374 92.9596 6.35903L106.104 19.5033C106.489 19.8888 106.705 20.4113 106.705 20.956C106.705 21.5007 106.489 22.0232 106.104 22.4087Z" fill="#DFB21E"/>
</svg>
