<svg width="112" height="112" viewBox="0 0 112 112" fill="none" xmlns="http://www.w3.org/2000/svg">
<path d="M81.8838 46.2079C82.0378 45.5998 82.0528 44.9648 81.9279 44.3501C81.8029 43.7354 81.5411 43.1567 81.162 42.657C80.7828 42.1573 80.296 41.7493 79.7377 41.4634C79.1793 41.1776 78.5638 41.0211 77.9367 41.0056C77.8479 41.0036 77.7577 41.0025 77.6691 41.0025C72.2223 41.0025 67.2612 44.6775 63.3701 48.8795C63.5084 47.6107 63.6037 46.3072 63.6372 44.9938C63.8122 38.143 62.2466 32.9394 58.9835 29.5271C58.5982 29.1241 58.1352 28.8034 57.6224 28.5842C57.1097 28.3651 56.5579 28.2521 56.0003 28.2521C55.4427 28.2521 54.8909 28.3651 54.3782 28.5842C53.8655 28.8034 53.4025 29.1241 53.0171 29.5271C49.7542 32.9396 48.1886 38.1428 48.3636 44.9927C48.3971 46.3065 48.4925 47.6101 48.6307 48.8788C44.7398 44.6775 39.779 41.0016 34.3324 41.0014C34.2427 41.0014 34.1536 41.0014 34.064 41.0045C33.4369 41.02 32.8214 41.1765 32.263 41.4624C31.7047 41.7483 31.2179 42.1563 30.8388 42.656C30.4597 43.1557 30.1979 43.7344 30.073 44.3491C29.948 44.9638 29.9631 45.5987 30.1171 46.2068C31.5389 51.7683 36.2147 56.4662 40.9132 59.9443C36.7474 60.4067 33.6199 61.9065 31.5945 64.4203C31.2073 64.8989 30.9303 65.457 30.7832 66.0547C30.6361 66.6525 30.6226 67.2754 30.7436 67.879C30.8621 68.4764 31.1108 69.0404 31.472 69.5308C31.8332 70.0212 32.2981 70.426 32.8335 70.7164C34.8036 71.7883 37.2522 72.331 40.1122 72.331C41.7489 72.3194 43.3816 72.1692 44.9929 71.8819C44.6892 73.0535 44.6445 74.2772 44.8617 75.4679C45.0319 76.4344 45.5326 77.3118 46.2783 77.9498C47.024 78.5879 47.9682 78.947 48.9495 78.9657H49.0197C52.1756 78.9657 54.3449 76.5647 55.9801 74.3129C57.6076 76.5284 59.8583 78.9657 62.9834 78.9657C63.0111 78.9657 63.0385 78.9657 63.0665 78.9657C64.0317 78.9482 64.9616 78.5997 65.7005 77.9785C66.4394 77.3573 66.9424 76.501 67.1254 75.5532C67.3604 74.3359 67.3211 73.0815 67.0103 71.8813C68.6214 72.1686 70.254 72.3189 71.8904 72.3303C74.7501 72.3303 77.1991 71.7872 79.1693 70.7158C79.7047 70.4253 80.1695 70.0205 80.5306 69.5301C80.8918 69.0397 81.1405 68.4758 81.259 67.8783C81.38 67.2747 81.3665 66.6519 81.2194 66.0541C81.0723 65.4563 80.7953 64.8983 80.4081 64.4197C78.3821 61.906 75.2546 60.4061 71.0894 59.9438C75.7859 56.4668 80.4621 51.7694 81.8838 46.2079ZM62.5664 62.2287C62.4991 62.2651 62.4457 62.3227 62.4146 62.3926C62.3834 62.4625 62.3763 62.5408 62.3943 62.6152C62.4123 62.6895 62.4543 62.7559 62.514 62.8039C62.5736 62.8518 62.6474 62.8787 62.7239 62.8803C62.745 62.8803 62.7661 62.8785 62.7869 62.8751C64.562 62.5799 66.3576 62.4263 68.157 62.4157C71.8882 62.4157 76.0346 63.1789 78.363 66.0688C78.5075 66.2448 78.6115 66.4503 78.6677 66.671C78.7238 66.8916 78.7307 67.1219 78.6879 67.3455C78.6451 67.5691 78.5535 67.7805 78.4198 67.9648C78.2861 68.149 78.1134 68.3016 77.9141 68.4117C76.1674 69.3615 74.0495 69.7073 71.8893 69.7073C68.2504 69.7073 64.4934 68.7251 62.2016 67.9941C62.1655 67.9824 62.1279 67.9763 62.09 67.9761C62.0202 67.9781 61.9527 68.001 61.8961 68.0419C61.8395 68.0827 61.7966 68.1397 61.7728 68.2053C61.749 68.2709 61.7455 68.3421 61.7627 68.4098C61.78 68.4774 61.8172 68.5383 61.8695 68.5845C63.357 69.914 65.1011 72.156 64.5459 75.0628C64.4799 75.4187 64.2925 75.7407 64.0157 75.974C63.7389 76.2072 63.3897 76.3373 63.0278 76.342H62.9823C60.4244 76.342 58.4148 73.2528 56.9432 71.1158C56.8499 70.9419 56.7113 70.7964 56.5421 70.6947C56.3729 70.5931 56.1794 70.539 55.982 70.5383C55.7846 70.5376 55.5907 70.5902 55.4207 70.6906C55.2508 70.7909 55.1111 70.9354 55.0165 71.1086C53.5323 73.2458 51.5799 76.342 49.0186 76.342H48.9801C48.6086 76.3309 48.2524 76.1912 47.9723 75.947C47.6922 75.7027 47.5054 75.3689 47.4438 75.0024C46.9243 72.1258 48.6537 69.9055 50.1296 68.5858C50.1819 68.5395 50.2191 68.4785 50.2363 68.4108C50.2535 68.3431 50.25 68.2718 50.2262 68.2061C50.2024 68.1404 50.1594 68.0834 50.1028 68.0425C50.0461 68.0015 49.9785 67.9786 49.9087 67.9766C49.8707 67.9767 49.833 67.9828 49.7969 67.9947C47.5044 68.7256 43.7496 69.7071 40.1115 69.7071C37.9518 69.7071 35.833 69.361 34.0867 68.4114C33.8874 68.3014 33.7148 68.1488 33.5811 67.9646C33.4473 67.7803 33.3558 67.5689 33.313 67.3453C33.2701 67.1217 33.277 66.8914 33.3332 66.6708C33.3893 66.4501 33.4933 66.2446 33.6378 66.0686C35.9664 63.1792 40.1128 62.4155 43.8436 62.4155C45.6431 62.426 47.4388 62.5797 49.2139 62.8749C49.2348 62.8783 49.2558 62.8801 49.2769 62.8801C49.3534 62.8785 49.4273 62.8516 49.4869 62.8036C49.5465 62.7557 49.5886 62.6893 49.6066 62.6149C49.6246 62.5406 49.6174 62.4623 49.5863 62.3924C49.5551 62.3225 49.5018 62.2649 49.4344 62.2285C44.8514 59.7494 34.6811 53.4625 32.6598 45.5578C32.6037 45.3325 32.5988 45.0975 32.6455 44.8701C32.6922 44.6427 32.7892 44.4286 32.9295 44.2437C33.0699 44.0587 33.2499 43.9076 33.4563 43.8014C33.6627 43.6952 33.8903 43.6366 34.1224 43.6299C34.1924 43.6284 34.2619 43.6275 34.3319 43.6275C42.222 43.6275 49.4508 53.5189 52.4081 58.1599C52.4376 58.2094 52.4794 58.2504 52.5295 58.2789C52.5796 58.3073 52.6362 58.3223 52.6938 58.3223C52.7479 58.3235 52.8014 58.312 52.8503 58.2888C52.8991 58.2655 52.9418 58.2312 52.9749 58.1885C53.0081 58.1458 53.0308 58.0959 53.0412 58.0429C53.0516 57.9898 53.0494 57.9351 53.0348 57.883C51.4496 52.0496 48.5336 38.0133 54.9139 31.3414C55.0542 31.1947 55.2227 31.0779 55.4094 30.9981C55.5961 30.9183 55.797 30.8772 56 30.8772C56.203 30.8772 56.4039 30.9183 56.5906 30.9981C56.7772 31.0779 56.9458 31.1947 57.0861 31.3414C63.4664 38.0133 60.5504 52.0496 58.9651 57.883C58.9505 57.9351 58.9483 57.9898 58.9587 58.0429C58.9691 58.096 58.9918 58.1459 59.0249 58.1886C59.0581 58.2313 59.1008 58.2657 59.1497 58.2889C59.1985 58.3121 59.2521 58.3235 59.3062 58.3223C59.3638 58.3223 59.4204 58.3073 59.4705 58.2789C59.5206 58.2504 59.5624 58.2094 59.5919 58.1599C62.5494 53.5185 69.7775 43.6266 77.6681 43.6275C77.7376 43.6275 77.8081 43.6275 77.8776 43.6299C78.1097 43.6366 78.3373 43.6952 78.5437 43.8014C78.7501 43.9076 78.9301 44.0587 79.0704 44.2437C79.2107 44.4286 79.3078 44.6427 79.3545 44.8701C79.4012 45.0975 79.3963 45.3325 79.3402 45.5578C77.3198 53.4625 67.1495 59.7494 62.5664 62.2287Z" fill="#DFB21E"/>
<path d="M58.9083 84.35C58.6523 84.3501 58.4018 84.2748 58.1882 84.1336C53.4881 81.0425 54.7179 72.4631 54.7724 72.0993C54.824 71.755 55.0103 71.4454 55.2902 71.2384C55.5701 71.0315 55.9208 70.9442 56.2651 70.9958C56.6093 71.0474 56.919 71.2337 57.1259 71.5136C57.3329 71.7935 57.4201 72.1442 57.3685 72.4885C57.0693 74.5075 56.8928 80.1399 59.6306 81.9407C59.8667 82.0958 60.0464 82.323 60.1431 82.5885C60.2397 82.854 60.2481 83.1435 60.167 83.4142C60.086 83.6848 59.9197 83.922 59.693 84.0906C59.4663 84.2592 59.1913 84.3502 58.9088 84.35H58.9083Z" fill="#DFB21E"/>
<path d="M56.0014 89.6018C37.4733 89.6018 22.3994 74.5281 22.3994 56C22.3994 37.4719 37.4733 22.3983 56.0014 22.3983C74.5295 22.3983 89.6034 37.4719 89.6034 56C89.6034 74.5281 74.5295 89.6018 56.0014 89.6018ZM56.0014 25.0233C38.9207 25.0233 25.0244 38.9193 25.0244 56C25.0244 73.0807 38.9207 86.9768 56.0014 86.9768C73.082 86.9768 86.9784 73.0807 86.9784 56C86.9784 38.9193 73.082 25.0233 56.0014 25.0233Z" fill="#DFB21E"/>
<path d="M16.0629 55.6441C18.0656 54.4806 21.4254 51.6703 21.4254 45.9211C21.4254 44.0064 20.7254 41.4877 19.7589 39.9322C18.2502 37.5012 15.7291 36.05 13.0153 36.05C10.3028 36.05 7.78062 37.5017 6.27191 39.9324C5.30634 41.488 4.60547 44.0066 4.60547 45.9214C4.60547 51.6705 7.96525 54.4808 9.96769 55.6444C10.5026 55.9555 11.0813 56.1841 11.6844 56.3225V58.2204C10.7836 58.5046 9.9966 59.0683 9.4375 59.8297C8.87839 60.5911 8.5762 61.5107 8.57469 62.4554V80.7374C8.57469 81.3205 8.68955 81.898 8.91271 82.4367C9.13587 82.9755 9.46297 83.465 9.87532 83.8774C10.2877 84.2897 10.7772 84.6168 11.316 84.84C11.8547 85.0632 12.4322 85.178 13.0153 85.178C13.5985 85.178 14.1759 85.0632 14.7147 84.84C15.2534 84.6168 15.743 84.2897 16.1553 83.8774C16.5677 83.465 16.8948 82.9755 17.1179 82.4367C17.3411 81.898 17.4559 81.3205 17.4559 80.7374V62.4554C17.4544 61.5042 17.148 60.5786 16.5817 59.8144C16.0154 59.0502 15.219 58.4877 14.3094 58.2094V56.331C14.9258 56.1935 15.5172 55.9618 16.0629 55.6441ZM7.23047 45.9211C7.23047 44.4879 7.78894 42.4649 8.50206 41.3165C9.54419 39.6375 11.1892 38.675 13.0153 38.675C14.8414 38.675 16.4867 39.6375 17.5286 41.3167C18.2417 42.4655 18.8004 44.4885 18.8004 45.9214C18.8004 50.134 16.5947 52.2997 14.7443 53.3746C14.253 53.6619 13.6981 53.8227 13.1293 53.8425C13.0855 53.8381 12.918 53.8384 12.879 53.8425C12.3182 53.8188 11.7717 53.6583 11.2872 53.375C9.43612 52.2992 7.23047 50.1336 7.23047 45.9211ZM14.8309 80.7374C14.8305 81.2188 14.639 81.6803 14.2986 82.0207C13.9582 82.3611 13.4967 82.5526 13.0153 82.553C12.5339 82.5525 12.0724 82.361 11.732 82.0207C11.3917 81.6803 11.2002 81.2188 11.1997 80.7374V62.4554C11.1997 61.9738 11.391 61.512 11.7315 61.1715C12.072 60.831 12.5338 60.6397 13.0153 60.6397C13.4968 60.6397 13.9587 60.831 14.2992 61.1715C14.6396 61.512 14.8309 61.9738 14.8309 62.4554V80.7374Z" fill="#DFB21E"/>
<path d="M102.446 37.2444C101.757 37.2448 101.087 37.4672 100.534 37.8788C99.9816 37.4671 99.311 37.2448 98.6221 37.2448C97.9332 37.2448 97.2627 37.4671 96.7103 37.8788C96.2311 37.5231 95.6624 37.3076 95.0678 37.2565C94.4732 37.2054 93.8761 37.3207 93.3433 37.5894C92.8104 37.8581 92.3628 38.2697 92.0504 38.7782C91.738 39.2867 91.5731 39.872 91.5742 40.4688V49.5031C91.5764 51.1407 92.148 52.7266 93.191 53.9892C94.234 55.2517 95.6835 56.1123 97.2913 56.4235V58.2188C96.3903 58.5031 95.6032 59.067 95.0441 59.8286C94.485 60.5902 94.183 61.5101 94.1817 62.4549V80.7369C94.1817 81.9146 94.6496 83.0441 95.4824 83.8769C96.3151 84.7097 97.4446 85.1775 98.6223 85.1775C99.8001 85.1775 100.93 84.7097 101.762 83.8769C102.595 83.0441 103.063 81.9146 103.063 80.7369V62.4553C103.061 61.5041 102.755 60.5785 102.189 59.8143C101.622 59.0501 100.826 58.4876 99.9163 58.2094V56.4316C101.532 56.1276 102.991 55.2692 104.041 54.0045C105.091 52.7399 105.667 51.1484 105.669 49.5044V40.4688C105.668 39.614 105.329 38.7946 104.724 38.1901C104.12 37.5857 103.301 37.2455 102.446 37.2444ZM100.438 80.7374C100.438 81.2189 100.246 81.6807 99.9058 82.0212C99.5653 82.3617 99.1034 82.553 98.6219 82.553C98.1404 82.553 97.6786 82.3617 97.3381 82.0212C96.9976 81.6807 96.8063 81.2189 96.8063 80.7374V62.4553C96.8063 61.9738 96.9976 61.512 97.3381 61.1715C97.6786 60.831 98.1404 60.6397 98.6219 60.6397C99.1034 60.6397 99.5653 60.831 99.9058 61.1715C100.246 61.512 100.438 61.9738 100.438 62.4553V80.7374ZM103.045 49.5031C103.049 50.0866 102.938 50.6651 102.718 51.2053C102.497 51.7455 102.172 52.2368 101.761 52.6508C101.35 53.0649 100.861 53.3935 100.322 53.6177C99.7834 53.8419 99.2057 53.9574 98.6222 53.9574C98.0388 53.9574 97.4611 53.8419 96.9224 53.6177C96.3837 53.3935 95.8948 53.0649 95.4836 52.6508C95.0725 52.2368 94.7474 51.7455 94.5269 51.2053C94.3065 50.6651 94.1951 50.0866 94.1992 49.5031V40.4688C94.1977 40.3891 94.2121 40.3099 94.2415 40.2359C94.2709 40.1619 94.3148 40.0944 94.3706 40.0376C94.4264 39.9807 94.493 39.9355 94.5665 39.9047C94.6399 39.8738 94.7188 39.8579 94.7985 39.8579C94.8782 39.8579 94.957 39.8738 95.0305 39.9047C95.104 39.9355 95.1705 39.9807 95.2263 40.0376C95.2821 40.0944 95.326 40.1619 95.3555 40.2359C95.3849 40.3099 95.3993 40.3891 95.3978 40.4688V45.1321C95.3978 45.4802 95.536 45.814 95.7822 46.0602C96.0283 46.3063 96.3622 46.4446 96.7103 46.4446C97.0584 46.4446 97.3922 46.3063 97.6383 46.0602C97.8845 45.814 98.0228 45.4802 98.0228 45.1321V40.4688C98.0228 40.3098 98.0859 40.1573 98.1983 40.0449C98.3107 39.9325 98.4632 39.8694 98.6221 39.8694C98.7811 39.8694 98.9335 39.9325 99.046 40.0449C99.1584 40.1573 99.2215 40.3098 99.2215 40.4688V45.1321C99.2215 45.4802 99.3598 45.814 99.6059 46.0602C99.8521 46.3063 100.186 46.4446 100.534 46.4446C100.882 46.4446 101.216 46.3063 101.462 46.0602C101.708 45.814 101.847 45.4802 101.847 45.1321V40.4688C101.847 40.3098 101.91 40.1573 102.022 40.0449C102.134 39.9325 102.287 39.8694 102.446 39.8694C102.605 39.8694 102.757 39.9325 102.87 40.0449C102.982 40.1573 103.045 40.3098 103.045 40.4688V49.5031Z" fill="#DFB21E"/>
</svg>
