<svg width="112" height="112" viewBox="0 0 112 112" fill="none" xmlns="http://www.w3.org/2000/svg">
<path d="M96.929 5.92157H15.0728C13.9783 5.92313 12.9291 6.35863 12.1552 7.13257C11.3813 7.90652 10.9458 8.95576 10.9443 10.0503V98.1586C10.947 100.258 11.7821 102.271 13.2666 103.755C14.7511 105.24 16.7637 106.075 18.8631 106.077H93.1379C95.2373 106.075 97.2499 105.24 98.7344 103.755C100.219 102.271 101.054 100.258 101.057 98.1586V10.0503C101.055 8.95591 100.62 7.9068 99.8461 7.13288C99.0724 6.35896 98.0234 5.92336 96.929 5.92157ZM15.0728 8.54657H96.929C97.3277 8.54703 97.7099 8.70561 97.9917 8.98751C98.2736 9.26942 98.4321 9.65162 98.4325 10.0503V25.3505H13.5693V10.0503C13.5697 9.65162 13.7283 9.26942 14.0101 8.98751C14.292 8.70561 14.6742 8.54703 15.0728 8.54657ZM93.1379 103.453H18.864C17.4605 103.452 16.1151 102.893 15.1228 101.901C14.1304 100.909 13.5721 99.5631 13.5702 98.1597V27.9755H98.4325V98.1586C98.431 99.5624 97.8726 100.908 96.88 101.901C95.8875 102.893 94.5417 103.452 93.1379 103.453Z" fill="#DFB21E"/>
<path d="M92.2559 72.2078C94.016 69.7441 94.0394 66.1686 93.1528 63.9102C91.9761 60.912 88.7176 58.5099 85.3086 58.0818C87.7092 53.2061 85.9688 48.06 83.6833 45.7881C81.9613 44.077 80.236 43.4363 77.6983 43.6048C76.0214 41.5463 73.7976 39.8353 71.4447 39.5406C66.1914 38.8828 62.2095 41.2156 59.8586 46.2967C59.0454 46.058 58.1997 45.9487 57.3526 45.9727C55.7469 46.0367 54.1796 46.4827 52.7807 47.2736C52.3575 46.345 51.7792 45.4952 51.0705 44.7608C49.2704 42.9209 46.9965 42.3137 44.8127 43.0294C44.0157 42.0185 42.9849 41.2165 41.8092 40.6922C40.6334 40.168 39.3479 39.9373 38.0632 40.0201C34.8091 40.182 31.8083 42.0932 30.4982 44.758C29.7051 44.9862 28.9594 45.3549 28.2965 45.8465C27.3409 46.5637 26.5375 47.4638 25.933 48.4944C25.3286 49.525 24.9352 50.6656 24.7757 51.8497C24.6663 52.7597 24.5132 55.3411 25.8403 57.5372C24.4204 58.6278 23.4901 60.2446 23.0228 61.409C22.4028 61.6375 21.8089 61.9313 21.251 62.2853C19.7236 63.2305 18.5392 64.64 17.8713 66.3073C17.1078 68.2743 17.1354 71.4582 18.6903 73.484C19.7776 74.8623 21.3368 75.7891 23.067 76.0858C21.3826 77.4959 20.7391 79.5872 20.6102 81.0841C17.6243 83.4623 17.2634 86.667 17.9675 88.956C18.7163 91.3931 20.6682 93.1105 22.9386 93.4001C24.3563 94.9937 26.0775 95.8923 28.0628 96.0733C28.3059 96.0951 28.548 96.1059 28.788 96.1059C31.4036 96.1059 33.8044 94.8603 35.1906 93.8374C35.9162 94.0195 36.6613 94.1124 37.4094 94.1139C37.7648 94.1158 38.1198 94.0908 38.4714 94.0391C39.5285 93.8461 40.5414 93.4611 41.4597 92.9031C41.8904 93.3335 42.3633 93.7195 42.8713 94.0551C44.4343 95.0915 46.1215 95.3304 47.583 95.3304C48.0369 95.3304 48.4648 95.3065 48.8644 95.277C50.626 97.3199 53.0947 98.6214 55.7756 98.9207C56.119 98.956 56.464 98.9737 56.8092 98.9737C59.688 98.9423 62.4432 97.799 64.4983 95.7828C67.5437 96.2229 69.3935 95.5231 70.662 94.4357C72.1827 95.0653 73.8284 94.7903 74.6813 94.6306C77.2085 96.1726 79.5642 96.7743 81.6008 96.7743C83.4431 96.8076 85.2484 96.2556 86.757 95.1976C88.7159 93.7635 89.6816 91.5841 89.4038 89.3508C89.9576 88.8779 90.4346 88.3218 90.8176 87.7023C91.4486 86.6361 91.8502 85.4499 91.9968 84.2196C92.1434 82.9894 92.0319 81.742 91.6692 80.5573C91.1199 78.7889 89.5353 77.0448 87.9201 75.9668C88.2085 75.5516 88.4653 75.1152 88.6883 74.6613C90.1301 74.2908 91.394 73.4216 92.2559 72.2078ZM71.1187 42.1457C73.5488 42.4502 76.174 45.393 77.4104 48.0082C77.4835 48.1649 77.5869 48.3057 77.7146 48.4223C77.8422 48.539 77.9917 48.6292 78.1544 48.6879C78.3171 48.7466 78.4897 48.7726 78.6625 48.7644C78.8352 48.7561 79.0046 48.7138 79.161 48.6399C79.3173 48.5659 79.4575 48.4618 79.5735 48.3335C79.6895 48.2053 79.779 48.0553 79.8368 47.8923C79.8946 47.7293 79.9197 47.5565 79.9105 47.3838C79.9014 47.2111 79.8582 47.042 79.7834 46.886C79.6892 46.6866 79.5884 46.4859 79.4809 46.2838C80.3642 46.4522 81.0559 46.8786 81.8333 47.6512C83.2217 49.0311 84.653 52.6065 83.2513 56.2334C82.3651 55.3107 80.9896 54.4296 78.7074 54.0678C75.9835 53.6373 73.873 54.3865 72.3531 55.5973C72.2786 54.3101 71.8617 53.0663 71.1454 51.9943C70.4286 50.9243 69.3803 50.1193 68.1615 49.7031C66.9427 49.2869 65.6209 49.2825 64.3994 49.6906C63.8004 48.8285 63.0618 48.0723 62.2141 47.4532C64.0765 43.3685 66.9971 41.6299 71.1187 42.1457ZM57.425 48.5971C60.1257 48.5196 62.2541 50.3033 63.5865 53.7471C63.7121 54.0718 63.9616 54.3332 64.2799 54.474C64.5983 54.6147 64.9596 54.6232 65.2842 54.4976C65.6089 54.372 65.8704 54.1226 66.0111 53.8042C66.1519 53.4858 66.1604 53.1246 66.0348 52.7999C65.9346 52.5409 65.8302 52.295 65.7239 52.0548C66.3503 51.951 66.9934 52.0323 67.5742 52.2888C68.155 52.5452 68.6484 52.9657 68.9936 53.4986C69.8224 54.6836 69.9968 56.5751 69.4171 58.0985C69.2145 58.6203 69.1877 59.194 69.3407 59.7325C69.4938 60.2709 69.8184 60.7448 70.2652 61.082C72.0034 62.3621 72.2026 65.933 71.5652 67.1444C70.702 68.7851 70.1396 69.5391 68.4896 69.7436C66.5353 66.495 63.5069 64.6076 59.9719 64.5C56.7781 64.4018 53.6634 65.7659 51.8904 67.9254C50.3827 67.0772 48.6371 66.7507 46.9248 66.9968C45.4777 65.9358 44.4181 63.5042 44.4402 61.0422C44.4551 59.4086 45.0142 55.4448 49.8748 53.9225C50.0749 53.8599 50.2571 53.7502 50.4061 53.6027C50.5551 53.4552 50.6666 53.2741 50.7312 53.0747C51.3816 51.0724 54.4463 48.68 57.4259 48.5971H57.425ZM27.3832 52.1647C27.6182 50.4949 28.5037 48.9858 29.8467 47.9662C30.2617 47.6428 30.7393 47.4092 31.2494 47.2803C31.7594 47.1514 32.2907 47.13 32.8095 47.2174C33.1196 47.2761 33.4406 47.221 33.7134 47.0623C33.9863 46.9036 34.1928 46.6518 34.2951 46.3532C34.3974 46.0546 34.3887 45.7291 34.2705 45.4364C34.1524 45.1437 33.9326 44.9034 33.6517 44.7595C34.835 43.4925 36.4634 42.7335 38.1947 42.6423C39.5853 42.5729 42.1523 42.936 43.6978 46.1466C43.8337 46.429 44.0661 46.6534 44.3531 46.7793C44.64 46.9052 44.9625 46.9243 45.2623 46.8331C45.5621 46.7419 45.8194 46.5465 45.9877 46.2821C46.1559 46.0178 46.224 45.7019 46.1797 45.3917C47.4688 45.2018 48.5011 45.8872 49.1954 46.597C49.8152 47.2398 50.2898 48.0082 50.5871 48.8502C49.7128 49.6289 48.9993 50.5713 48.4871 51.6241C44.7388 53.011 42.3538 55.9751 41.897 59.7688C41.1253 58.3026 39.9133 57.1152 38.4316 56.3736C35.6753 55.0736 33.1429 55.249 31.4392 56.8006C30.4362 56.3781 29.3332 56.2512 28.2604 56.4349C27.1719 54.9148 27.2994 52.8557 27.3832 52.1647ZM20.7732 71.8858C19.7978 70.6149 19.8827 68.381 20.3191 67.2569C20.7853 66.1132 21.6046 65.1483 22.6575 64.5028C23.4492 63.9887 24.346 63.6582 25.282 63.5358C26.2181 63.4133 27.1697 63.502 28.067 63.7952C28.3971 63.9056 28.7576 63.8804 29.0691 63.7251C29.3806 63.5698 29.6177 63.2971 29.7282 62.967C29.8386 62.6369 29.8134 62.2764 29.6581 61.9649C29.5028 61.6533 29.2301 61.4162 28.9 61.3058C28.0548 61.0239 27.1715 60.8729 26.2807 60.858C26.7805 60.1425 27.4363 59.4821 28.2103 59.1682C29.084 58.8136 30.0327 58.9387 31.11 59.551C31.3919 59.7111 31.723 59.7613 32.0397 59.6918C32.3564 59.6224 32.6361 59.4382 32.825 59.1747C34.0106 57.5212 36.145 58.1976 37.3118 58.7479C38.8498 59.4733 40.4058 61.6249 40.3478 63.9699C40.3412 64.2378 40.4168 64.5013 40.5643 64.725C40.7119 64.9487 40.9243 65.1218 41.1732 65.2212C42.3166 65.6779 43.2782 66.8837 43.6711 68.3307C42.1386 69.4522 41.0079 71.0373 40.4463 72.8514C39.3467 73.2999 38.376 74.0148 37.6216 74.9319C37.4252 75.013 37.2515 75.1407 37.1154 75.3038C35.1188 77.698 33.1291 78.6697 31.2028 78.1913C29.3093 77.7221 28.025 76.8506 27.1428 75.3854C27.1404 75.3815 27.1377 75.378 27.1356 75.374C26.8219 74.8399 26.5672 74.2733 26.3758 73.6842C26.2924 73.4344 26.1358 73.2156 25.9262 73.0561C25.7167 72.8967 25.464 72.804 25.2011 72.7902C24.9381 72.7763 24.6771 72.842 24.452 72.9786C24.2269 73.1152 24.0481 73.3164 23.939 73.556C23.326 73.5051 22.7297 73.3309 22.1857 73.0439C21.6417 72.7569 21.1613 72.363 20.7732 71.8858ZM34.4219 90.5925C33.8632 90.1309 33.1241 89.9732 32.5717 90.4431C32.3066 90.6686 32.142 90.9902 32.114 91.3372C32.086 91.6841 32.197 92.0279 32.4225 92.293C32.4599 92.3368 32.5017 92.3779 32.5415 92.4203C31.394 93.0486 29.8577 93.6016 28.3015 93.459C26.8577 93.3277 25.6531 92.6277 24.6162 91.3163C24.4945 91.1625 24.34 91.038 24.1638 90.9518C23.9877 90.8656 23.7945 90.8199 23.5984 90.8182C22.2117 90.8064 20.9576 89.7481 20.4768 88.1847C19.8667 86.1995 20.6774 84.2019 22.6453 82.8413C22.8244 82.7174 22.97 82.5509 23.0687 82.3567C23.1675 82.1626 23.2164 81.9469 23.211 81.7292C23.2077 81.5953 23.1672 78.7338 25.4989 77.6223C26.7088 79.1788 28.3713 80.1938 30.571 80.7406C31.0912 80.87 31.6253 80.9356 32.1613 80.936C33.4503 80.9205 34.7117 80.5603 35.8145 79.8928C35.8086 82.4388 37.0515 84.9021 39.0397 86.2969C38.9775 87.834 39.2827 89.3638 39.93 90.7594C39.3247 91.1017 36.0155 91.9089 34.4219 90.5925ZM68.3776 85.9648C68.4061 86.3113 68.5703 86.6325 68.8345 86.8584C69.0988 87.0843 69.4416 87.1967 69.7883 87.171C70.066 87.1484 70.3417 87.1068 70.6136 87.0463C70.7963 87.7584 70.8312 88.5004 70.716 89.2266C70.6009 89.9527 70.3383 90.6475 69.9443 91.2682C69.8141 91.4638 69.229 92.2038 69.1504 92.2799C68.3629 93.0416 67.0504 93.6121 64.2839 93.0851C64.0639 93.043 63.8367 93.058 63.6242 93.1287C63.4116 93.1993 63.2207 93.3233 63.0696 93.4887C61.2435 95.4857 58.5522 96.5659 56.0438 96.3091C53.5433 96.0525 51.1631 94.4569 49.8313 92.1449C49.6912 91.9017 49.4768 91.7097 49.2195 91.5973C48.9623 91.4849 48.6757 91.4579 48.402 91.5203C48.1283 91.5828 47.8818 91.7313 47.6988 91.9442C47.5157 92.157 47.4058 92.423 47.385 92.703C46.3475 92.6835 45.2743 92.4982 44.3225 91.8669C41.6737 90.1103 41.5551 87.4974 41.6962 85.6848C41.7162 85.4282 41.6603 85.1714 41.5355 84.9463C41.4107 84.7213 41.2225 84.5378 40.9942 84.4189C39.3536 83.5636 38.2631 81.4128 38.4587 79.4163C38.6527 77.4357 40.1179 75.598 41.8671 75.1415C42.1029 75.0799 42.317 74.9539 42.4853 74.7774C42.6535 74.601 42.7693 74.3812 42.8197 74.1427C43.2316 72.1927 44.6041 70.5079 46.3164 69.8504C47.1672 69.5391 48.0854 69.4594 48.977 69.6193C49.8687 69.7793 50.7019 70.1732 51.3914 70.7608C51.5419 70.8888 51.7194 70.9812 51.9107 71.0311C52.1019 71.081 52.3019 71.087 52.4958 71.0488C52.6896 71.0105 52.8724 70.929 53.0303 70.8103C53.1883 70.6916 53.3174 70.5387 53.4081 70.3631C54.4036 68.4342 57.1892 67.0633 59.8936 67.1237C61.8243 67.1674 65.0679 68.4928 66.908 72.3844C66.999 72.5837 67.1374 72.7577 67.3112 72.8912C67.485 73.0246 67.6888 73.1135 67.9049 73.15C70.6005 73.5744 72.7392 76.1777 73.2487 78.4494C73.5377 79.7368 73.1905 81.7591 72.505 82.7776C72.1786 83.2702 71.7475 83.6846 71.2425 83.9914C70.7376 84.2982 70.1711 84.4897 69.5835 84.5523C69.4116 84.5658 69.244 84.613 69.0903 84.6913C68.9366 84.7696 68.7998 84.8774 68.6878 85.0086C68.5758 85.1398 68.4907 85.2918 68.4375 85.4558C68.3843 85.6199 68.3639 85.7929 68.3776 85.9648ZM89.1639 81.3369C89.4141 82.163 89.4921 83.0317 89.3928 83.8891C89.2936 84.7466 89.0193 85.5745 88.587 86.3216C87.7945 87.6022 86.4691 88.3573 85.2073 88.2466C84.8619 88.2183 84.5193 88.3279 84.2544 88.5513C83.9894 88.7747 83.8235 89.0938 83.793 89.439C83.7624 89.7842 83.8696 90.1275 84.0912 90.394C84.3129 90.6605 84.6309 90.8285 84.9759 90.8613C85.1327 90.8759 85.2895 90.8828 85.4464 90.8821C85.8923 90.8803 86.3364 90.8253 86.7692 90.7183C86.5721 91.6775 86.0126 92.5237 85.2071 93.0807C83.3659 94.4282 79.8941 94.892 75.6696 92.1519C75.4208 91.9905 75.1246 91.9181 74.8294 91.9465C74.6715 91.9618 73.1245 92.2528 72.4481 92.1924C72.96 91.2451 73.2755 90.2042 73.3757 89.1321C73.4759 88.0601 73.3587 86.9788 73.0313 85.953C73.678 85.4848 74.2372 84.9065 74.6833 84.2443C75.3894 83.1943 75.8389 81.6788 75.9485 80.1975C76.7958 79.9366 77.5695 79.4795 78.2067 78.8631C79.8541 79.6506 82.0195 79.8009 83.7089 79.1656C84.5534 78.8601 85.3492 78.4338 86.0714 77.8999C87.31 78.6034 88.7732 80.0796 89.1639 81.3369ZM86.2425 72.2951C85.9469 72.2829 85.656 72.3707 85.4166 72.5446C85.1774 72.7184 85.0038 72.9679 84.9241 73.2528C84.8443 73.5376 84.8632 73.841 84.9775 74.1138C85.0918 74.3865 85.2949 74.6127 85.5538 74.7556C84.838 75.659 83.8767 76.3366 82.7853 76.7071C81.5741 77.1623 79.6964 76.8972 78.7669 76.1383C78.6236 76.0231 78.4577 75.9391 78.2801 75.8917C78.1024 75.8443 77.9168 75.8345 77.7351 75.863C77.5534 75.8914 77.3796 75.9575 77.225 76.057C77.0703 76.1565 76.9381 76.2871 76.8369 76.4407C76.5442 76.8659 76.1573 77.2178 75.7061 77.4688C74.9946 75.0114 73.382 72.9129 71.1907 71.5925C72.3396 70.919 73.1124 69.841 73.889 68.3653C74.9692 66.3125 74.7524 61.8874 72.4697 59.5363C73.2395 57.9642 75.0381 56.1433 78.2972 56.6589C80.6252 57.027 81.4888 58.0276 82.0267 58.9579C82.3051 59.4373 82.6953 59.8421 83.1641 60.1379C83.6329 60.4336 84.1664 60.6115 84.7189 60.6563C87.275 60.8674 89.8503 62.6776 90.7098 64.867C91.3308 66.4495 91.2798 69.0563 90.1191 70.6799C89.3001 71.8292 87.9986 72.3704 86.2425 72.2951Z" fill="#DFB21E"/>
</svg>
