<svg width="20" height="16" viewBox="0 0 20 16" fill="none" xmlns="http://www.w3.org/2000/svg">
<path d="M14.1637 6.59388H0.3125C0.139912 6.59388 -0.000244141 6.7338 -0.000244141 6.90638V9.09388C-0.000244141 9.26647 0.139912 9.40638 0.3125 9.40638H14.1638L9.55986 12.8593C9.3265 13.0344 9.27921 13.3654 9.45423 13.5988L10.5634 15.0777C10.7384 15.311 11.0695 15.3583 11.3028 15.1833L19.4718 9.05653C20.1761 8.52836 20.1761 7.47202 19.4718 6.94385L11.3028 0.817091C11.0695 0.642071 10.7384 0.689365 10.5634 0.922725L9.45423 2.4016C9.27921 2.63496 9.3265 2.96602 9.55986 3.14104L14.1637 6.59388Z" fill="white"/>
</svg>
